<svg width="32" height="33" viewBox="0 0 32 33" fill="none" xmlns="http://www.w3.org/2000/svg">
<g clip-path="url(#clip0_26_227)">
<path d="M7.0249 13.4286C7.02323 12.2431 7.25613 11.0689 7.71018 9.97381C8.16423 8.87868 8.83046 7.8842 9.67049 7.04765C10.5105 6.2111 11.5078 5.54901 12.6048 5.09952C13.7018 4.65002 14.8769 4.42201 16.0624 4.42861C21.0124 4.46611 24.9749 8.57861 24.9749 13.5411V14.4286C24.9749 18.9036 25.9124 21.5036 26.7374 22.9286C26.825 23.0804 26.8712 23.2525 26.8714 23.4277C26.8715 23.603 26.8256 23.7752 26.7383 23.9271C26.6509 24.079 26.5252 24.2053 26.3737 24.2933C26.2221 24.3813 26.0501 24.428 25.8749 24.4286H6.1249C5.94966 24.428 5.77766 24.3813 5.62613 24.2933C5.4746 24.2053 5.34886 24.079 5.26151 23.9271C5.17416 23.7752 5.12826 23.603 5.12842 23.4277C5.12857 23.2525 5.17478 23.0804 5.2624 22.9286C6.0874 21.5036 7.0249 18.9036 7.0249 14.4286V13.4286Z" stroke="black" stroke-width="2" stroke-linecap="round" stroke-linejoin="round"/>
<path d="M12 24.4286V25.4286C12 26.4895 12.4214 27.5069 13.1716 28.257C13.9217 29.0072 14.9391 29.4286 16 29.4286C17.0609 29.4286 18.0783 29.0072 18.8284 28.257C19.5786 27.5069 20 26.4895 20 25.4286V24.4286" stroke="black" stroke-width="2" stroke-linecap="round" stroke-linejoin="round"/>
<circle cx="21.5" cy="10.1125" r="8.5" fill="#47B65C"/>
<path d="M24.4238 12.7219V13.6125H18.8398V12.8333L21.6348 9.72192C21.9785 9.33911 22.2441 9.01489 22.4316 8.74927C22.623 8.47974 22.7559 8.2395 22.8301 8.02856C22.9082 7.81372 22.9473 7.59497 22.9473 7.37231C22.9473 7.09106 22.8887 6.83716 22.7715 6.6106C22.6582 6.38013 22.4902 6.19653 22.2676 6.05981C22.0449 5.9231 21.7754 5.85474 21.459 5.85474C21.0801 5.85474 20.7637 5.92896 20.5098 6.07739C20.2598 6.22192 20.0723 6.42505 19.9473 6.68677C19.8223 6.94849 19.7598 7.24927 19.7598 7.58911H18.6758C18.6758 7.10864 18.7812 6.66919 18.9922 6.27075C19.2031 5.87231 19.5156 5.55591 19.9297 5.32153C20.3438 5.08325 20.8535 4.96411 21.459 4.96411C21.998 4.96411 22.459 5.05981 22.8418 5.25122C23.2246 5.43872 23.5176 5.70435 23.7207 6.0481C23.9277 6.38794 24.0312 6.78638 24.0312 7.24341C24.0312 7.49341 23.9883 7.74731 23.9023 8.00513C23.8203 8.25903 23.7051 8.51294 23.5566 8.76685C23.4121 9.02075 23.2422 9.27075 23.0469 9.51685C22.8555 9.76294 22.6504 10.0051 22.4316 10.2434L20.1465 12.7219H24.4238Z" fill="white"/>
</g>
<defs>
<clipPath id="clip0_26_227">
<rect width="32" height="32" fill="white" transform="translate(0 0.428589)"/>
</clipPath>
</defs>
</svg>
