<svg width="16" height="16" viewBox="0 0 16 16" fill="none" xmlns="http://www.w3.org/2000/svg">
<circle cx="8" cy="8" r="8" fill="#FFF3F3"/>
<path d="M11.4769 5.14517H10.4774C10.464 5.14054 10.4501 5.13753 10.436 5.13614H9.37174V4.25348C9.3718 4.18714 9.34579 4.12346 9.29945 4.07608C9.25304 4.02871 9.18995 4.00138 9.12369 4H6.60672C6.53948 4 6.47501 4.02667 6.42752 4.07422C6.37997 4.12177 6.35324 4.18624 6.35324 4.25348V5.13614H5.29439C5.2803 5.13753 5.2664 5.14054 5.25303 5.14517H4.25347C4.16288 5.14517 4.07921 5.19345 4.03395 5.27188C3.98868 5.35031 3.98868 5.44691 4.03395 5.52535C4.07921 5.60378 4.16288 5.65211 4.25347 5.65211H5.06783L5.72585 11.7735C5.7329 11.8358 5.76263 11.8933 5.8094 11.9351C5.85611 11.9769 5.91661 11.9999 5.97932 12H9.75462C9.81668 11.9991 9.87627 11.9756 9.92233 11.9339C9.96831 11.8922 9.99751 11.8352 10.0045 11.7735L10.6625 5.66105H11.4769C11.5675 5.66105 11.6511 5.61277 11.6964 5.53434C11.7417 5.45591 11.7417 5.35924 11.6964 5.28087C11.6511 5.20244 11.5675 5.1541 11.4769 5.1541L11.4769 5.14517ZM6.86566 4.50695H8.86472V5.13614H6.86566V4.50695ZM9.52455 11.4894H6.20582L5.57663 5.66111H10.1537L9.52455 11.4894Z" fill="#E41D1D"/>
<path d="M7.86529 10.8967C7.93252 10.8967 7.99699 10.87 8.04454 10.8225C8.09209 10.7749 8.11876 10.7104 8.11876 10.6432V6.5084C8.11876 6.41781 8.07049 6.33413 7.99205 6.28888C7.91362 6.24355 7.81696 6.24355 7.73852 6.28888C7.66009 6.33414 7.61182 6.41781 7.61182 6.5084V10.6432C7.61182 10.7104 7.63848 10.7749 7.68603 10.8225C7.73359 10.87 7.79805 10.8967 7.86529 10.8967H7.86529Z" fill="#E41D1D"/>
<path d="M6.86752 10.8944H6.87829C6.94523 10.8917 7.00831 10.8625 7.05382 10.8133C7.09927 10.7641 7.12347 10.6989 7.121 10.632L6.96817 6.49719L6.96823 6.49713C6.96684 6.42941 6.93789 6.36512 6.88799 6.31926C6.83803 6.27345 6.77158 6.25004 6.70393 6.25443C6.63699 6.25726 6.57391 6.28645 6.52846 6.33563C6.48295 6.38481 6.45882 6.45 6.46122 6.51694L6.61405 10.6517C6.61724 10.7169 6.64529 10.7784 6.69248 10.8236C6.73962 10.8687 6.80228 10.8941 6.86752 10.8944L6.86752 10.8944Z" fill="#E41D1D"/>
<path d="M8.85384 10.8941H8.86281C8.92962 10.8956 8.99433 10.8708 9.04308 10.8251C9.09178 10.7794 9.12067 10.7163 9.1235 10.6496L9.27633 6.51477H9.27627C9.27874 6.44783 9.25454 6.38265 9.2091 6.33346C9.16359 6.28429 9.10051 6.25509 9.03357 6.25226C8.96513 6.24522 8.89687 6.26731 8.84553 6.31318C8.79418 6.35899 8.76457 6.42435 8.76391 6.49322L8.60927 10.628H8.60933C8.6059 10.6959 8.62986 10.7623 8.67585 10.8123C8.72177 10.8623 8.78594 10.8918 8.85384 10.8941L8.85384 10.8941Z" fill="#E41D1D"/>
</svg>
