<svg width="16" height="16" viewBox="0 0 16 16" fill="none" xmlns="http://www.w3.org/2000/svg">
<circle cx="8" cy="8.00024" r="8" fill="#FFF3F3"/>
<path d="M11.4769 5.14542H10.4774C10.464 5.14078 10.4501 5.13777 10.436 5.13639H9.37174V4.25372C9.3718 4.18739 9.3458 4.1237 9.29945 4.07633C9.25304 4.02896 9.18995 4.00163 9.12369 4.00024H6.60672C6.53948 4.00024 6.47501 4.02691 6.42752 4.07446C6.37997 4.12201 6.35324 4.18648 6.35324 4.25372V5.13639H5.29439C5.2803 5.13777 5.2664 5.14078 5.25303 5.14541H4.25347C4.16288 5.14541 4.07921 5.19369 4.03395 5.27212C3.98868 5.35055 3.98868 5.44716 4.03395 5.52559C4.07921 5.60402 4.16288 5.65236 4.25347 5.65236H5.06783L5.72585 11.7737C5.7329 11.836 5.76263 11.8935 5.8094 11.9354C5.85611 11.9771 5.91661 12.0002 5.97932 12.0002H9.75462C9.81668 11.9993 9.87627 11.9758 9.92233 11.9342C9.96831 11.8924 9.99751 11.8354 10.0045 11.7737L10.6625 5.66129H11.4769C11.5675 5.66129 11.6511 5.61302 11.6964 5.53459C11.7417 5.45615 11.7417 5.35949 11.6964 5.28112C11.6511 5.20269 11.5675 5.15435 11.4769 5.15435L11.4769 5.14542ZM6.86566 4.50719H8.86472V5.13639H6.86566V4.50719ZM9.52455 11.4897H6.20582L5.57663 5.66135H10.1537L9.52455 11.4897Z" fill="#E41D1D"/>
<path d="M7.86529 10.8964C7.93252 10.8964 7.99699 10.8697 8.04454 10.8222C8.09209 10.7747 8.11876 10.7102 8.11876 10.643V6.50815C8.11876 6.41756 8.07049 6.33389 7.99205 6.28863C7.91362 6.24331 7.81696 6.24331 7.73852 6.28863C7.66009 6.3339 7.61182 6.41757 7.61182 6.50815V10.643C7.61182 10.7102 7.63848 10.7747 7.68603 10.8222C7.73359 10.8697 7.79805 10.8964 7.86529 10.8964H7.86529Z" fill="#E41D1D"/>
<path d="M6.86752 10.8947H6.87829C6.94523 10.8919 7.00831 10.8627 7.05382 10.8135C7.09927 10.7644 7.12347 10.6992 7.121 10.6322L6.96817 6.49743L6.96823 6.49737C6.96684 6.42966 6.93789 6.36537 6.88799 6.3195C6.83803 6.27369 6.77158 6.25028 6.70393 6.25467C6.63699 6.2575 6.57391 6.2867 6.52846 6.33587C6.48295 6.38505 6.45882 6.45024 6.46122 6.51718L6.61405 10.652C6.61724 10.7172 6.64529 10.7787 6.69248 10.8238C6.73962 10.8689 6.80228 10.8943 6.86752 10.8947L6.86752 10.8947Z" fill="#E41D1D"/>
<path d="M8.8539 10.8946H8.86287C8.92968 10.8961 8.99439 10.8713 9.04315 10.8256C9.09184 10.7798 9.12073 10.7168 9.12356 10.6501L9.27639 6.51526H9.27633C9.2788 6.44832 9.2546 6.38313 9.20916 6.33395C9.16365 6.28477 9.10057 6.25558 9.03363 6.25275C8.96519 6.24571 8.89693 6.2678 8.84559 6.31367C8.79424 6.35947 8.76463 6.42484 8.76397 6.49371L8.60933 10.6285H8.60939C8.60596 10.6964 8.62992 10.7627 8.67591 10.8128C8.72183 10.8628 8.786 10.8923 8.8539 10.8946L8.8539 10.8946Z" fill="#E41D1D"/>
</svg>
