<svg width="150" height="50" viewBox="0 0 150 50" fill="none" xmlns="http://www.w3.org/2000/svg">
<path d="M0.185791 0.509277H3.9962V23.218H0.185791V0.509277Z" fill="#227CBF"/>
<path d="M8.64307 6.21183H12.0817V7.73932C12.5464 7.02649 13.197 6.51733 13.9405 6.11C14.684 5.70266 15.5204 5.60083 16.3568 5.60083C17.1933 5.60083 17.9367 5.8045 18.7732 6.11C19.5167 6.51733 20.2602 7.02649 20.8178 7.63749L21.1895 8.14665C21.7472 8.96132 22.1189 9.87782 22.2118 10.7943C22.3977 11.7108 22.3977 12.9328 22.3977 14.2566V23.0143H18.6802V14.9695C18.6802 13.9511 18.6802 13.0346 18.5873 12.5255C18.4944 11.9145 18.3085 11.4053 18.0297 10.8961C17.7509 10.387 17.3791 10.0815 16.9144 9.77598C16.4498 9.57232 15.9851 9.36865 15.5204 9.36865C14.9628 9.36865 14.4981 9.47048 14.0334 9.77598C13.5687 10.0815 13.197 10.387 13.0111 10.7943C12.8252 11.2016 12.6393 11.7108 12.5464 12.22C12.4535 12.831 12.3605 13.6456 12.3605 14.664V15.1731V22.9124H8.64307V6.21183Z" fill="#227CBF"/>
<path d="M26.4869 9.8778H25.1858V6.21181H26.4869C26.4869 4.48065 26.9516 3.05499 27.881 1.83299C28.8103 0.610998 30.0185 0 31.5984 0H32.6207V4.07332C31.6914 4.07332 31.1337 4.17515 30.762 4.37882C30.3903 4.58248 30.2973 5.19348 30.2973 6.10998H32.4349V9.77597H30.2973V23.1161H26.5798V9.8778H26.4869Z" fill="#227CBF"/>
<path d="M35.2229 6.21183H38.6616V7.73932C39.1262 7.02649 39.5909 6.51733 40.1486 6.11C40.7062 5.8045 41.3567 5.60083 42.1002 5.60083H42.379V9.57232C41.5426 9.57232 40.7991 9.77598 40.2415 10.2851C39.6839 10.7943 39.3121 11.3035 39.2192 11.8126C39.1262 12.3218 39.0333 13.1365 39.0333 13.9511V23.1161H35.3158V6.21183H35.2229Z" fill="#227CBF"/>
<path d="M60.8736 23.2179H57.435V20.8758C56.8774 21.7922 56.0409 22.4032 55.1116 22.9124C54.0893 23.4216 53.1599 23.6252 52.1376 23.6252C50.9294 23.6252 49.9071 23.4216 48.8848 22.9124C47.9554 22.4032 46.9331 21.4868 45.9108 20.2648C44.8885 18.9409 44.4238 17.1079 44.4238 14.6639C44.4238 13.4419 44.6097 12.3218 44.8885 11.4053C45.1673 10.387 45.9108 9.26679 47.0261 7.84113C48.1413 6.41547 49.9071 5.70264 52.1376 5.70264C54.3681 5.70264 56.0409 6.72097 57.342 8.65579V6.2118H60.7807V23.2179H60.8736ZM52.8811 9.67412C51.487 9.67412 50.3718 10.1833 49.5354 11.0998C48.6989 12.1181 48.2342 13.3401 48.2342 14.8676C48.2342 16.2933 48.6989 17.4134 49.5354 18.3299C50.4647 19.2464 51.487 19.7556 52.7881 19.7556C54.0893 19.7556 55.2045 19.2464 56.0409 18.3299C56.8774 17.4134 57.342 16.1914 57.342 14.6639C57.342 13.2383 56.9703 12.0163 56.1339 11.0998C55.2974 10.1833 54.1822 9.67412 52.8811 9.67412Z" fill="#227CBF"/>
<path d="M84.2936 17.0061C83.5501 19.0427 82.249 20.6721 80.4832 21.8941C78.7174 23.1161 76.7657 23.7271 74.7211 23.7271C71.7471 23.7271 69.2378 22.5051 67.1003 20.1629C64.9627 17.8207 63.9404 15.0713 63.9404 11.8126C63.9404 8.55395 64.9627 5.80445 67.1003 3.56413C69.2378 1.22197 71.6542 0.101807 74.6282 0.101807C76.7657 0.101807 78.7174 0.712805 80.5761 1.9348C82.4349 3.1568 83.736 4.88796 84.4795 7.02645H80.1114C79.4609 6.10995 78.6244 5.49896 77.6951 4.98979C76.7657 4.48063 75.7434 4.27696 74.7211 4.27696C72.8624 4.27696 71.1895 5.09162 69.8884 6.61912C68.5873 8.14661 67.9367 9.97961 67.9367 12.1181C67.9367 14.1548 68.5873 15.8859 69.9813 17.5152C71.3754 19.0427 72.9553 19.8574 74.814 19.8574C75.8363 19.8574 76.7657 19.6537 77.6021 19.1446C78.4386 18.7372 79.275 18.0244 80.0185 17.2097H84.2936V17.0061Z" fill="#47B65C"/>
<path d="M87.4536 6.21183H90.8923V7.73932C91.357 7.02649 91.8216 6.51733 92.3793 6.11C92.9369 5.8045 93.5874 5.60083 94.3309 5.60083H94.6097V9.57232C93.7733 9.57232 93.0298 9.77598 92.4722 10.2851C91.9146 10.7943 91.5428 11.3035 91.4499 11.8126C91.357 12.3218 91.264 13.1365 91.264 13.9511V23.1161H87.5465V6.21183H87.4536Z" fill="#47B65C"/>
<path d="M100.651 16.5987C100.929 17.6171 101.487 18.3299 102.231 18.9409C102.974 19.5519 103.81 19.8574 104.74 19.8574C106.227 19.8574 107.435 19.3482 108.178 18.4317H112.268C111.803 19.9592 110.781 21.1812 109.387 22.3014C107.993 23.3197 106.413 23.9307 104.833 23.9307C102.602 23.9307 100.651 23.0142 99.0707 21.2831C97.4907 19.5519 96.6543 17.4134 96.6543 14.9694C96.6543 12.4236 97.4907 10.2851 99.0707 8.4521C100.651 6.61911 102.602 5.80444 104.926 5.80444C107.156 5.80444 109.015 6.72094 110.595 8.4521C112.175 10.1833 112.918 12.3218 112.918 14.7657C112.918 15.0712 112.918 15.3767 112.825 15.7841C112.732 16.1914 112.732 16.4969 112.732 16.7006H100.651V16.5987ZM109.201 12.9328C108.922 11.9144 108.364 11.2016 107.621 10.5906C106.877 9.9796 105.948 9.6741 105.019 9.6741C104.089 9.6741 103.16 9.9796 102.323 10.5906C101.487 11.2016 100.929 12.0163 100.651 12.9328H109.201Z" fill="#47B65C"/>
<path d="M131.97 23.218H128.532V20.8759C127.974 21.7924 127.23 22.5052 126.301 22.9125C125.372 23.4217 124.349 23.6254 123.327 23.6254C122.212 23.6254 121.19 23.4217 120.26 22.9125C119.331 22.4034 118.494 21.6905 117.844 20.8759C117.193 19.9594 116.636 19.0429 116.264 18.0246C115.892 17.0062 115.706 15.8861 115.706 14.7659C115.706 12.3219 116.264 10.4889 117.286 9.16508C118.309 7.84125 119.424 6.92476 120.446 6.41559C121.468 5.90643 122.491 5.60093 123.606 5.60093C124.535 5.60093 125.465 5.80459 126.301 6.21193C127.138 6.61926 127.881 7.12842 128.439 7.94309V0.509277H132.156V23.218H131.97ZM123.885 9.67425C122.677 9.67425 121.654 10.1834 120.725 11.0999C119.796 12.1182 119.331 13.2384 119.331 14.5622C119.331 15.9879 119.796 17.2099 120.632 18.2282C121.468 19.2465 122.584 19.7557 123.885 19.7557C125.186 19.7557 126.301 19.2465 127.138 18.2282C128.067 17.2099 128.532 15.9879 128.532 14.6641C128.532 13.2384 128.067 12.1182 127.138 11.0999C126.301 10.1834 125.186 9.67425 123.885 9.67425Z" fill="#47B65C"/>
<path d="M135.781 0.509277H139.498V4.2771H135.781V0.509277ZM135.781 6.21193H139.498V23.218H135.781V6.21193Z" fill="#47B65C"/>
<path d="M144.052 9.87791H142.193V6.21193H144.052V0.509277H147.77V6.21193H150V9.87791H147.77V23.218H144.052V9.87791Z" fill="#47B65C"/>
<path d="M29.9256 46.0285C28.7175 45.4175 27.6022 44.6028 26.487 43.89C25.3717 43.0754 24.3494 42.1589 23.3271 41.2424C22.3048 40.3259 21.3755 39.3075 20.4461 38.1874C19.9814 37.6782 19.6097 37.0672 19.145 36.558C19.052 36.4562 18.9591 36.2525 18.8662 36.1507C18.7732 36.0489 18.6803 35.8452 18.5874 35.7434C18.4015 35.5397 18.2156 35.336 18.1227 35.1324C17.4721 34.3177 16.8216 33.5031 16.2639 32.5866C15.6134 31.5682 15.1487 30.6517 14.684 29.6334C14.4981 29.2261 14.3123 28.7169 14.1264 28.3096H0C0.185874 28.8187 0.371748 29.2261 0.557621 29.7352C1.11524 31.0591 1.7658 32.2811 2.50929 33.6049C3.25279 34.8269 3.99628 36.0489 4.92565 37.0672C5.76208 38.1874 6.69145 39.2057 7.71375 40.224C8.64312 41.2424 9.66543 42.1589 10.7807 42.9735C11.803 43.7882 12.9182 44.6029 14.1264 45.3157C15.2416 46.0285 16.4498 46.6395 17.658 47.2505C18.8662 47.7597 20.1673 48.2688 21.3755 48.6762C22.6766 49.0835 23.9777 49.389 25.2788 49.5927C25.8364 49.6945 26.3941 49.7963 26.9517 49.7963C27.3234 49.7963 27.7881 49.8982 28.1598 49.8982C28.5316 49.8982 28.9963 49.8982 29.368 50C29.5539 50 29.8327 50 30.0186 50C30.2045 50 30.3903 50 30.4833 50C30.855 50 31.2268 50 31.5985 50C32.0632 50 32.4349 50 32.8996 49.8982C33.4572 49.8982 33.9219 49.7963 34.4795 49.6945C35.4089 49.5927 36.3383 49.389 37.2677 49.0835C35.9665 48.778 34.6654 48.3707 33.4572 47.8615C32.342 47.2505 31.1338 46.6395 29.9256 46.0285Z" fill="#47B65C"/>
<path opacity="0.12" d="M7.71388 40.2239C8.64325 41.2423 9.66555 42.1587 10.7808 42.9734C11.8031 43.7881 12.9183 44.6027 14.1265 45.3156C15.2418 46.0284 16.4499 46.6394 17.6581 47.2504C18.8663 47.7596 20.1674 48.2687 21.3756 48.6761C22.6767 49.0834 23.9778 49.3889 25.2789 49.5926C25.8366 49.6944 26.3942 49.7962 26.9518 49.7962C27.3235 49.7962 27.7882 49.8981 28.16 49.8981C28.5317 49.8981 28.9964 49.8981 29.3681 49.9999C29.554 49.9999 29.8328 49.9999 30.0187 49.9999C30.2046 49.9999 30.3905 49.9999 30.4834 49.9999C30.8551 49.9999 31.2269 49.9999 31.5986 49.9999C32.0633 49.9999 32.4351 49.9999 32.8997 49.8981C33.4574 49.8981 33.9221 49.7962 34.4797 49.6944C35.409 49.5926 36.3384 49.3889 37.2678 49.0834C35.9667 48.7779 34.6655 48.3706 33.4574 47.8614C32.2492 47.3522 31.041 46.8431 29.8328 46.1302C28.6247 45.5192 27.5094 44.7046 26.3942 43.9917C25.2789 43.1771 24.2566 42.2606 23.2343 41.3441C22.212 40.4276 21.2827 39.4093 20.3533 38.2891C19.8886 37.7799 19.5169 37.1689 19.0522 36.6598C18.9592 36.5579 18.8663 36.3543 18.7734 36.2524C18.6804 36.1506 18.5875 35.9469 18.4945 35.8451C18.3087 35.6414 18.2157 35.5396 18.0299 35.3359C13.7548 36.0488 9.75849 37.1689 6.04102 38.5946C6.59864 39.0019 7.15626 39.6129 7.71388 40.2239Z" fill="white"/>
<path d="M46.5614 28.3096C46.1896 29.2261 45.8179 30.0407 45.3532 30.8554C44.8885 31.7719 44.3309 32.6884 43.6803 33.5031C43.1227 34.3177 42.4721 35.0305 41.8216 35.7434C41.0781 36.4562 40.3346 37.169 39.4982 37.78C38.4759 38.5947 37.3606 39.2057 36.1524 39.7149C34.9443 40.224 33.7361 40.5295 32.5279 40.6314C31.2268 40.7332 30.0186 40.7332 28.7175 40.5295C27.5093 40.3259 26.3011 39.9185 25.1859 39.3075C24.0707 38.7984 23.0484 38.0855 22.119 37.3727C21.3755 36.7617 20.632 36.0489 19.9814 35.336C20.7249 36.4562 21.6543 37.5764 22.4907 38.4929C23.4201 39.5112 24.3495 40.4277 25.3718 41.3442C26.3941 42.2607 27.4164 43.0754 28.5316 43.7882C29.6469 44.501 30.7621 45.2138 31.8774 45.8248C33.0855 46.4358 34.2008 46.945 35.5019 47.3523C36.1524 47.556 36.7101 47.7597 37.3606 47.9633C37.5465 47.9633 37.6394 48.0652 37.8253 48.0652C37.9182 48.0652 38.0112 48.0652 38.0112 48.167H38.1041H38.1971C38.4759 48.0652 38.8476 47.9633 39.1264 47.8615C40.3346 47.4542 41.5428 47.0468 42.751 46.5377C43.8662 46.0285 44.9814 45.4175 46.0967 44.8065C47.119 44.1955 48.2342 43.4827 49.1636 42.668C50.1859 41.8534 51.1153 41.0387 52.0446 40.224C52.8811 39.4094 53.7175 38.4929 54.461 37.5764C55.2045 36.7617 55.855 35.8452 56.4127 34.9287C57.0632 34.0122 57.6208 32.9939 58.1785 32.0774C58.7361 31.0591 59.2008 30.0407 59.6655 29.0224C59.7584 28.8187 59.8513 28.6151 59.9443 28.4114H46.5614V28.3096Z" fill="#227CBF"/>
<path opacity="0.12" d="M22.5837 38.4928C23.513 39.5111 24.4424 40.4276 25.4647 41.3441C26.487 42.2606 27.5093 43.0753 28.6246 43.7881C29.7398 44.5009 30.855 45.2138 31.9703 45.8248C33.1785 46.4358 34.2937 46.9449 35.5948 47.3523C36.2454 47.5559 36.803 47.7596 37.4536 47.9633C37.6394 47.9633 37.7324 48.0651 37.9182 48.0651C38.0112 48.0651 38.1041 48.0651 38.1041 48.1669H38.1971H38.29C38.5688 48.0651 38.9406 47.9633 39.2194 47.8614C40.4275 47.4541 41.6357 47.0468 42.8439 46.5376C43.9591 46.0284 45.0744 45.4174 46.1896 44.8064C47.2119 44.1954 48.3272 43.4826 49.2565 42.6679C50.2788 41.8533 51.2082 41.0386 52.1376 40.2239C52.6952 39.613 53.3458 39.002 53.9034 38.391C50.2788 37.0671 46.3755 35.947 42.2863 35.2341C42.1004 35.4378 42.0075 35.5396 41.8216 35.7433C41.0781 36.4561 40.3346 37.169 39.4982 37.78C38.4759 38.5946 37.3606 39.2056 36.1524 39.7148C34.9443 40.2239 33.7361 40.5294 32.5279 40.6313C31.2268 40.7331 30.0186 40.7331 28.7175 40.5294C27.5093 40.3258 26.3011 39.9184 25.1859 39.3075C24.0707 38.7983 23.0484 38.0855 22.119 37.3726C21.3755 36.7616 20.632 36.0488 19.9814 35.336C20.9108 36.3543 21.7472 37.4745 22.5837 38.4928Z" fill="white"/>
<path d="M68.7731 30.9571C68.2155 30.7534 67.9367 30.3461 67.9367 29.9387C67.9367 29.3277 68.4014 28.9204 69.1449 28.9204C69.4237 28.9204 69.7025 29.0222 69.9813 29.0222L70.2601 29.1241C70.2601 29.1241 70.2601 29.1241 70.2601 29.2259L70.1672 29.4296C70.1672 29.4296 70.1672 29.4296 70.0742 29.4296L69.7954 29.3277C69.5166 29.2259 69.3307 29.2259 69.0519 29.2259C68.5872 29.2259 68.2155 29.5314 68.2155 29.9387C68.2155 30.2442 68.3084 30.4479 68.7731 30.6516L69.5166 30.9571C69.9813 31.1607 70.353 31.4662 70.353 31.9754C70.353 32.6882 69.7954 33.0956 69.0519 33.0956C68.6802 33.0956 68.3084 32.9937 68.0296 32.8919L67.8438 32.7901C67.8438 32.7901 67.8438 32.7901 67.8438 32.6882L67.9367 32.4846C67.9367 32.4846 67.9367 32.4846 68.0296 32.4846L68.2155 32.5864C68.4943 32.6882 68.7731 32.7901 69.1449 32.7901C69.6096 32.7901 70.0742 32.4846 70.0742 32.0772C70.0742 31.7717 69.7954 31.5681 69.5166 31.3644L68.7731 30.9571Z" fill="#227CBF"/>
<path d="M73.048 32.9939C72.8622 33.0958 72.6763 33.0958 72.4904 33.0958C71.7469 33.0958 71.2822 32.4848 71.2822 31.5683C71.2822 30.6518 71.7469 30.0408 72.4904 30.0408C73.141 30.0408 73.5127 30.3463 73.5127 30.9573C73.5127 31.3646 73.2339 31.5683 72.7692 31.6701L71.7469 31.8738C71.8398 32.3829 72.1187 32.6884 72.5833 32.6884C72.7692 32.6884 72.9551 32.6884 73.048 32.5866L73.2339 32.4848H73.3268L73.4198 32.6884V32.7903L73.048 32.9939ZM72.6763 31.4664C72.9551 31.3646 73.141 31.2628 73.141 31.0591C73.141 30.7536 72.8621 30.5499 72.4904 30.5499C72.0257 30.5499 71.654 30.9573 71.654 31.6701L72.6763 31.4664Z" fill="#227CBF"/>
<path d="M76.0221 32.9939C75.8363 33.0958 75.6504 33.0958 75.4645 33.0958C74.6281 33.0958 74.2563 32.4848 74.2563 31.5683C74.2563 30.6518 74.721 30.0408 75.4645 30.0408C75.6504 30.0408 75.7433 30.0408 75.9292 30.1426L76.1151 30.2444C76.1151 30.2444 76.1151 30.2444 76.1151 30.3463L76.0221 30.5499C76.0221 30.5499 76.0221 30.5499 75.9292 30.5499H75.7433C75.5575 30.4481 75.4645 30.4481 75.3716 30.4481C74.814 30.4481 74.4422 30.8554 74.4422 31.5683C74.4422 32.2811 74.721 32.6884 75.2787 32.6884C75.3716 32.6884 75.5575 32.6884 75.7433 32.5866H75.9292H76.0221L76.1151 32.7903V32.8921L76.0221 32.9939Z" fill="#227CBF"/>
<path d="M79.0892 32.5866C78.8104 32.8921 78.5316 33.0958 78.1598 33.0958C77.6022 33.0958 77.2305 32.6884 77.2305 31.9756V30.2444C77.2305 30.2444 77.2305 30.1426 77.3234 30.1426H77.6022C77.6022 30.1426 77.6952 30.1426 77.6952 30.2444V31.8738C77.6952 32.3829 77.974 32.6884 78.3457 32.6884C78.9033 32.6884 79.1821 32.2811 79.1821 31.4664V30.1426C79.1821 30.1426 79.1821 30.0408 79.2751 30.0408H79.5539C79.5539 30.0408 79.6468 30.0408 79.6468 30.1426V32.8921C79.6468 32.8921 79.6468 32.9939 79.5539 32.9939H79.368C79.368 32.9939 79.2751 32.9939 79.2751 32.8921L79.0892 32.5866Z" fill="#227CBF"/>
<path d="M81.7842 30.4481C81.1336 30.5499 80.8548 31.0591 80.8548 32.0774V32.9939C80.8548 32.9939 80.8548 33.0958 80.7619 33.0958H80.4831C80.4831 33.0958 80.3901 33.0958 80.3901 32.9939V30.2444C80.3901 30.2444 80.3901 30.1426 80.4831 30.1426H80.6689C80.6689 30.1426 80.7619 30.1426 80.7619 30.2444V30.6518C80.7619 30.6518 80.7619 30.7536 80.8548 30.6518C81.0407 30.3463 81.3195 30.1426 81.7842 30.0408C81.7842 30.0408 81.8771 30.0408 81.8771 30.1426V30.4481H81.7842Z" fill="#227CBF"/>
<path d="M83.3641 32.9938L83.0853 33.0956C83.0853 33.0956 82.9924 33.0956 82.9924 32.9938V30.5498H82.7135C82.7135 30.5498 82.6206 30.5498 82.6206 30.448V30.2443C82.6206 30.2443 82.6206 30.1425 82.7135 30.1425H83.2712C83.2712 30.1425 83.3641 30.1425 83.3641 30.2443V32.9938ZM83.3641 29.0223C83.3641 29.226 83.2712 29.3278 83.0853 29.3278C82.8994 29.3278 82.8065 29.226 82.8065 29.0223C82.8065 28.8186 82.8994 28.7168 83.0853 28.7168C83.2712 28.7168 83.3641 28.9205 83.3641 29.0223Z" fill="#227CBF"/>
<path d="M84.7583 30.6517C85.0371 30.3462 85.3159 30.1426 85.6877 30.1426C86.2453 30.1426 86.617 30.5499 86.617 31.2627V32.9939C86.617 32.9939 86.617 33.0957 86.5241 33.0957H86.2453C86.2453 33.0957 86.1524 33.0957 86.1524 32.9939V31.3646C86.1524 30.8554 85.8735 30.5499 85.5018 30.5499C84.9442 30.5499 84.6654 30.9572 84.6654 31.7719V33.0957C84.6654 33.0957 84.6654 33.1976 84.5724 33.1976H84.2936C84.2936 33.1976 84.2007 33.1976 84.2007 33.0957V30.3462C84.2007 30.3462 84.2007 30.2444 84.2936 30.2444H84.4795C84.4795 30.2444 84.5724 30.2444 84.5724 30.3462L84.7583 30.6517Z" fill="#227CBF"/>
<path d="M88.104 33.9104C88.1969 33.9104 88.4758 34.0122 88.6616 34.0122C89.2192 34.0122 89.4981 33.7067 89.591 33.1976C89.591 32.6884 89.591 32.8921 89.591 32.6884C89.591 32.6884 89.591 32.5866 89.4981 32.6884C89.3122 32.9939 89.0334 33.1976 88.6616 33.1976C88.0111 33.1976 87.5464 32.5866 87.5464 31.6701C87.5464 30.7536 88.0111 30.1426 88.7546 30.1426C89.0334 30.1426 89.2192 30.2444 89.4051 30.3462L89.7769 30.5499C89.7769 30.5499 89.7769 30.5499 89.7769 30.6517V33.1976C89.7769 34.0122 89.4051 34.4196 88.5687 34.4196C88.3828 34.4196 88.104 34.4196 87.9181 34.3177L87.6393 34.2159C87.6393 34.2159 87.6393 34.2159 87.6393 34.1141L87.7323 33.9104C87.7323 33.9104 87.7323 33.9104 87.8252 33.9104H88.104ZM89.3122 30.6517C89.2193 30.5499 88.9404 30.5499 88.7546 30.5499C88.1969 30.5499 87.9181 30.9572 87.9181 31.6701C87.9181 32.3829 88.1969 32.7902 88.6616 32.7902C89.2192 32.7902 89.4981 32.2811 89.4981 31.5682V30.7536L89.3122 30.6517Z" fill="#227CBF"/>
<path d="M92.8439 32.9937L92.5651 33.0956C92.5651 33.0956 92.4722 33.0956 92.4722 32.9937V29.0222C92.4722 29.0222 92.4722 28.9204 92.5651 28.9204H92.8439C92.8439 28.9204 92.9369 28.9204 92.9369 29.0222V32.9937H92.8439Z" fill="#227CBF"/>
<path d="M94.2378 30.6517C94.3307 30.6517 94.3307 30.6517 94.2378 30.6517C94.5166 30.3462 94.7954 30.1426 95.1672 30.1426C95.7248 30.1426 96.0965 30.5499 96.0965 31.2627V32.9939C96.0965 32.9939 96.0965 33.0957 96.0036 33.0957H95.7248C95.7248 33.0957 95.6318 33.0957 95.6318 32.9939V31.3646C95.6318 30.8554 95.353 30.5499 94.9813 30.5499C94.4237 30.5499 94.1449 30.9572 94.1449 31.7719V33.0957C94.1449 33.0957 94.1449 33.1976 94.0519 33.1976H93.7731C93.7731 33.1976 93.6802 33.1976 93.6802 33.0957V30.3462C93.6802 30.3462 93.6802 30.2444 93.7731 30.2444H93.959C93.959 30.2444 94.0519 30.2444 94.0519 30.3462L94.2378 30.6517Z" fill="#227CBF"/>
<path d="M97.3977 29.6333C97.3977 29.1241 97.6765 28.7168 98.1412 28.7168C98.2341 28.7168 98.3271 28.7168 98.42 28.8186H98.5129C98.5129 28.8186 98.5129 28.8186 98.5129 28.9205L98.42 29.1241C98.42 29.1241 98.42 29.1241 98.3271 29.1241H98.2341C98.1412 29.1241 98.1412 29.1241 98.0483 29.1241C97.7695 29.1241 97.6765 29.3278 97.6765 29.6333V30.1425H98.2341C98.2341 30.1425 98.3271 30.1425 98.3271 30.2443V30.448C98.3271 30.448 98.3271 30.5498 98.2341 30.5498H97.6765V32.9938C97.6765 32.9938 97.6765 33.0956 97.5836 33.0956H97.3048C97.3048 33.0956 97.2118 33.0956 97.2118 32.9938V30.5498H96.933C96.933 30.5498 96.8401 30.5498 96.8401 30.448V30.2443C96.8401 30.2443 96.8401 30.1425 96.933 30.1425H97.2118V29.6333H97.3977Z" fill="#227CBF"/>
<path d="M100.65 30.4481C99.9998 30.5499 99.721 31.0591 99.721 32.0774V32.9939C99.721 32.9939 99.721 33.0958 99.6281 33.0958H99.3493C99.3493 33.0958 99.2563 33.0958 99.2563 32.9939V30.2444C99.2563 30.2444 99.2563 30.1426 99.3493 30.1426H99.5352C99.5352 30.1426 99.6281 30.1426 99.6281 30.2444V30.6518C99.6281 30.6518 99.6281 30.7536 99.721 30.6518C99.9069 30.3463 100.186 30.1426 100.65 30.0408C100.65 30.0408 100.743 30.0408 100.743 30.1426V30.4481H100.65Z" fill="#227CBF"/>
<path d="M101.766 30.2444C101.952 30.1426 102.137 30.1426 102.323 30.1426C102.974 30.1426 103.439 30.5499 103.439 31.2627V32.9939C103.439 32.9939 103.439 33.0957 103.346 33.0957H103.16C103.16 33.0957 103.067 33.0957 103.067 32.9939V32.6884C103.067 32.5866 102.974 32.5866 102.974 32.6884C102.788 32.9939 102.509 33.0957 102.137 33.0957C101.58 33.0957 101.301 32.7902 101.301 32.2811C101.301 31.7719 101.673 31.3646 102.23 31.3646H103.067V31.2627C103.067 30.7536 102.788 30.4481 102.323 30.4481C102.137 30.4481 101.952 30.4481 101.859 30.5499L101.673 30.6517H101.58L101.487 30.4481V30.3462L101.766 30.2444ZM102.23 31.6701C101.859 31.6701 101.673 31.8737 101.673 32.1792C101.673 32.4847 101.859 32.6884 102.23 32.6884C102.788 32.6884 103.067 32.3829 103.067 31.6701H102.23Z" fill="#227CBF"/>
<path d="M105.018 31.6701C104.647 31.5682 104.461 31.3646 104.461 30.9572C104.461 30.4481 104.833 30.1426 105.39 30.1426C105.669 30.1426 105.855 30.1426 106.041 30.2444L106.227 30.3462C106.227 30.3462 106.227 30.3462 106.227 30.4481L106.134 30.6517C106.134 30.6517 106.134 30.6517 106.041 30.6517L105.855 30.5499C105.669 30.5499 105.483 30.4481 105.297 30.4481C104.926 30.4481 104.74 30.6517 104.74 30.8554C104.74 31.0591 104.833 31.1609 105.111 31.2627L105.762 31.4664C106.227 31.5682 106.413 31.8737 106.413 32.1792C106.413 32.6884 106.041 32.9939 105.39 32.9939C105.111 32.9939 104.833 32.9939 104.554 32.8921L104.368 32.7902C104.368 32.7902 104.368 32.7902 104.368 32.6884L104.461 32.4847C104.461 32.4847 104.461 32.4847 104.554 32.4847L104.74 32.5866C104.926 32.6884 105.204 32.6884 105.483 32.6884C105.855 32.6884 106.134 32.4847 106.134 32.1792C106.134 31.9756 106.041 31.8737 105.762 31.7719L105.018 31.6701Z" fill="#227CBF"/>
<path d="M108.364 30.2444C108.457 30.2444 108.457 30.2444 108.364 30.2444L108.457 30.5499C108.457 30.5499 108.457 30.6517 108.364 30.6517H107.807V32.4847C107.807 32.7902 107.9 32.892 108.085 32.892C108.085 32.892 108.178 32.892 108.271 32.892H108.364L108.457 33.0957V33.1975C108.364 33.1975 108.271 33.2993 108.178 33.2993C107.807 33.2993 107.528 32.9938 107.528 32.5865V30.7535H107.249C107.249 30.7535 107.156 30.7535 107.156 30.6517V30.448C107.156 30.448 107.156 30.3462 107.249 30.3462H107.528V29.6334V29.5315L107.807 29.4297H107.9V30.2444H108.364Z" fill="#227CBF"/>
<path d="M110.688 30.4481C110.037 30.5499 109.758 31.0591 109.758 32.0774V32.9939C109.758 32.9939 109.758 33.0958 109.665 33.0958H109.386C109.386 33.0958 109.293 33.0958 109.293 32.9939V30.2444C109.293 30.2444 109.293 30.1426 109.386 30.1426H109.572C109.572 30.1426 109.665 30.1426 109.665 30.2444V30.6518C109.665 30.6518 109.665 30.7536 109.758 30.6518C109.944 30.3463 110.223 30.1426 110.688 30.0408C110.688 30.0408 110.78 30.0408 110.78 30.1426V30.4481H110.688Z" fill="#227CBF"/>
<path d="M113.569 32.5866C113.29 32.8921 113.011 33.0958 112.639 33.0958C112.082 33.0958 111.71 32.6884 111.71 31.9756V30.2444C111.71 30.2444 111.71 30.1426 111.803 30.1426H112.082C112.082 30.1426 112.175 30.1426 112.175 30.2444V31.8738C112.175 32.3829 112.453 32.6884 112.825 32.6884C113.383 32.6884 113.662 32.2811 113.662 31.4664V30.1426C113.662 30.1426 113.662 30.0408 113.755 30.0408H114.033C114.033 30.0408 114.126 30.0408 114.126 30.1426V32.8921C114.126 32.8921 114.126 32.9939 114.033 32.9939H113.848C113.848 32.9939 113.755 32.9939 113.755 32.8921L113.569 32.5866Z" fill="#227CBF"/>
<path d="M116.543 32.9939C116.357 33.0958 116.171 33.0958 115.985 33.0958C115.149 33.0958 114.777 32.4848 114.777 31.5683C114.777 30.6518 115.242 30.0408 115.985 30.0408C116.171 30.0408 116.264 30.0408 116.45 30.1426L116.636 30.2444C116.636 30.2444 116.636 30.2444 116.636 30.3463L116.543 30.5499C116.543 30.5499 116.543 30.5499 116.45 30.5499H116.264C116.078 30.4481 115.985 30.4481 115.892 30.4481C115.334 30.4481 114.963 30.8554 114.963 31.5683C114.963 32.2811 115.242 32.6884 115.799 32.6884C115.892 32.6884 116.078 32.6884 116.264 32.5866H116.45H116.543L116.636 32.7903V32.8921L116.543 32.9939Z" fill="#227CBF"/>
<path d="M118.866 30.2444L118.959 30.5499C118.959 30.5499 118.959 30.6517 118.866 30.6517H118.308V32.4847C118.308 32.7902 118.401 32.892 118.587 32.892C118.587 32.892 118.68 32.892 118.773 32.892H118.866L118.959 33.0957V33.1975C118.866 33.1975 118.773 33.2993 118.68 33.2993C118.308 33.2993 118.029 32.9938 118.029 32.5865V30.7535H117.751C117.751 30.7535 117.658 30.7535 117.658 30.6517V30.448C117.658 30.448 117.658 30.3462 117.751 30.3462H118.029V29.6334V29.5315L118.308 29.4297H118.401V30.2444H118.866Z" fill="#227CBF"/>
<path d="M121.747 32.5866C121.468 32.8921 121.189 33.0958 120.818 33.0958C120.26 33.0958 119.888 32.6884 119.888 31.9756V30.2444C119.888 30.2444 119.888 30.1426 119.981 30.1426H120.26C120.26 30.1426 120.353 30.1426 120.353 30.2444V31.8738C120.353 32.3829 120.632 32.6884 121.003 32.6884C121.561 32.6884 121.84 32.2811 121.84 31.4664V30.1426C121.84 30.1426 121.84 30.0408 121.933 30.0408H122.212C122.212 30.0408 122.305 30.0408 122.305 30.1426V32.8921C122.305 32.8921 122.305 32.9939 122.212 32.9939H122.026C122.026 32.9939 121.933 32.9939 121.933 32.8921L121.747 32.5866Z" fill="#227CBF"/>
<path d="M124.442 30.4481C123.792 30.5499 123.513 31.0591 123.513 32.0774V32.9939C123.513 32.9939 123.513 33.0958 123.42 33.0958H123.141C123.141 33.0958 123.048 33.0958 123.048 32.9939V30.2444C123.048 30.2444 123.048 30.1426 123.141 30.1426H123.327C123.327 30.1426 123.42 30.1426 123.42 30.2444V30.6518C123.42 30.6518 123.42 30.7536 123.513 30.6518C123.699 30.3463 123.978 30.1426 124.442 30.0408C124.442 30.0408 124.535 30.0408 124.535 30.1426V30.4481H124.442Z" fill="#227CBF"/>
<path d="M126.951 32.9939C126.765 33.0958 126.58 33.0958 126.394 33.0958C125.65 33.0958 125.186 32.4848 125.186 31.5683C125.186 30.6518 125.65 30.0408 126.394 30.0408C127.044 30.0408 127.416 30.3463 127.416 30.9573C127.416 31.3646 127.137 31.5683 126.673 31.6701L125.65 31.8738C125.743 32.3829 126.022 32.6884 126.487 32.6884C126.673 32.6884 126.858 32.6884 126.951 32.5866L127.137 32.4848H127.23L127.323 32.6884V32.7903L126.951 32.9939ZM126.58 31.4664C126.858 31.3646 127.044 31.2628 127.044 31.0591C127.044 30.7536 126.765 30.5499 126.394 30.5499C125.929 30.5499 125.557 30.9573 125.557 31.6701L126.58 31.4664Z" fill="#227CBF"/>
<path d="M131.877 30.8552L131.97 31.1607C131.97 31.1607 131.97 31.2626 131.877 31.2626H130.204V32.9937C130.204 32.9937 130.204 33.0956 130.111 33.0956H129.925C129.925 33.0956 129.833 33.0956 129.833 32.9937V29.0222C129.833 29.0222 129.833 28.9204 129.925 28.9204H132.249C132.249 28.9204 132.342 28.9204 132.249 29.0222L132.156 29.2259C132.156 29.2259 132.156 29.2259 132.063 29.2259H130.111V30.8552H131.877Z" fill="#227CBF"/>
<path d="M133.736 32.9938L133.457 33.0956C133.457 33.0956 133.364 33.0956 133.364 32.9938V30.5498H133.085C133.085 30.5498 132.992 30.5498 132.992 30.448V30.2443C132.992 30.2443 132.992 30.1425 133.085 30.1425H133.643C133.643 30.1425 133.736 30.1425 133.736 30.2443V32.9938ZM133.736 29.0223C133.736 29.226 133.643 29.3278 133.457 29.3278C133.271 29.3278 133.178 29.226 133.178 29.0223C133.178 28.8186 133.271 28.7168 133.457 28.7168C133.643 28.7168 133.736 28.9205 133.736 29.0223Z" fill="#227CBF"/>
<path d="M135.13 30.6517C135.409 30.3462 135.688 30.1426 136.059 30.1426C136.617 30.1426 136.989 30.5499 136.989 31.2627V32.9939C136.989 32.9939 136.989 33.0957 136.896 33.0957H136.617C136.617 33.0957 136.524 33.0957 136.524 32.9939V31.3646C136.524 30.8554 136.245 30.5499 135.873 30.5499C135.316 30.5499 135.037 30.9572 135.037 31.7719V33.0957C135.037 33.0957 135.037 33.1976 134.944 33.1976H134.665C134.665 33.1976 134.572 33.1976 134.572 33.0957V30.3462C134.572 30.3462 134.572 30.2444 134.665 30.2444H134.851C134.851 30.2444 134.944 30.2444 134.944 30.3462L135.13 30.6517Z" fill="#227CBF"/>
<path d="M138.383 30.2444C138.569 30.1426 138.754 30.1426 138.94 30.1426C139.591 30.1426 140.056 30.5499 140.056 31.2627V32.9939C140.056 32.9939 140.056 33.0957 139.963 33.0957H139.777C139.777 33.0957 139.684 33.0957 139.684 32.9939V32.6884C139.684 32.5866 139.591 32.5866 139.591 32.6884C139.405 32.9939 139.126 33.0957 138.754 33.0957C138.197 33.0957 137.918 32.7902 137.918 32.2811C137.918 31.7719 138.29 31.3646 138.847 31.3646H139.684V31.2627C139.684 30.7536 139.405 30.4481 138.94 30.4481C138.754 30.4481 138.569 30.4481 138.476 30.5499L138.29 30.6517H138.197L138.104 30.4481V30.3462L138.383 30.2444ZM138.847 31.6701C138.476 31.6701 138.29 31.8737 138.29 32.1792C138.29 32.4847 138.476 32.6884 138.847 32.6884C139.405 32.6884 139.684 32.3829 139.684 31.6701H138.847Z" fill="#227CBF"/>
<path d="M141.357 30.6517C141.45 30.6517 141.45 30.6517 141.357 30.6517C141.636 30.3462 141.914 30.1426 142.286 30.1426C142.844 30.1426 143.215 30.5499 143.215 31.2627V32.9939C143.215 32.9939 143.215 33.0957 143.122 33.0957H142.844C142.844 33.0957 142.751 33.0957 142.751 32.9939V31.3646C142.751 30.8554 142.472 30.5499 142.1 30.5499C141.543 30.5499 141.264 30.9572 141.264 31.7719V33.0957C141.264 33.0957 141.264 33.1976 141.171 33.1976H140.892C140.892 33.1976 140.799 33.1976 140.799 33.0957V30.3462C140.799 30.3462 140.799 30.2444 140.892 30.2444H141.078C141.078 30.2444 141.171 30.2444 141.171 30.3462L141.357 30.6517Z" fill="#227CBF"/>
<path d="M146.004 32.9939C145.818 33.0958 145.632 33.0958 145.446 33.0958C144.61 33.0958 144.238 32.4848 144.238 31.5683C144.238 30.6518 144.702 30.0408 145.446 30.0408C145.632 30.0408 145.725 30.0408 145.911 30.1426L146.097 30.2444C146.097 30.2444 146.097 30.2444 146.097 30.3463L146.004 30.5499C146.004 30.5499 146.004 30.5499 145.911 30.5499H145.725C145.539 30.4481 145.446 30.4481 145.353 30.4481C144.795 30.4481 144.424 30.8554 144.424 31.5683C144.424 32.2811 144.702 32.6884 145.26 32.6884C145.353 32.6884 145.539 32.6884 145.725 32.5866H145.911H146.004L146.097 32.7903V32.8921L146.004 32.9939Z" fill="#227CBF"/>
<path d="M148.792 32.9939C148.606 33.0958 148.42 33.0958 148.234 33.0958C147.491 33.0958 147.026 32.4848 147.026 31.5683C147.026 30.6518 147.491 30.0408 148.234 30.0408C148.885 30.0408 149.256 30.3463 149.256 30.9573C149.256 31.3646 148.978 31.5683 148.513 31.6701L147.491 31.8738C147.583 32.3829 147.862 32.6884 148.327 32.6884C148.513 32.6884 148.699 32.6884 148.792 32.5866L148.978 32.4848H149.07L149.163 32.6884V32.7903L148.792 32.9939ZM148.327 31.4664C148.606 31.3646 148.792 31.2628 148.792 31.0591C148.792 30.7536 148.513 30.5499 148.141 30.5499C147.676 30.5499 147.305 30.9573 147.305 31.6701L148.327 31.4664Z" fill="#227CBF"/>
</svg>
