<svg width="151" height="46" viewBox="0 0 151 46" fill="none" xmlns="http://www.w3.org/2000/svg">
<path d="M0.685867 0.464722H4.49628V21.1896H0.685867V0.464722Z" fill="#227CBF"/>
<path d="M9.14309 5.66919H12.5818V7.06324C13.0464 6.41269 13.697 5.948 14.4405 5.57626C15.184 5.20451 16.0204 5.11157 16.8568 5.11157C17.6933 5.11157 18.4368 5.29745 19.2732 5.57626C20.0167 5.948 20.7602 6.41269 21.3178 6.97031L21.6896 7.43499C22.2472 8.17849 22.6189 9.01492 22.7119 9.85135C22.8977 10.6878 22.8977 11.803 22.8977 13.0112V21.0038H19.1803V13.6618C19.1803 12.7324 19.1803 11.896 19.0873 11.4313C18.9944 10.8737 18.8085 10.409 18.5297 9.94429C18.2509 9.4796 17.8792 9.20079 17.4145 8.92198C16.9498 8.73611 16.4851 8.55023 16.0204 8.55023C15.4628 8.55023 14.9981 8.64317 14.5334 8.92198C14.0687 9.20079 13.697 9.4796 13.5111 9.85135C13.3252 10.2231 13.1394 10.6878 13.0464 11.1525C12.9535 11.7101 12.8606 12.4536 12.8606 13.3829V13.8476V20.9108H9.14309V5.66919Z" fill="#227CBF"/>
<path d="M26.987 9.01487H25.6859V5.66914H26.987C26.987 4.08922 27.4517 2.7881 28.3811 1.67286C29.3104 0.557621 30.5186 0 32.0985 0H33.1208V3.71747C32.1915 3.71747 31.6338 3.81041 31.2621 3.99628C30.8904 4.18216 30.7974 4.73978 30.7974 5.57621H32.935V8.92193H30.7974V21.0967H27.0799V9.01487H26.987Z" fill="#227CBF"/>
<path d="M35.723 5.66919H39.1617V7.06325C39.6263 6.41269 40.091 5.948 40.6486 5.57626C41.2063 5.29745 41.8568 5.11157 42.6003 5.11157H42.8791V8.73611C42.0427 8.73611 41.2992 8.92198 40.7416 9.38667C40.184 9.85135 39.8122 10.316 39.7193 10.7807C39.6263 11.2454 39.5334 11.9889 39.5334 12.7324V21.0967H35.8159V5.66919H35.723Z" fill="#227CBF"/>
<path d="M61.3736 21.1896H57.9349V19.0521C57.3773 19.8885 56.5409 20.4461 55.6115 20.9108C54.5892 21.3755 53.6598 21.5613 52.6375 21.5613C51.4293 21.5613 50.407 21.3755 49.3847 20.9108C48.4554 20.4461 47.4331 19.6097 46.4107 18.4944C45.3884 17.2863 44.9238 15.6134 44.9238 13.3829C44.9238 12.2677 45.1096 11.2454 45.3884 10.4089C45.6673 9.47956 46.4107 8.45726 47.526 7.15614C48.6412 5.85503 50.407 5.20447 52.6375 5.20447C54.868 5.20447 56.5409 6.13384 57.842 7.89963V5.66915H61.2806V21.1896H61.3736ZM53.381 8.829C51.987 8.829 50.8717 9.29369 50.0353 10.1301C49.1989 11.0595 48.7342 12.1747 48.7342 13.5688C48.7342 14.8699 49.1989 15.8922 50.0353 16.7286C50.9647 17.5651 51.987 18.0297 53.2881 18.0297C54.5892 18.0297 55.7044 17.5651 56.5409 16.7286C57.3773 15.8922 57.842 14.777 57.842 13.3829C57.842 12.0818 57.4702 10.9665 56.6338 10.1301C55.7974 9.29369 54.6821 8.829 53.381 8.829Z" fill="#227CBF"/>
<path d="M84.7937 15.5204C84.0502 17.3791 82.749 18.8661 80.9832 19.9814C79.2174 21.0966 77.2658 21.6542 75.2212 21.6542C72.2472 21.6542 69.7379 20.539 67.6003 18.4014C65.4628 16.2639 64.4405 13.7546 64.4405 10.7806C64.4405 7.80665 65.4628 5.29736 67.6003 3.25275C69.7379 1.1152 72.1542 0.0928955 75.1282 0.0928955C77.2658 0.0928955 79.2174 0.650516 81.0762 1.76576C82.9349 2.881 84.236 4.46093 84.9795 6.4126H80.6115C79.9609 5.57617 79.1245 5.01855 78.1951 4.55386C77.2658 4.08918 76.2435 3.9033 75.2212 3.9033C73.3624 3.9033 71.6896 4.6468 70.3884 6.04085C69.0873 7.4349 68.4368 9.10777 68.4368 11.0594C68.4368 12.9182 69.0873 14.4981 70.4814 15.9851C71.8754 17.3791 73.4554 18.1226 75.3141 18.1226C76.3364 18.1226 77.2658 17.9368 78.1022 17.4721C78.9386 17.1003 79.7751 16.4498 80.5186 15.7063H84.7937V15.5204Z" fill="#47B65C"/>
<path d="M87.9535 5.66919H91.3922V7.06325C91.8569 6.41269 92.3216 5.948 92.8792 5.57626C93.4368 5.29745 94.0874 5.11157 94.8309 5.11157H95.1097V8.73611C94.2732 8.73611 93.5297 8.92198 92.9721 9.38667C92.4145 9.85135 92.0428 10.316 91.9498 10.7807C91.8569 11.2454 91.764 11.9889 91.764 12.7324V21.0967H88.0465V5.66919H87.9535Z" fill="#47B65C"/>
<path d="M101.151 15.1487C101.429 16.078 101.987 16.7286 102.731 17.2862C103.474 17.8438 104.31 18.1226 105.24 18.1226C106.727 18.1226 107.935 17.658 108.678 16.8215H112.768C112.303 18.2156 111.281 19.3308 109.887 20.3531C108.493 21.2825 106.913 21.8401 105.333 21.8401C103.102 21.8401 101.151 21.0037 99.5707 19.4238C97.9907 17.8438 97.1543 15.8922 97.1543 13.6617C97.1543 11.3383 97.9907 9.38658 99.5707 7.71372C101.151 6.04086 103.102 5.29736 105.426 5.29736C107.656 5.29736 109.515 6.13379 111.095 7.71372C112.675 9.29365 113.418 11.2453 113.418 13.4758C113.418 13.7546 113.418 14.0334 113.325 14.4052C113.232 14.7769 113.232 15.0557 113.232 15.2416H101.151V15.1487ZM109.701 11.8029C109.422 10.8736 108.864 10.223 108.121 9.66539C107.377 9.10777 106.448 8.82896 105.519 8.82896C104.589 8.82896 103.66 9.10777 102.823 9.66539C101.987 10.223 101.429 10.9665 101.151 11.8029H109.701Z" fill="#47B65C"/>
<path d="M132.47 21.1896H129.032V19.0521C128.474 19.8885 127.731 20.5391 126.801 20.9108C125.872 21.3755 124.849 21.5614 123.827 21.5614C122.712 21.5614 121.69 21.3755 120.76 20.9108C119.831 20.4461 118.994 19.7956 118.344 19.0521C117.693 18.2156 117.136 17.3792 116.764 16.4499C116.392 15.5205 116.206 14.4982 116.206 13.4759C116.206 11.2454 116.764 9.57253 117.786 8.36435C118.809 7.15617 119.924 6.31974 120.946 5.85506C121.968 5.39037 122.991 5.11156 124.106 5.11156C125.035 5.11156 125.965 5.29743 126.801 5.66918C127.638 6.04093 128.381 6.50561 128.939 7.24911V0.464722H132.656V21.1896H132.47ZM124.385 8.82903C123.177 8.82903 122.154 9.29372 121.225 10.1301C120.296 11.0595 119.831 12.0818 119.831 13.29C119.831 14.5911 120.296 15.7064 121.132 16.6357C121.968 17.5651 123.084 18.0298 124.385 18.0298C125.686 18.0298 126.801 17.5651 127.638 16.6357C128.567 15.7064 129.032 14.5911 129.032 13.3829C129.032 12.0818 128.567 11.0595 127.638 10.1301C126.801 9.29372 125.686 8.82903 124.385 8.82903Z" fill="#47B65C"/>
<path d="M136.281 0.464722H139.998V3.90338H136.281V0.464722ZM136.281 5.66918H139.998V21.1896H136.281V5.66918Z" fill="#47B65C"/>
<path d="M144.552 9.01491H142.693V5.66918H144.552V0.464722H148.27V5.66918H150.5V9.01491H148.27V21.1896H144.552V9.01491Z" fill="#47B65C"/>
<path d="M30.4256 42.0074C29.2175 41.4498 28.1022 40.7063 26.987 40.0558C25.8717 39.3123 24.8494 38.4758 23.8271 37.6394C22.8048 36.803 21.8755 35.8736 20.9461 34.8513C20.4814 34.3866 20.1097 33.829 19.645 33.3643C19.552 33.2714 19.4591 33.0855 19.3662 32.9926C19.2732 32.8996 19.1803 32.7137 19.0874 32.6208C18.9015 32.4349 18.7156 32.2491 18.6227 32.0632C17.9721 31.3197 17.3216 30.5762 16.7639 29.7398C16.1134 28.8104 15.6487 27.974 15.184 27.0446C14.9981 26.6729 14.8123 26.2082 14.6264 25.8364H0.5C0.685874 26.3011 0.871748 26.6729 1.05762 27.1375C1.61524 28.3457 2.2658 29.461 3.00929 30.6691C3.75279 31.7844 4.49628 32.8996 5.42565 33.829C6.26208 34.8513 7.19145 35.7807 8.21375 36.71C9.14312 37.6394 10.1654 38.4758 11.2807 39.2193C12.303 39.9628 13.4182 40.7063 14.6264 41.3569C15.7416 42.0074 16.9498 42.565 18.158 43.1227C19.3662 43.5874 20.6673 44.052 21.8755 44.4238C23.1766 44.7955 24.4777 45.0743 25.7788 45.2602C26.3364 45.3532 26.8941 45.4461 27.4517 45.4461C27.8234 45.4461 28.2881 45.539 28.6598 45.539C29.0316 45.539 29.4963 45.539 29.868 45.632C30.0539 45.632 30.3327 45.632 30.5186 45.632C30.7045 45.632 30.8903 45.632 30.9833 45.632C31.355 45.632 31.7268 45.632 32.0985 45.632C32.5632 45.632 32.9349 45.632 33.3996 45.539C33.9572 45.539 34.4219 45.4461 34.9795 45.3532C35.9089 45.2602 36.8383 45.0743 37.7677 44.7955C36.4665 44.5167 35.1654 44.145 33.9572 43.6803C32.842 43.1227 31.6338 42.565 30.4256 42.0074Z" fill="#47B65C"/>
<path opacity="0.12" d="M8.21376 36.71C9.14312 37.6394 10.1654 38.4758 11.2807 39.2193C12.303 39.9628 13.4182 40.7063 14.6264 41.3568C15.7416 42.0074 16.9498 42.565 18.158 43.1226C19.3662 43.5873 20.6673 44.052 21.8755 44.4237C23.1766 44.7955 24.4777 45.0743 25.7788 45.2602C26.3364 45.3531 26.8941 45.446 27.4517 45.446C27.8234 45.446 28.2881 45.539 28.6599 45.539C29.0316 45.539 29.4963 45.539 29.868 45.6319C30.0539 45.6319 30.3327 45.6319 30.5186 45.6319C30.7045 45.6319 30.8903 45.6319 30.9833 45.6319C31.355 45.6319 31.7268 45.6319 32.0985 45.6319C32.5632 45.6319 32.9349 45.6319 33.3996 45.539C33.9572 45.539 34.4219 45.4461 34.9796 45.3531C35.9089 45.2602 36.8383 45.0743 37.7677 44.7955C36.4665 44.5167 35.1654 44.1449 33.9572 43.6803C32.7491 43.2156 31.5409 42.7509 30.3327 42.1003C29.1245 41.5427 28.0093 40.7992 26.894 40.1487C25.7788 39.4052 24.7565 38.5687 23.7342 37.7323C22.7119 36.8959 21.7825 35.9665 20.8532 34.9442C20.3885 34.4795 20.0167 33.9219 19.552 33.4572C19.4591 33.3643 19.3662 33.1784 19.2732 33.0855C19.1803 32.9925 19.0874 32.8066 18.9944 32.7137C18.8086 32.5278 18.7156 32.4349 18.5297 32.249C14.2546 32.8996 10.2584 33.9219 6.54089 35.223C7.09851 35.5947 7.65614 36.1524 8.21376 36.71Z" fill="white"/>
<path d="M47.0613 25.8364C46.6896 26.6729 46.3178 27.4164 45.8532 28.1598C45.3885 28.9963 44.8309 29.8327 44.1803 30.5762C43.6227 31.3197 42.9721 31.9703 42.3216 32.6208C41.5781 33.2714 40.8346 33.9219 39.9981 34.4795C38.9758 35.223 37.8606 35.7807 36.6524 36.2453C35.4442 36.71 34.2361 36.9888 33.0279 37.0818C31.7268 37.1747 30.5186 37.1747 29.2175 36.9888C28.0093 36.803 26.8011 36.4312 25.6859 35.8736C24.5706 35.4089 23.5483 34.7584 22.619 34.1078C21.8755 33.5502 21.132 32.8996 20.4814 32.2491C21.2249 33.2714 22.1543 34.2937 22.9907 35.1301C23.9201 36.0595 24.8494 36.8959 25.8717 37.7323C26.894 38.5688 27.9164 39.3123 29.0316 39.9628C30.1468 40.6134 31.2621 41.2639 32.3773 41.8216C33.5855 42.3792 34.7007 42.8439 36.0019 43.2156C36.6524 43.4015 37.21 43.5874 37.8606 43.7732C38.0465 43.7732 38.1394 43.8662 38.3253 43.8662C38.4182 43.8662 38.5111 43.8662 38.5111 43.9591H38.6041H38.697C38.9758 43.8662 39.3476 43.7732 39.6264 43.6803C40.8346 43.3085 42.0427 42.9368 43.2509 42.4721C44.3662 42.0074 45.4814 41.4498 46.5966 40.8922C47.619 40.3346 48.7342 39.684 49.6636 38.9405C50.6859 38.197 51.6152 37.4535 52.5446 36.71C53.381 35.9665 54.2175 35.1301 54.961 34.2937C55.7045 33.5502 56.355 32.7137 56.9126 31.8773C57.5632 31.0409 58.1208 30.1115 58.6784 29.2751C59.2361 28.3457 59.7007 27.4164 60.1654 26.487C60.2584 26.3011 60.3513 26.1152 60.4442 25.9294H47.0613V25.8364Z" fill="#227CBF"/>
<path opacity="0.12" d="M23.0836 35.1301C24.013 36.0595 24.9424 36.8959 25.9647 37.7323C26.987 38.5688 28.0093 39.3123 29.1245 39.9628C30.2398 40.6134 31.355 41.2639 32.4703 41.8216C33.6784 42.3792 34.7937 42.8439 36.0948 43.2156C36.7454 43.4015 37.303 43.5874 37.9535 43.7732C38.1394 43.7732 38.2323 43.8662 38.4182 43.8662C38.5111 43.8662 38.6041 43.8662 38.6041 43.9591H38.697H38.79C39.0688 43.8662 39.4405 43.7732 39.7193 43.6803C40.9275 43.3085 42.1357 42.9368 43.3439 42.4721C44.4591 42.0074 45.5743 41.4498 46.6896 40.8922C47.7119 40.3346 48.8271 39.684 49.7565 38.9405C50.7788 38.197 51.7082 37.4535 52.6375 36.71C53.1952 36.1524 53.8457 35.5948 54.4033 35.0372C50.7788 33.829 46.8755 32.8067 42.7862 32.1561C42.6004 32.342 42.5074 32.4349 42.3216 32.6208C41.5781 33.2714 40.8346 33.9219 39.9981 34.4795C38.9758 35.223 37.8606 35.7807 36.6524 36.2453C35.4442 36.71 34.2361 36.9888 33.0279 37.0818C31.7268 37.1747 30.5186 37.1747 29.2175 36.9888C28.0093 36.803 26.8011 36.4312 25.6859 35.8736C24.5706 35.4089 23.5483 34.7584 22.619 34.1078C21.8755 33.5502 21.132 32.8996 20.4814 32.2491C21.4108 33.1784 22.2472 34.2007 23.0836 35.1301Z" fill="white"/>
<path d="M69.2732 28.2527C68.7156 28.0668 68.4368 27.695 68.4368 27.3233C68.4368 26.7657 68.9015 26.3939 69.645 26.3939C69.9238 26.3939 70.2026 26.4869 70.4814 26.4869L70.7602 26.5798C70.7602 26.5798 70.7602 26.5798 70.7602 26.6727L70.6673 26.8586C70.6673 26.8586 70.6673 26.8586 70.5743 26.8586L70.2955 26.7657C70.0167 26.6727 69.8308 26.6727 69.552 26.6727C69.0874 26.6727 68.7156 26.9515 68.7156 27.3233C68.7156 27.6021 68.8085 27.788 69.2732 27.9738L70.0167 28.2527C70.4814 28.4385 70.8532 28.7173 70.8532 29.182C70.8532 29.8326 70.2955 30.2043 69.552 30.2043C69.1803 30.2043 68.8085 30.1114 68.5297 30.0185L68.3439 29.9255C68.3439 29.9255 68.3439 29.9255 68.3439 29.8326L68.4368 29.6467C68.4368 29.6467 68.4368 29.6467 68.5297 29.6467L68.7156 29.7396C68.9944 29.8326 69.2732 29.9255 69.645 29.9255C70.1097 29.9255 70.5743 29.6467 70.5743 29.275C70.5743 28.9962 70.2955 28.8103 70.0167 28.6244L69.2732 28.2527Z" fill="#227CBF"/>
<path d="M73.5483 30.1115C73.3624 30.2045 73.1765 30.2045 72.9906 30.2045C72.2472 30.2045 71.7825 29.6469 71.7825 28.8104C71.7825 27.974 72.2472 27.4164 72.9906 27.4164C73.6412 27.4164 74.013 27.6952 74.013 28.2528C74.013 28.6246 73.7341 28.8104 73.2695 28.9034L72.2472 29.0892C72.3401 29.5539 72.6189 29.8327 73.0836 29.8327C73.2695 29.8327 73.4553 29.8327 73.5483 29.7398L73.7341 29.6469H73.8271L73.92 29.8327V29.9257L73.5483 30.1115ZM73.1765 28.7175C73.4553 28.6246 73.6412 28.5316 73.6412 28.3458C73.6412 28.0669 73.3624 27.8811 72.9906 27.8811C72.526 27.8811 72.1542 28.2528 72.1542 28.9034L73.1765 28.7175Z" fill="#227CBF"/>
<path d="M76.5223 30.1115C76.3364 30.2045 76.1506 30.2045 75.9647 30.2045C75.1283 30.2045 74.7565 29.6469 74.7565 28.8104C74.7565 27.974 75.2212 27.4164 75.9647 27.4164C76.1506 27.4164 76.2435 27.4164 76.4294 27.5093L76.6153 27.6023C76.6153 27.6023 76.6153 27.6023 76.6153 27.6952L76.5223 27.8811C76.5223 27.8811 76.5223 27.8811 76.4294 27.8811H76.2435C76.0576 27.7881 75.9647 27.7881 75.8718 27.7881C75.3141 27.7881 74.9424 28.1599 74.9424 28.8104C74.9424 29.461 75.2212 29.8327 75.7788 29.8327C75.8718 29.8327 76.0576 29.8327 76.2435 29.7398H76.4294H76.5223L76.6153 29.9257V30.0186L76.5223 30.1115Z" fill="#227CBF"/>
<path d="M79.5892 29.7398C79.3104 30.0186 79.0316 30.2045 78.6598 30.2045C78.1022 30.2045 77.7304 29.8327 77.7304 29.1822V27.6023C77.7304 27.6023 77.7304 27.5093 77.8234 27.5093H78.1022C78.1022 27.5093 78.1951 27.5093 78.1951 27.6023V29.0892C78.1951 29.5539 78.4739 29.8327 78.8457 29.8327C79.4033 29.8327 79.6821 29.461 79.6821 28.7175V27.5093C79.6821 27.5093 79.6821 27.4164 79.7751 27.4164H80.0539C80.0539 27.4164 80.1468 27.4164 80.1468 27.5093V30.0186C80.1468 30.0186 80.1468 30.1115 80.0539 30.1115H79.868C79.868 30.1115 79.7751 30.1115 79.7751 30.0186L79.5892 29.7398Z" fill="#227CBF"/>
<path d="M82.2844 27.7881C81.6338 27.8811 81.355 28.3458 81.355 29.2751V30.1115C81.355 30.1115 81.355 30.2045 81.2621 30.2045H80.9833C80.9833 30.2045 80.8903 30.2045 80.8903 30.1115V27.6023C80.8903 27.6023 80.8903 27.5093 80.9833 27.5093H81.1691C81.1691 27.5093 81.2621 27.5093 81.2621 27.6023V27.974C81.2621 27.974 81.2621 28.0669 81.355 27.974C81.5409 27.6952 81.8197 27.5093 82.2844 27.4164C82.2844 27.4164 82.3773 27.4164 82.3773 27.5093V27.7881H82.2844Z" fill="#227CBF"/>
<path d="M83.8643 30.1115L83.5855 30.2044C83.5855 30.2044 83.4926 30.2044 83.4926 30.1115V27.881H83.2138C83.2138 27.881 83.1208 27.881 83.1208 27.7881V27.6022C83.1208 27.6022 83.1208 27.5092 83.2138 27.5092H83.7714C83.7714 27.5092 83.8643 27.5092 83.8643 27.6022V30.1115ZM83.8643 26.4869C83.8643 26.6728 83.7714 26.7658 83.5855 26.7658C83.3996 26.7658 83.3067 26.6728 83.3067 26.4869C83.3067 26.3011 83.3996 26.2081 83.5855 26.2081C83.7714 26.2081 83.8643 26.394 83.8643 26.4869Z" fill="#227CBF"/>
<path d="M85.2583 27.974C85.5371 27.6952 85.8159 27.5093 86.1877 27.5093C86.7453 27.5093 87.1171 27.881 87.1171 28.5316V30.1115C87.1171 30.1115 87.1171 30.2044 87.0241 30.2044H86.7453C86.7453 30.2044 86.6524 30.2044 86.6524 30.1115V28.6245C86.6524 28.1598 86.3736 27.881 86.0018 27.881C85.4442 27.881 85.1654 28.2528 85.1654 28.9963V30.2044C85.1654 30.2044 85.1654 30.2974 85.0724 30.2974H84.7936C84.7936 30.2974 84.7007 30.2974 84.7007 30.2044V27.6952C84.7007 27.6952 84.7007 27.6022 84.7936 27.6022H84.9795C84.9795 27.6022 85.0724 27.6022 85.0724 27.6952L85.2583 27.974Z" fill="#227CBF"/>
<path d="M88.604 30.9479C88.697 30.9479 88.9758 31.0409 89.1617 31.0409C89.7193 31.0409 89.9981 30.7621 90.091 30.2974C90.091 29.8327 90.091 30.0186 90.091 29.8327C90.091 29.8327 90.091 29.7398 89.9981 29.8327C89.8122 30.1115 89.5334 30.2974 89.1617 30.2974C88.5111 30.2974 88.0464 29.7398 88.0464 28.9033C88.0464 28.0669 88.5111 27.5093 89.2546 27.5093C89.5334 27.5093 89.7193 27.6022 89.9052 27.6952L90.2769 27.881C90.2769 27.881 90.2769 27.881 90.2769 27.974V30.2974C90.2769 31.0409 89.9052 31.4126 89.0687 31.4126C88.8828 31.4126 88.604 31.4126 88.4182 31.3197L88.1394 31.2267C88.1394 31.2267 88.1394 31.2268 88.1394 31.1338L88.2323 30.9479C88.2323 30.9479 88.2323 30.9479 88.3252 30.9479H88.604ZM89.8122 27.974C89.7193 27.881 89.4405 27.881 89.2546 27.881C88.697 27.881 88.4182 28.2528 88.4182 28.9033C88.4182 29.5539 88.697 29.9256 89.1617 29.9256C89.7193 29.9256 89.9981 29.461 89.9981 28.8104V28.0669L89.8122 27.974Z" fill="#227CBF"/>
<path d="M93.3439 30.1114L93.065 30.2043C93.065 30.2043 92.9721 30.2043 92.9721 30.1114V26.4869C92.9721 26.4869 92.9721 26.3939 93.065 26.3939H93.3439C93.3439 26.3939 93.4368 26.3939 93.4368 26.4869V30.1114H93.3439Z" fill="#227CBF"/>
<path d="M94.7379 27.974C94.8309 27.974 94.8309 27.974 94.7379 27.974C95.0168 27.6952 95.2956 27.5093 95.6673 27.5093C96.2249 27.5093 96.5967 27.881 96.5967 28.5316V30.1115C96.5967 30.1115 96.5967 30.2044 96.5037 30.2044H96.2249C96.2249 30.2044 96.132 30.2044 96.132 30.1115V28.6245C96.132 28.1598 95.8532 27.881 95.4814 27.881C94.9238 27.881 94.645 28.2528 94.645 28.9963V30.2044C94.645 30.2044 94.645 30.2974 94.5521 30.2974H94.2733C94.2733 30.2974 94.1803 30.2974 94.1803 30.2044V27.6952C94.1803 27.6952 94.1803 27.6022 94.2733 27.6022H94.4591C94.4591 27.6022 94.5521 27.6022 94.5521 27.6952L94.7379 27.974Z" fill="#227CBF"/>
<path d="M97.8977 27.0446C97.8977 26.5799 98.1765 26.2081 98.6412 26.2081C98.7341 26.2081 98.8271 26.2081 98.92 26.3011H99.0129C99.0129 26.3011 99.0129 26.3011 99.0129 26.394L98.92 26.5799C98.92 26.5799 98.92 26.5799 98.8271 26.5799H98.7341C98.6412 26.5799 98.6412 26.5799 98.5483 26.5799C98.2695 26.5799 98.1765 26.7658 98.1765 27.0446V27.5092H98.7341C98.7341 27.5092 98.8271 27.5092 98.8271 27.6022V27.7881C98.8271 27.7881 98.8271 27.881 98.7341 27.881H98.1765V30.1115C98.1765 30.1115 98.1765 30.2044 98.0836 30.2044H97.8048C97.8048 30.2044 97.7118 30.2044 97.7118 30.1115V27.881H97.433C97.433 27.881 97.3401 27.881 97.3401 27.7881V27.6022C97.3401 27.6022 97.3401 27.5092 97.433 27.5092H97.7118V27.0446H97.8977Z" fill="#227CBF"/>
<path d="M101.151 27.7881C100.5 27.8811 100.221 28.3458 100.221 29.2751V30.1115C100.221 30.1115 100.221 30.2045 100.128 30.2045H99.8495C99.8495 30.2045 99.7565 30.2045 99.7565 30.1115V27.6023C99.7565 27.6023 99.7565 27.5093 99.8495 27.5093H100.035C100.035 27.5093 100.128 27.5093 100.128 27.6023V27.974C100.128 27.974 100.128 28.0669 100.221 27.974C100.407 27.6952 100.686 27.5093 101.151 27.4164C101.151 27.4164 101.244 27.4164 101.244 27.5093V27.7881H101.151Z" fill="#227CBF"/>
<path d="M102.266 27.6022C102.452 27.5093 102.638 27.5093 102.823 27.5093C103.474 27.5093 103.939 27.881 103.939 28.5316V30.1115C103.939 30.1115 103.939 30.2044 103.846 30.2044H103.66C103.66 30.2044 103.567 30.2044 103.567 30.1115V29.8327C103.567 29.7398 103.474 29.7398 103.474 29.8327C103.288 30.1115 103.009 30.2044 102.638 30.2044C102.08 30.2044 101.801 29.9256 101.801 29.4609C101.801 28.9963 102.173 28.6245 102.73 28.6245H103.567V28.5316C103.567 28.0669 103.288 27.7881 102.823 27.7881C102.638 27.7881 102.452 27.7881 102.359 27.881L102.173 27.974H102.08L101.987 27.7881V27.6952L102.266 27.6022ZM102.73 28.9033C102.359 28.9033 102.173 29.0892 102.173 29.368C102.173 29.6468 102.359 29.8327 102.73 29.8327C103.288 29.8327 103.567 29.5539 103.567 28.9033H102.73Z" fill="#227CBF"/>
<path d="M105.519 28.9033C105.147 28.8104 104.961 28.6245 104.961 28.2528C104.961 27.7881 105.333 27.5093 105.89 27.5093C106.169 27.5093 106.355 27.5093 106.541 27.6022L106.727 27.6952C106.727 27.6952 106.727 27.6952 106.727 27.7881L106.634 27.974C106.634 27.974 106.634 27.974 106.541 27.974L106.355 27.881C106.169 27.881 105.983 27.7881 105.797 27.7881C105.426 27.7881 105.24 27.974 105.24 28.1598C105.24 28.3457 105.333 28.4386 105.612 28.5316L106.262 28.7175C106.727 28.8104 106.913 29.0892 106.913 29.368C106.913 29.8327 106.541 30.1115 105.89 30.1115C105.612 30.1115 105.333 30.1115 105.054 30.0186L104.868 29.9256C104.868 29.9256 104.868 29.9256 104.868 29.8327L104.961 29.6468C104.961 29.6468 104.961 29.6468 105.054 29.6468L105.24 29.7398C105.426 29.8327 105.704 29.8327 105.983 29.8327C106.355 29.8327 106.634 29.6468 106.634 29.368C106.634 29.1821 106.541 29.0892 106.262 28.9963L105.519 28.9033Z" fill="#227CBF"/>
<path d="M108.864 27.6021C108.957 27.6021 108.957 27.6021 108.864 27.6021L108.957 27.8809C108.957 27.8809 108.957 27.9739 108.864 27.9739H108.307V29.6467C108.307 29.9256 108.4 30.0185 108.586 30.0185C108.586 30.0185 108.678 30.0185 108.771 30.0185H108.864L108.957 30.2044V30.2973C108.864 30.2973 108.771 30.3902 108.678 30.3902C108.307 30.3902 108.028 30.1114 108.028 29.7397V28.0668H107.749C107.749 28.0668 107.656 28.0668 107.656 27.9739V27.788C107.656 27.788 107.656 27.6951 107.749 27.6951H108.028V27.0445V26.9516L108.307 26.8586H108.4V27.6021H108.864Z" fill="#227CBF"/>
<path d="M111.188 27.7881C110.537 27.8811 110.258 28.3458 110.258 29.2751V30.1115C110.258 30.1115 110.258 30.2045 110.165 30.2045H109.887C109.887 30.2045 109.794 30.2045 109.794 30.1115V27.6023C109.794 27.6023 109.794 27.5093 109.887 27.5093H110.072C110.072 27.5093 110.165 27.5093 110.165 27.6023V27.974C110.165 27.974 110.165 28.0669 110.258 27.974C110.444 27.6952 110.723 27.5093 111.188 27.4164C111.188 27.4164 111.281 27.4164 111.281 27.5093V27.7881H111.188Z" fill="#227CBF"/>
<path d="M114.069 29.7398C113.79 30.0186 113.511 30.2045 113.139 30.2045C112.582 30.2045 112.21 29.8327 112.21 29.1822V27.6023C112.21 27.6023 112.21 27.5093 112.303 27.5093H112.582C112.582 27.5093 112.675 27.5093 112.675 27.6023V29.0892C112.675 29.5539 112.953 29.8327 113.325 29.8327C113.883 29.8327 114.162 29.461 114.162 28.7175V27.5093C114.162 27.5093 114.162 27.4164 114.255 27.4164H114.533C114.533 27.4164 114.626 27.4164 114.626 27.5093V30.0186C114.626 30.0186 114.626 30.1115 114.533 30.1115H114.348C114.348 30.1115 114.255 30.1115 114.255 30.0186L114.069 29.7398Z" fill="#227CBF"/>
<path d="M117.043 30.1115C116.857 30.2045 116.671 30.2045 116.485 30.2045C115.649 30.2045 115.277 29.6469 115.277 28.8104C115.277 27.974 115.742 27.4164 116.485 27.4164C116.671 27.4164 116.764 27.4164 116.95 27.5093L117.136 27.6023C117.136 27.6023 117.136 27.6023 117.136 27.6952L117.043 27.8811C117.043 27.8811 117.043 27.8811 116.95 27.8811H116.764C116.578 27.7881 116.485 27.7881 116.392 27.7881C115.835 27.7881 115.463 28.1599 115.463 28.8104C115.463 29.461 115.742 29.8327 116.299 29.8327C116.392 29.8327 116.578 29.8327 116.764 29.7398H116.95H117.043L117.136 29.9257V30.0186L117.043 30.1115Z" fill="#227CBF"/>
<path d="M119.366 27.6021L119.459 27.8809C119.459 27.8809 119.459 27.9739 119.366 27.9739H118.809V29.6467C118.809 29.9256 118.901 30.0185 119.087 30.0185C119.087 30.0185 119.18 30.0185 119.273 30.0185H119.366L119.459 30.2044V30.2973C119.366 30.2973 119.273 30.3902 119.18 30.3902C118.809 30.3902 118.53 30.1114 118.53 29.7397V28.0668H118.251C118.251 28.0668 118.158 28.0668 118.158 27.9739V27.788C118.158 27.788 118.158 27.6951 118.251 27.6951H118.53V27.0445V26.9516L118.809 26.8586H118.901V27.6021H119.366Z" fill="#227CBF"/>
<path d="M122.247 29.7398C121.968 30.0186 121.69 30.2045 121.318 30.2045C120.76 30.2045 120.388 29.8327 120.388 29.1822V27.6023C120.388 27.6023 120.388 27.5093 120.481 27.5093H120.76C120.76 27.5093 120.853 27.5093 120.853 27.6023V29.0892C120.853 29.5539 121.132 29.8327 121.504 29.8327C122.061 29.8327 122.34 29.461 122.34 28.7175V27.5093C122.34 27.5093 122.34 27.4164 122.433 27.4164H122.712C122.712 27.4164 122.805 27.4164 122.805 27.5093V30.0186C122.805 30.0186 122.805 30.1115 122.712 30.1115H122.526C122.526 30.1115 122.433 30.1115 122.433 30.0186L122.247 29.7398Z" fill="#227CBF"/>
<path d="M124.942 27.7881C124.292 27.8811 124.013 28.3458 124.013 29.2751V30.1115C124.013 30.1115 124.013 30.2045 123.92 30.2045H123.641C123.641 30.2045 123.548 30.2045 123.548 30.1115V27.6023C123.548 27.6023 123.548 27.5093 123.641 27.5093H123.827C123.827 27.5093 123.92 27.5093 123.92 27.6023V27.974C123.92 27.974 123.92 28.0669 124.013 27.974C124.199 27.6952 124.478 27.5093 124.942 27.4164C124.942 27.4164 125.035 27.4164 125.035 27.5093V27.7881H124.942Z" fill="#227CBF"/>
<path d="M127.452 30.1115C127.266 30.2045 127.08 30.2045 126.894 30.2045C126.151 30.2045 125.686 29.6469 125.686 28.8104C125.686 27.974 126.151 27.4164 126.894 27.4164C127.545 27.4164 127.916 27.6952 127.916 28.2528C127.916 28.6246 127.637 28.8104 127.173 28.9034L126.151 29.0892C126.243 29.5539 126.522 29.8327 126.987 29.8327C127.173 29.8327 127.359 29.8327 127.452 29.7398L127.637 29.6469H127.73L127.823 29.8327V29.9257L127.452 30.1115ZM127.08 28.7175C127.359 28.6246 127.545 28.5316 127.545 28.3458C127.545 28.0669 127.266 27.8811 126.894 27.8811C126.429 27.8811 126.058 28.2528 126.058 28.9034L127.08 28.7175Z" fill="#227CBF"/>
<path d="M132.377 28.1597L132.47 28.4385C132.47 28.4385 132.47 28.5315 132.377 28.5315H130.704V30.1114C130.704 30.1114 130.704 30.2043 130.611 30.2043H130.426C130.426 30.2043 130.333 30.2043 130.333 30.1114V26.4869C130.333 26.4869 130.333 26.3939 130.426 26.3939H132.749C132.749 26.3939 132.842 26.3939 132.749 26.4869L132.656 26.6727C132.656 26.6727 132.656 26.6727 132.563 26.6727H130.611V28.1597H132.377Z" fill="#227CBF"/>
<path d="M134.236 30.1115L133.957 30.2044C133.957 30.2044 133.864 30.2044 133.864 30.1115V27.881H133.585C133.585 27.881 133.493 27.881 133.493 27.7881V27.6022C133.493 27.6022 133.493 27.5092 133.585 27.5092H134.143C134.143 27.5092 134.236 27.5092 134.236 27.6022V30.1115ZM134.236 26.4869C134.236 26.6728 134.143 26.7658 133.957 26.7658C133.771 26.7658 133.678 26.6728 133.678 26.4869C133.678 26.3011 133.771 26.2081 133.957 26.2081C134.143 26.2081 134.236 26.394 134.236 26.4869Z" fill="#227CBF"/>
<path d="M135.63 27.974C135.909 27.6952 136.188 27.5093 136.56 27.5093C137.117 27.5093 137.489 27.881 137.489 28.5316V30.1115C137.489 30.1115 137.489 30.2044 137.396 30.2044H137.117C137.117 30.2044 137.024 30.2044 137.024 30.1115V28.6245C137.024 28.1598 136.745 27.881 136.374 27.881C135.816 27.881 135.537 28.2528 135.537 28.9963V30.2044C135.537 30.2044 135.537 30.2974 135.444 30.2974H135.165C135.165 30.2974 135.073 30.2974 135.073 30.2044V27.6952C135.073 27.6952 135.073 27.6022 135.165 27.6022H135.351C135.351 27.6022 135.444 27.6022 135.444 27.6952L135.63 27.974Z" fill="#227CBF"/>
<path d="M138.883 27.6022C139.069 27.5093 139.255 27.5093 139.441 27.5093C140.091 27.5093 140.556 27.881 140.556 28.5316V30.1115C140.556 30.1115 140.556 30.2044 140.463 30.2044H140.277C140.277 30.2044 140.184 30.2044 140.184 30.1115V29.8327C140.184 29.7398 140.091 29.7398 140.091 29.8327C139.905 30.1115 139.626 30.2044 139.255 30.2044C138.697 30.2044 138.418 29.9256 138.418 29.4609C138.418 28.9963 138.79 28.6245 139.348 28.6245H140.184V28.5316C140.184 28.0669 139.905 27.7881 139.441 27.7881C139.255 27.7881 139.069 27.7881 138.976 27.881L138.79 27.974H138.697L138.604 27.7881V27.6952L138.883 27.6022ZM139.348 28.9033C138.976 28.9033 138.79 29.0892 138.79 29.368C138.79 29.6468 138.976 29.8327 139.348 29.8327C139.905 29.8327 140.184 29.5539 140.184 28.9033H139.348Z" fill="#227CBF"/>
<path d="M141.857 27.974C141.95 27.974 141.95 27.974 141.857 27.974C142.136 27.6952 142.414 27.5093 142.786 27.5093C143.344 27.5093 143.716 27.881 143.716 28.5316V30.1115C143.716 30.1115 143.716 30.2044 143.623 30.2044H143.344C143.344 30.2044 143.251 30.2044 143.251 30.1115V28.6245C143.251 28.1598 142.972 27.881 142.6 27.881C142.043 27.881 141.764 28.2528 141.764 28.9963V30.2044C141.764 30.2044 141.764 30.2974 141.671 30.2974H141.392C141.392 30.2974 141.299 30.2974 141.299 30.2044V27.6952C141.299 27.6952 141.299 27.6022 141.392 27.6022H141.578C141.578 27.6022 141.671 27.6022 141.671 27.6952L141.857 27.974Z" fill="#227CBF"/>
<path d="M146.504 30.1115C146.318 30.2045 146.132 30.2045 145.946 30.2045C145.11 30.2045 144.738 29.6469 144.738 28.8104C144.738 27.974 145.203 27.4164 145.946 27.4164C146.132 27.4164 146.225 27.4164 146.411 27.5093L146.597 27.6023C146.597 27.6023 146.597 27.6023 146.597 27.6952L146.504 27.8811C146.504 27.8811 146.504 27.8811 146.411 27.8811H146.225C146.039 27.7881 145.946 27.7881 145.853 27.7881C145.295 27.7881 144.924 28.1599 144.924 28.8104C144.924 29.461 145.203 29.8327 145.76 29.8327C145.853 29.8327 146.039 29.8327 146.225 29.7398H146.411H146.504L146.597 29.9257V30.0186L146.504 30.1115Z" fill="#227CBF"/>
<path d="M149.292 30.1115C149.106 30.2045 148.92 30.2045 148.734 30.2045C147.991 30.2045 147.526 29.6469 147.526 28.8104C147.526 27.974 147.991 27.4164 148.734 27.4164C149.385 27.4164 149.756 27.6952 149.756 28.2528C149.756 28.6246 149.478 28.8104 149.013 28.9034L147.991 29.0892C148.084 29.5539 148.362 29.8327 148.827 29.8327C149.013 29.8327 149.199 29.8327 149.292 29.7398L149.478 29.6469H149.571L149.664 29.8327V29.9257L149.292 30.1115ZM148.827 28.7175C149.106 28.6246 149.292 28.5316 149.292 28.3458C149.292 28.0669 149.013 27.8811 148.641 27.8811C148.177 27.8811 147.805 28.2528 147.805 28.9034L148.827 28.7175Z" fill="#227CBF"/>
</svg>
