<svg width="151" height="46" viewBox="0 0 151 46" fill="none" xmlns="http://www.w3.org/2000/svg">
<path d="M0.685791 0.4646H4.4962V21.1895H0.685791V0.4646Z" fill="#227CBF"/>
<path d="M9.14307 5.66919H12.5817V7.06324C13.0464 6.41269 13.697 5.948 14.4405 5.57626C15.184 5.20451 16.0204 5.11157 16.8568 5.11157C17.6933 5.11157 18.4367 5.29745 19.2732 5.57626C20.0167 5.948 20.7602 6.41269 21.3178 6.97031L21.6895 7.43499C22.2472 8.17849 22.6189 9.01492 22.7118 9.85135C22.8977 10.6878 22.8977 11.803 22.8977 13.0112V21.0038H19.1802V13.6618C19.1802 12.7324 19.1802 11.896 19.0873 11.4313C18.9944 10.8737 18.8085 10.409 18.5297 9.94429C18.2509 9.4796 17.8791 9.20079 17.4144 8.92198C16.9498 8.73611 16.4851 8.55023 16.0204 8.55023C15.4628 8.55023 14.9981 8.64317 14.5334 8.92198C14.0687 9.20079 13.697 9.4796 13.5111 9.85135C13.3252 10.2231 13.1393 10.6878 13.0464 11.1525C12.9535 11.7101 12.8605 12.4536 12.8605 13.3829V13.8476V20.9108H9.14307V5.66919Z" fill="#227CBF"/>
<path d="M26.9869 9.01487H25.6858V5.66914H26.9869C26.9869 4.08922 27.4516 2.7881 28.381 1.67286C29.3103 0.557621 30.5185 0 32.0984 0H33.1207V3.71747C32.1914 3.71747 31.6337 3.81041 31.262 3.99628C30.8903 4.18216 30.7973 4.73978 30.7973 5.57621H32.9349V8.92193H30.7973V21.0967H27.0798V9.01487H26.9869Z" fill="#227CBF"/>
<path d="M35.7229 5.66919H39.1616V7.06325C39.6262 6.41269 40.0909 5.948 40.6486 5.57626C41.2062 5.29745 41.8567 5.11157 42.6002 5.11157H42.879V8.73611C42.0426 8.73611 41.2991 8.92198 40.7415 9.38667C40.1839 9.85135 39.8121 10.316 39.7192 10.7807C39.6262 11.2454 39.5333 11.9889 39.5333 12.7324V21.0967H35.8158V5.66919H35.7229Z" fill="#227CBF"/>
<path d="M61.3735 21.1895H57.9349V19.0519C57.3772 19.8884 56.5408 20.446 55.6114 20.9107C54.5891 21.3753 53.6598 21.5612 52.6375 21.5612C51.4293 21.5612 50.407 21.3753 49.3847 20.9107C48.4553 20.446 47.433 19.6095 46.4107 18.4943C45.3884 17.2861 44.9237 15.6133 44.9237 13.3828C44.9237 12.2675 45.1096 11.2452 45.3884 10.4088C45.6672 9.47944 46.4107 8.45713 47.5259 7.15602C48.6412 5.8549 50.407 5.20435 52.6375 5.20435C54.8679 5.20435 56.5408 6.13371 57.8419 7.89951V5.66903H61.2806V21.1895H61.3735ZM53.381 8.82888C51.9869 8.82888 50.8717 9.29356 50.0352 10.13C49.1988 11.0594 48.7341 12.1746 48.7341 13.5687C48.7341 14.8698 49.1988 15.8921 50.0352 16.7285C50.9646 17.5649 51.9869 18.0296 53.288 18.0296C54.5891 18.0296 55.7044 17.5649 56.5408 16.7285C57.3772 15.8921 57.8419 14.7768 57.8419 13.3828C57.8419 12.0817 57.4702 10.9664 56.6337 10.13C55.7973 9.29356 54.6821 8.82888 53.381 8.82888Z" fill="#227CBF"/>
<path d="M84.7936 15.5205C84.0501 17.3793 82.749 18.8663 80.9832 19.9815C79.2174 21.0967 77.2657 21.6544 75.2211 21.6544C72.2471 21.6544 69.7378 20.5391 67.6003 18.4016C65.4627 16.264 64.4404 13.7547 64.4404 10.7807C64.4404 7.80677 65.4627 5.29748 67.6003 3.25287C69.7378 1.11532 72.1542 0.0930176 75.1282 0.0930176C77.2657 0.0930176 79.2174 0.650638 81.0761 1.76588C82.9349 2.88112 84.236 4.46105 84.9795 6.41272H80.6114C79.9609 5.57629 79.1244 5.01867 78.1951 4.55398C77.2657 4.0893 76.2434 3.90343 75.2211 3.90343C73.3624 3.90343 71.6895 4.64692 70.3884 6.04097C69.0873 7.43502 68.4367 9.10789 68.4367 11.0596C68.4367 12.9183 69.0873 14.4982 70.4813 15.9852C71.8754 17.3793 73.4553 18.1228 75.314 18.1228C76.3363 18.1228 77.2657 17.9369 78.1021 17.4722C78.9386 17.1005 79.775 16.4499 80.5185 15.7064H84.7936V15.5205Z" fill="#47B65C"/>
<path d="M87.9535 5.66919H91.3922V7.06325C91.8568 6.41269 92.3215 5.948 92.8791 5.57626C93.4368 5.29745 94.0873 5.11157 94.8308 5.11157H95.1096V8.73611C94.2732 8.73611 93.5297 8.92198 92.9721 9.38667C92.4145 9.85135 92.0427 10.316 91.9498 10.7807C91.8568 11.2454 91.7639 11.9889 91.7639 12.7324V21.0967H88.0464V5.66919H87.9535Z" fill="#47B65C"/>
<path d="M101.151 15.1487C101.429 16.078 101.987 16.7286 102.731 17.2862C103.474 17.8438 104.31 18.1226 105.24 18.1226C106.727 18.1226 107.935 17.658 108.678 16.8215H112.768C112.303 18.2156 111.281 19.3308 109.887 20.3531C108.493 21.2825 106.913 21.8401 105.333 21.8401C103.102 21.8401 101.151 21.0037 99.5707 19.4238C97.9907 17.8438 97.1543 15.8922 97.1543 13.6617C97.1543 11.3383 97.9907 9.38658 99.5707 7.71372C101.151 6.04086 103.102 5.29736 105.426 5.29736C107.656 5.29736 109.515 6.13379 111.095 7.71372C112.675 9.29365 113.418 11.2453 113.418 13.4758C113.418 13.7546 113.418 14.0334 113.325 14.4052C113.232 14.7769 113.232 15.0557 113.232 15.2416H101.151V15.1487ZM109.701 11.8029C109.422 10.8736 108.864 10.223 108.121 9.66539C107.377 9.10777 106.448 8.82896 105.519 8.82896C104.589 8.82896 103.66 9.10777 102.823 9.66539C101.987 10.223 101.429 10.9665 101.151 11.8029H109.701Z" fill="#47B65C"/>
<path d="M132.47 21.1895H129.032V19.052C128.474 19.8884 127.73 20.5389 126.801 20.9107C125.872 21.3754 124.849 21.5613 123.827 21.5613C122.712 21.5613 121.69 21.3754 120.76 20.9107C119.831 20.446 118.994 19.7955 118.344 19.052C117.693 18.2155 117.136 17.3791 116.764 16.4497C116.392 15.5204 116.206 14.4981 116.206 13.4758C116.206 11.2453 116.764 9.57241 117.786 8.36423C118.809 7.15605 119.924 6.31962 120.946 5.85493C121.968 5.39025 122.991 5.11144 124.106 5.11144C125.035 5.11144 125.965 5.29731 126.801 5.66906C127.638 6.04081 128.381 6.50549 128.939 7.24899V0.4646H132.656V21.1895H132.47ZM124.385 8.82891C123.177 8.82891 122.154 9.29359 121.225 10.13C120.296 11.0594 119.831 12.0817 119.831 13.2899C119.831 14.591 120.296 15.7062 121.132 16.6356C121.968 17.565 123.084 18.0297 124.385 18.0297C125.686 18.0297 126.801 17.565 127.638 16.6356C128.567 15.7062 129.032 14.591 129.032 13.3828C129.032 12.0817 128.567 11.0594 127.638 10.13C126.801 9.29359 125.686 8.82891 124.385 8.82891Z" fill="#47B65C"/>
<path d="M136.281 0.4646H139.998V3.90326H136.281V0.4646ZM136.281 5.66906H139.998V21.1895H136.281V5.66906Z" fill="#47B65C"/>
<path d="M144.552 9.01479H142.693V5.66906H144.552V0.4646H148.27V5.66906H150.5V9.01479H148.27V21.1895H144.552V9.01479Z" fill="#47B65C"/>
<path d="M30.4256 42.0074C29.2175 41.4498 28.1022 40.7063 26.987 40.0558C25.8717 39.3123 24.8494 38.4758 23.8271 37.6394C22.8048 36.803 21.8755 35.8736 20.9461 34.8513C20.4814 34.3866 20.1097 33.829 19.645 33.3643C19.552 33.2714 19.4591 33.0855 19.3662 32.9926C19.2732 32.8996 19.1803 32.7137 19.0874 32.6208C18.9015 32.4349 18.7156 32.2491 18.6227 32.0632C17.9721 31.3197 17.3216 30.5762 16.7639 29.7398C16.1134 28.8104 15.6487 27.974 15.184 27.0446C14.9981 26.6729 14.8123 26.2082 14.6264 25.8364H0.5C0.685874 26.3011 0.871748 26.6729 1.05762 27.1375C1.61524 28.3457 2.2658 29.461 3.00929 30.6691C3.75279 31.7844 4.49628 32.8996 5.42565 33.829C6.26208 34.8513 7.19145 35.7807 8.21375 36.71C9.14312 37.6394 10.1654 38.4758 11.2807 39.2193C12.303 39.9628 13.4182 40.7063 14.6264 41.3569C15.7416 42.0074 16.9498 42.565 18.158 43.1227C19.3662 43.5874 20.6673 44.052 21.8755 44.4238C23.1766 44.7955 24.4777 45.0743 25.7788 45.2602C26.3364 45.3532 26.8941 45.4461 27.4517 45.4461C27.8234 45.4461 28.2881 45.539 28.6598 45.539C29.0316 45.539 29.4963 45.539 29.868 45.632C30.0539 45.632 30.3327 45.632 30.5186 45.632C30.7045 45.632 30.8903 45.632 30.9833 45.632C31.355 45.632 31.7268 45.632 32.0985 45.632C32.5632 45.632 32.9349 45.632 33.3996 45.539C33.9572 45.539 34.4219 45.4461 34.9795 45.3532C35.9089 45.2602 36.8383 45.0743 37.7677 44.7955C36.4665 44.5167 35.1654 44.145 33.9572 43.6803C32.842 43.1227 31.6338 42.565 30.4256 42.0074Z" fill="#47B65C"/>
<path opacity="0.12" d="M8.21376 36.71C9.14312 37.6394 10.1654 38.4758 11.2807 39.2193C12.303 39.9628 13.4182 40.7063 14.6264 41.3568C15.7416 42.0074 16.9498 42.565 18.158 43.1226C19.3662 43.5873 20.6673 44.052 21.8755 44.4237C23.1766 44.7955 24.4777 45.0743 25.7788 45.2602C26.3364 45.3531 26.8941 45.446 27.4517 45.446C27.8234 45.446 28.2881 45.539 28.6599 45.539C29.0316 45.539 29.4963 45.539 29.868 45.6319C30.0539 45.6319 30.3327 45.6319 30.5186 45.6319C30.7045 45.6319 30.8903 45.6319 30.9833 45.6319C31.355 45.6319 31.7268 45.6319 32.0985 45.6319C32.5632 45.6319 32.9349 45.6319 33.3996 45.539C33.9572 45.539 34.4219 45.4461 34.9796 45.3531C35.9089 45.2602 36.8383 45.0743 37.7677 44.7955C36.4665 44.5167 35.1654 44.1449 33.9572 43.6803C32.7491 43.2156 31.5409 42.7509 30.3327 42.1003C29.1245 41.5427 28.0093 40.7992 26.894 40.1487C25.7788 39.4052 24.7565 38.5687 23.7342 37.7323C22.7119 36.8959 21.7825 35.9665 20.8532 34.9442C20.3885 34.4795 20.0167 33.9219 19.552 33.4572C19.4591 33.3643 19.3662 33.1784 19.2732 33.0855C19.1803 32.9925 19.0874 32.8066 18.9944 32.7137C18.8086 32.5278 18.7156 32.4349 18.5297 32.249C14.2546 32.8996 10.2584 33.9219 6.54089 35.223C7.09851 35.5947 7.65614 36.1524 8.21376 36.71Z" fill="white"/>
<path d="M47.0614 25.8364C46.6896 26.6729 46.3179 27.4164 45.8532 28.1598C45.3885 28.9963 44.8309 29.8327 44.1803 30.5762C43.6227 31.3197 42.9721 31.9703 42.3216 32.6208C41.5781 33.2714 40.8346 33.9219 39.9982 34.4795C38.9759 35.223 37.8606 35.7807 36.6524 36.2453C35.4443 36.71 34.2361 36.9888 33.0279 37.0818C31.7268 37.1747 30.5186 37.1747 29.2175 36.9888C28.0093 36.803 26.8011 36.4312 25.6859 35.8736C24.5707 35.4089 23.5484 34.7584 22.619 34.1078C21.8755 33.5502 21.132 32.8996 20.4814 32.2491C21.2249 33.2714 22.1543 34.2937 22.9907 35.1301C23.9201 36.0595 24.8495 36.8959 25.8718 37.7323C26.8941 38.5688 27.9164 39.3123 29.0316 39.9628C30.1469 40.6134 31.2621 41.2639 32.3774 41.8216C33.5855 42.3792 34.7008 42.8439 36.0019 43.2156C36.6524 43.4015 37.2101 43.5874 37.8606 43.7732C38.0465 43.7732 38.1394 43.8662 38.3253 43.8662C38.4182 43.8662 38.5112 43.8662 38.5112 43.9591H38.6041H38.6971C38.9759 43.8662 39.3476 43.7732 39.6264 43.6803C40.8346 43.3085 42.0428 42.9368 43.251 42.4721C44.3662 42.0074 45.4814 41.4498 46.5967 40.8922C47.619 40.3346 48.7342 39.684 49.6636 38.9405C50.6859 38.197 51.6153 37.4535 52.5446 36.71C53.3811 35.9665 54.2175 35.1301 54.961 34.2937C55.7045 33.5502 56.355 32.7137 56.9127 31.8773C57.5632 31.0409 58.1208 30.1115 58.6785 29.2751C59.2361 28.3457 59.7008 27.4164 60.1655 26.487C60.2584 26.3011 60.3513 26.1152 60.4443 25.9294H47.0614V25.8364Z" fill="#227CBF"/>
<path opacity="0.12" d="M23.0837 35.13C24.013 36.0594 24.9424 36.8958 25.9647 37.7322C26.987 38.5686 28.0093 39.3121 29.1246 39.9627C30.2398 40.6133 31.355 41.2638 32.4703 41.8214C33.6785 42.3791 34.7937 42.8437 36.0948 43.2155C36.7454 43.4014 37.303 43.5872 37.9536 43.7731C38.1394 43.7731 38.2324 43.866 38.4182 43.866C38.5112 43.866 38.6041 43.866 38.6041 43.959H38.6971H38.79C39.0688 43.866 39.4406 43.7731 39.7194 43.6802C40.9275 43.3084 42.1357 42.9367 43.3439 42.472C44.4591 42.0073 45.5744 41.4497 46.6896 40.8921C47.7119 40.3344 48.8272 39.6839 49.7565 38.9404C50.7788 38.1969 51.7082 37.4534 52.6376 36.7099C53.1952 36.1523 53.8458 35.5947 54.4034 35.037C50.7788 33.8289 46.8755 32.8066 42.7863 32.156C42.6004 32.3419 42.5075 32.4348 42.3216 32.6207C41.5781 33.2712 40.8346 33.9218 39.9982 34.4794C38.9759 35.2229 37.8606 35.7805 36.6524 36.2452C35.4443 36.7099 34.2361 36.9887 33.0279 37.0817C31.7268 37.1746 30.5186 37.1746 29.2175 36.9887C28.0093 36.8028 26.8011 36.4311 25.6859 35.8735C24.5707 35.4088 23.5484 34.7582 22.619 34.1077C21.8755 33.5501 21.132 32.8995 20.4814 32.2489C21.4108 33.1783 22.2472 34.2006 23.0837 35.13Z" fill="white"/>
<path d="M69.2732 28.2528C68.7156 28.0669 68.4368 27.6952 68.4368 27.3234C68.4368 26.7658 68.9015 26.394 69.645 26.394C69.9238 26.394 70.2026 26.487 70.4814 26.487L70.7602 26.5799C70.7602 26.5799 70.7602 26.5799 70.7602 26.6729L70.6673 26.8587C70.6673 26.8587 70.6673 26.8587 70.5744 26.8587L70.2956 26.7658C70.0167 26.6729 69.8309 26.6729 69.5521 26.6729C69.0874 26.6729 68.7156 26.9517 68.7156 27.3234C68.7156 27.6022 68.8086 27.7881 69.2732 27.974L70.0167 28.2528C70.4814 28.4387 70.8532 28.7175 70.8532 29.1821C70.8532 29.8327 70.2955 30.2045 69.5521 30.2045C69.1803 30.2045 68.8086 30.1115 68.5297 30.0186L68.3439 29.9256C68.3439 29.9256 68.3439 29.9256 68.3439 29.8327L68.4368 29.6468C68.4368 29.6468 68.4368 29.6468 68.5297 29.6468L68.7156 29.7398C68.9944 29.8327 69.2732 29.9256 69.645 29.9256C70.1097 29.9256 70.5744 29.6468 70.5744 29.2751C70.5744 28.9963 70.2955 28.8104 70.0167 28.6245L69.2732 28.2528Z" fill="#227CBF"/>
<path d="M73.5483 30.1117C73.3624 30.2046 73.1765 30.2046 72.9906 30.2046C72.2472 30.2046 71.7825 29.647 71.7825 28.8106C71.7825 27.9741 72.2472 27.4165 72.9906 27.4165C73.6412 27.4165 74.013 27.6953 74.013 28.2529C74.013 28.6247 73.7341 28.8106 73.2695 28.9035L72.2472 29.0894C72.3401 29.5541 72.6189 29.8329 73.0836 29.8329C73.2695 29.8329 73.4553 29.8329 73.5483 29.7399L73.7341 29.647H73.8271L73.92 29.8329V29.9258L73.5483 30.1117ZM73.1765 28.7176C73.4553 28.6247 73.6412 28.5317 73.6412 28.3459C73.6412 28.0671 73.3624 27.8812 72.9906 27.8812C72.526 27.8812 72.1542 28.2529 72.1542 28.9035L73.1765 28.7176Z" fill="#227CBF"/>
<path d="M76.5223 30.1117C76.3364 30.2046 76.1505 30.2046 75.9647 30.2046C75.1282 30.2046 74.7565 29.647 74.7565 28.8106C74.7565 27.9741 75.2212 27.4165 75.9647 27.4165C76.1505 27.4165 76.2435 27.4165 76.4293 27.5094L76.6152 27.6024C76.6152 27.6024 76.6152 27.6024 76.6152 27.6953L76.5223 27.8812C76.5223 27.8812 76.5223 27.8812 76.4293 27.8812H76.2435C76.0576 27.7883 75.9647 27.7883 75.8717 27.7883C75.3141 27.7883 74.9423 28.16 74.9423 28.8106C74.9423 29.4611 75.2212 29.8329 75.7788 29.8329C75.8717 29.8329 76.0576 29.8329 76.2435 29.7399H76.4293H76.5223L76.6152 29.9258V30.0187L76.5223 30.1117Z" fill="#227CBF"/>
<path d="M79.5892 29.7399C79.3104 30.0187 79.0316 30.2046 78.6598 30.2046C78.1022 30.2046 77.7305 29.8329 77.7305 29.1823V27.6024C77.7305 27.6024 77.7305 27.5094 77.8234 27.5094H78.1022C78.1022 27.5094 78.1952 27.5094 78.1952 27.6024V29.0894C78.1952 29.5541 78.474 29.8329 78.8457 29.8329C79.4033 29.8329 79.6821 29.4611 79.6821 28.7176V27.5094C79.6821 27.5094 79.6821 27.4165 79.7751 27.4165H80.0539C80.0539 27.4165 80.1468 27.4165 80.1468 27.5094V30.0187C80.1468 30.0187 80.1468 30.1117 80.0539 30.1117H79.868C79.868 30.1117 79.7751 30.1117 79.7751 30.0187L79.5892 29.7399Z" fill="#227CBF"/>
<path d="M82.2844 27.7883C81.6339 27.8812 81.3551 28.3459 81.3551 29.2752V30.1117C81.3551 30.1117 81.3551 30.2046 81.2621 30.2046H80.9833C80.9833 30.2046 80.8904 30.2046 80.8904 30.1117V27.6024C80.8904 27.6024 80.8904 27.5094 80.9833 27.5094H81.1692C81.1692 27.5094 81.2621 27.5094 81.2621 27.6024V27.9741C81.2621 27.9741 81.2621 28.0671 81.3551 27.9741C81.5409 27.6953 81.8197 27.5094 82.2844 27.4165C82.2844 27.4165 82.3774 27.4165 82.3774 27.5094V27.7883H82.2844Z" fill="#227CBF"/>
<path d="M83.8643 30.1116L83.5855 30.2045C83.5855 30.2045 83.4926 30.2045 83.4926 30.1116V27.8811H83.2138C83.2138 27.8811 83.1208 27.8811 83.1208 27.7882V27.6023C83.1208 27.6023 83.1208 27.5094 83.2138 27.5094H83.7714C83.7714 27.5094 83.8643 27.5094 83.8643 27.6023V30.1116ZM83.8643 26.4871C83.8643 26.6729 83.7714 26.7659 83.5855 26.7659C83.3997 26.7659 83.3067 26.6729 83.3067 26.4871C83.3067 26.3012 83.3997 26.2083 83.5855 26.2083C83.7714 26.2083 83.8643 26.3941 83.8643 26.4871Z" fill="#227CBF"/>
<path d="M85.2583 27.974C85.5371 27.6952 85.8159 27.5093 86.1877 27.5093C86.7453 27.5093 87.117 27.881 87.117 28.5316V30.1115C87.117 30.1115 87.117 30.2044 87.0241 30.2044H86.7453C86.7453 30.2044 86.6524 30.2044 86.6524 30.1115V28.6245C86.6524 28.1598 86.3735 27.881 86.0018 27.881C85.4442 27.881 85.1654 28.2528 85.1654 28.9963V30.2044C85.1654 30.2044 85.1654 30.2974 85.0724 30.2974H84.7936C84.7936 30.2974 84.7007 30.2974 84.7007 30.2044V27.6952C84.7007 27.6952 84.7007 27.6022 84.7936 27.6022H84.9795C84.9795 27.6022 85.0724 27.6022 85.0724 27.6952L85.2583 27.974Z" fill="#227CBF"/>
<path d="M88.604 30.9479C88.6969 30.9479 88.9758 31.0409 89.1616 31.0409C89.7192 31.0409 89.9981 30.7621 90.091 30.2974C90.091 29.8327 90.091 30.0186 90.091 29.8327C90.091 29.8327 90.091 29.7398 89.9981 29.8327C89.8122 30.1115 89.5334 30.2974 89.1616 30.2974C88.5111 30.2974 88.0464 29.7398 88.0464 28.9033C88.0464 28.0669 88.5111 27.5093 89.2546 27.5093C89.5334 27.5093 89.7192 27.6022 89.9051 27.6952L90.2769 27.881C90.2769 27.881 90.2769 27.881 90.2769 27.974V30.2974C90.2769 31.0409 89.9051 31.4126 89.0687 31.4126C88.8828 31.4126 88.604 31.4126 88.4181 31.3197L88.1393 31.2267C88.1393 31.2267 88.1393 31.2268 88.1393 31.1338L88.2323 30.9479C88.2323 30.9479 88.2323 30.9479 88.3252 30.9479H88.604ZM89.8122 27.974C89.7193 27.881 89.4404 27.881 89.2546 27.881C88.6969 27.881 88.4181 28.2528 88.4181 28.9033C88.4181 29.5539 88.6969 29.9256 89.1616 29.9256C89.7192 29.9256 89.9981 29.461 89.9981 28.8104V28.0669L89.8122 27.974Z" fill="#227CBF"/>
<path d="M93.3439 30.1115L93.0651 30.2045C93.0651 30.2045 92.9722 30.2045 92.9722 30.1115V26.487C92.9722 26.487 92.9722 26.394 93.0651 26.394H93.3439C93.3439 26.394 93.4369 26.394 93.4369 26.487V30.1115H93.3439Z" fill="#227CBF"/>
<path d="M94.7379 27.974C94.8309 27.974 94.8309 27.974 94.7379 27.974C95.0167 27.6952 95.2955 27.5093 95.6673 27.5093C96.2249 27.5093 96.5967 27.881 96.5967 28.5316V30.1115C96.5967 30.1115 96.5967 30.2044 96.5037 30.2044H96.2249C96.2249 30.2044 96.132 30.2044 96.132 30.1115V28.6245C96.132 28.1598 95.8532 27.881 95.4814 27.881C94.9238 27.881 94.645 28.2528 94.645 28.9963V30.2044C94.645 30.2044 94.645 30.2974 94.552 30.2974H94.2732C94.2732 30.2974 94.1803 30.2974 94.1803 30.2044V27.6952C94.1803 27.6952 94.1803 27.6022 94.2732 27.6022H94.4591C94.4591 27.6022 94.552 27.6022 94.552 27.6952L94.7379 27.974Z" fill="#227CBF"/>
<path d="M97.8977 27.0447C97.8977 26.58 98.1765 26.2083 98.6412 26.2083C98.7341 26.2083 98.8271 26.2083 98.92 26.3012H99.0129C99.0129 26.3012 99.0129 26.3012 99.0129 26.3941L98.92 26.58C98.92 26.58 98.92 26.58 98.8271 26.58H98.7341C98.6412 26.58 98.6412 26.58 98.5483 26.58C98.2695 26.58 98.1765 26.7659 98.1765 27.0447V27.5094H98.7341C98.7341 27.5094 98.8271 27.5094 98.8271 27.6023V27.7882C98.8271 27.7882 98.8271 27.8811 98.7341 27.8811H98.1765V30.1116C98.1765 30.1116 98.1765 30.2045 98.0836 30.2045H97.8048C97.8048 30.2045 97.7118 30.2045 97.7118 30.1116V27.8811H97.433C97.433 27.8811 97.3401 27.8811 97.3401 27.7882V27.6023C97.3401 27.6023 97.3401 27.5094 97.433 27.5094H97.7118V27.0447H97.8977Z" fill="#227CBF"/>
<path d="M101.151 27.7883C100.5 27.8812 100.221 28.3459 100.221 29.2752V30.1117C100.221 30.1117 100.221 30.2046 100.128 30.2046H99.8495C99.8495 30.2046 99.7566 30.2046 99.7566 30.1117V27.6024C99.7566 27.6024 99.7566 27.5094 99.8495 27.5094H100.035C100.035 27.5094 100.128 27.5094 100.128 27.6024V27.9741C100.128 27.9741 100.128 28.0671 100.221 27.9741C100.407 27.6953 100.686 27.5094 101.151 27.4165C101.151 27.4165 101.244 27.4165 101.244 27.5094V27.7883H101.151Z" fill="#227CBF"/>
<path d="M102.266 27.6022C102.452 27.5093 102.638 27.5093 102.823 27.5093C103.474 27.5093 103.939 27.881 103.939 28.5316V30.1115C103.939 30.1115 103.939 30.2044 103.846 30.2044H103.66C103.66 30.2044 103.567 30.2044 103.567 30.1115V29.8327C103.567 29.7398 103.474 29.7398 103.474 29.8327C103.288 30.1115 103.009 30.2044 102.638 30.2044C102.08 30.2044 101.801 29.9256 101.801 29.4609C101.801 28.9963 102.173 28.6245 102.731 28.6245H103.567V28.5316C103.567 28.0669 103.288 27.7881 102.823 27.7881C102.638 27.7881 102.452 27.7881 102.359 27.881L102.173 27.974H102.08L101.987 27.7881V27.6952L102.266 27.6022ZM102.731 28.9033C102.359 28.9033 102.173 29.0892 102.173 29.368C102.173 29.6468 102.359 29.8327 102.731 29.8327C103.288 29.8327 103.567 29.5539 103.567 28.9033H102.731Z" fill="#227CBF"/>
<path d="M105.519 28.9033C105.147 28.8104 104.961 28.6245 104.961 28.2528C104.961 27.7881 105.333 27.5093 105.89 27.5093C106.169 27.5093 106.355 27.5093 106.541 27.6022L106.727 27.6952C106.727 27.6952 106.727 27.6952 106.727 27.7881L106.634 27.974C106.634 27.974 106.634 27.974 106.541 27.974L106.355 27.881C106.169 27.881 105.983 27.7881 105.797 27.7881C105.426 27.7881 105.24 27.974 105.24 28.1598C105.24 28.3457 105.333 28.4386 105.612 28.5316L106.262 28.7175C106.727 28.8104 106.913 29.0892 106.913 29.368C106.913 29.8327 106.541 30.1115 105.89 30.1115C105.612 30.1115 105.333 30.1115 105.054 30.0186L104.868 29.9256C104.868 29.9256 104.868 29.9256 104.868 29.8327L104.961 29.6468C104.961 29.6468 104.961 29.6468 105.054 29.6468L105.24 29.7398C105.426 29.8327 105.704 29.8327 105.983 29.8327C106.355 29.8327 106.634 29.6468 106.634 29.368C106.634 29.1821 106.541 29.0892 106.262 28.9963L105.519 28.9033Z" fill="#227CBF"/>
<path d="M108.864 27.6024C108.957 27.6024 108.957 27.6024 108.864 27.6024L108.957 27.8812C108.957 27.8812 108.957 27.9741 108.864 27.9741H108.307V29.647C108.307 29.9258 108.4 30.0187 108.585 30.0187C108.585 30.0187 108.678 30.0187 108.771 30.0187H108.864L108.957 30.2046V30.2975C108.864 30.2975 108.771 30.3905 108.678 30.3905C108.307 30.3905 108.028 30.1117 108.028 29.7399V28.0671H107.749C107.749 28.0671 107.656 28.0671 107.656 27.9741V27.7883C107.656 27.7883 107.656 27.6953 107.749 27.6953H108.028V27.0448V26.9518L108.307 26.8589H108.4V27.6024H108.864Z" fill="#227CBF"/>
<path d="M111.188 27.7883C110.537 27.8812 110.258 28.3459 110.258 29.2752V30.1117C110.258 30.1117 110.258 30.2046 110.165 30.2046H109.887C109.887 30.2046 109.794 30.2046 109.794 30.1117V27.6024C109.794 27.6024 109.794 27.5094 109.887 27.5094H110.073C110.073 27.5094 110.165 27.5094 110.165 27.6024V27.9741C110.165 27.9741 110.165 28.0671 110.258 27.9741C110.444 27.6953 110.723 27.5094 111.188 27.4165C111.188 27.4165 111.281 27.4165 111.281 27.5094V27.7883H111.188Z" fill="#227CBF"/>
<path d="M114.069 29.7399C113.79 30.0187 113.511 30.2046 113.139 30.2046C112.582 30.2046 112.21 29.8329 112.21 29.1823V27.6024C112.21 27.6024 112.21 27.5094 112.303 27.5094H112.582C112.582 27.5094 112.675 27.5094 112.675 27.6024V29.0894C112.675 29.5541 112.953 29.8329 113.325 29.8329C113.883 29.8329 114.162 29.4611 114.162 28.7176V27.5094C114.162 27.5094 114.162 27.4165 114.255 27.4165H114.533C114.533 27.4165 114.626 27.4165 114.626 27.5094V30.0187C114.626 30.0187 114.626 30.1117 114.533 30.1117H114.348C114.348 30.1117 114.255 30.1117 114.255 30.0187L114.069 29.7399Z" fill="#227CBF"/>
<path d="M117.043 30.1117C116.857 30.2046 116.671 30.2046 116.485 30.2046C115.649 30.2046 115.277 29.647 115.277 28.8106C115.277 27.9741 115.742 27.4165 116.485 27.4165C116.671 27.4165 116.764 27.4165 116.95 27.5094L117.136 27.6024C117.136 27.6024 117.136 27.6024 117.136 27.6953L117.043 27.8812C117.043 27.8812 117.043 27.8812 116.95 27.8812H116.764C116.578 27.7883 116.485 27.7883 116.392 27.7883C115.835 27.7883 115.463 28.16 115.463 28.8106C115.463 29.4611 115.742 29.8329 116.299 29.8329C116.392 29.8329 116.578 29.8329 116.764 29.7399H116.95H117.043L117.136 29.9258V30.0187L117.043 30.1117Z" fill="#227CBF"/>
<path d="M119.366 27.6024L119.459 27.8812C119.459 27.8812 119.459 27.9741 119.366 27.9741H118.809V29.647C118.809 29.9258 118.901 30.0187 119.087 30.0187C119.087 30.0187 119.18 30.0187 119.273 30.0187H119.366L119.459 30.2046V30.2975C119.366 30.2975 119.273 30.3905 119.18 30.3905C118.809 30.3905 118.53 30.1117 118.53 29.7399V28.0671H118.251C118.251 28.0671 118.158 28.0671 118.158 27.9741V27.7883C118.158 27.7883 118.158 27.6953 118.251 27.6953H118.53V27.0448V26.9518L118.809 26.8589H118.901V27.6024H119.366Z" fill="#227CBF"/>
<path d="M122.247 29.7399C121.968 30.0187 121.69 30.2046 121.318 30.2046C120.76 30.2046 120.388 29.8329 120.388 29.1823V27.6024C120.388 27.6024 120.388 27.5094 120.481 27.5094H120.76C120.76 27.5094 120.853 27.5094 120.853 27.6024V29.0894C120.853 29.5541 121.132 29.8329 121.504 29.8329C122.061 29.8329 122.34 29.4611 122.34 28.7176V27.5094C122.34 27.5094 122.34 27.4165 122.433 27.4165H122.712C122.712 27.4165 122.805 27.4165 122.805 27.5094V30.0187C122.805 30.0187 122.805 30.1117 122.712 30.1117H122.526C122.526 30.1117 122.433 30.1117 122.433 30.0187L122.247 29.7399Z" fill="#227CBF"/>
<path d="M124.942 27.7883C124.292 27.8812 124.013 28.3459 124.013 29.2752V30.1117C124.013 30.1117 124.013 30.2046 123.92 30.2046H123.641C123.641 30.2046 123.548 30.2046 123.548 30.1117V27.6024C123.548 27.6024 123.548 27.5094 123.641 27.5094H123.827C123.827 27.5094 123.92 27.5094 123.92 27.6024V27.9741C123.92 27.9741 123.92 28.0671 124.013 27.9741C124.199 27.6953 124.478 27.5094 124.942 27.4165C124.942 27.4165 125.035 27.4165 125.035 27.5094V27.7883H124.942Z" fill="#227CBF"/>
<path d="M127.452 30.1117C127.266 30.2046 127.08 30.2046 126.894 30.2046C126.15 30.2046 125.686 29.647 125.686 28.8106C125.686 27.9741 126.15 27.4165 126.894 27.4165C127.545 27.4165 127.916 27.6953 127.916 28.2529C127.916 28.6247 127.637 28.8106 127.173 28.9035L126.15 29.0894C126.243 29.5541 126.522 29.8329 126.987 29.8329C127.173 29.8329 127.359 29.8329 127.452 29.7399L127.637 29.647H127.73L127.823 29.8329V29.9258L127.452 30.1117ZM127.08 28.7176C127.359 28.6247 127.545 28.5317 127.545 28.3459C127.545 28.0671 127.266 27.8812 126.894 27.8812C126.429 27.8812 126.058 28.2529 126.058 28.9035L127.08 28.7176Z" fill="#227CBF"/>
<path d="M132.377 28.1598L132.47 28.4387C132.47 28.4387 132.47 28.5316 132.377 28.5316H130.704V30.1115C130.704 30.1115 130.704 30.2045 130.611 30.2045H130.426C130.426 30.2045 130.333 30.2045 130.333 30.1115V26.487C130.333 26.487 130.333 26.394 130.426 26.394H132.749C132.749 26.394 132.842 26.394 132.749 26.487L132.656 26.6729C132.656 26.6729 132.656 26.6729 132.563 26.6729H130.611V28.1598H132.377Z" fill="#227CBF"/>
<path d="M134.236 30.1116L133.957 30.2045C133.957 30.2045 133.864 30.2045 133.864 30.1116V27.8811H133.585C133.585 27.8811 133.493 27.8811 133.493 27.7882V27.6023C133.493 27.6023 133.493 27.5094 133.585 27.5094H134.143C134.143 27.5094 134.236 27.5094 134.236 27.6023V30.1116ZM134.236 26.4871C134.236 26.6729 134.143 26.7659 133.957 26.7659C133.771 26.7659 133.678 26.6729 133.678 26.4871C133.678 26.3012 133.771 26.2083 133.957 26.2083C134.143 26.2083 134.236 26.3941 134.236 26.4871Z" fill="#227CBF"/>
<path d="M135.63 27.974C135.909 27.6952 136.188 27.5093 136.56 27.5093C137.117 27.5093 137.489 27.881 137.489 28.5316V30.1115C137.489 30.1115 137.489 30.2044 137.396 30.2044H137.117C137.117 30.2044 137.024 30.2044 137.024 30.1115V28.6245C137.024 28.1598 136.745 27.881 136.374 27.881C135.816 27.881 135.537 28.2528 135.537 28.9963V30.2044C135.537 30.2044 135.537 30.2974 135.444 30.2974H135.165C135.165 30.2974 135.073 30.2974 135.073 30.2044V27.6952C135.073 27.6952 135.073 27.6022 135.165 27.6022H135.351C135.351 27.6022 135.444 27.6022 135.444 27.6952L135.63 27.974Z" fill="#227CBF"/>
<path d="M138.883 27.6022C139.069 27.5093 139.255 27.5093 139.441 27.5093C140.091 27.5093 140.556 27.881 140.556 28.5316V30.1115C140.556 30.1115 140.556 30.2044 140.463 30.2044H140.277C140.277 30.2044 140.184 30.2044 140.184 30.1115V29.8327C140.184 29.7398 140.091 29.7398 140.091 29.8327C139.905 30.1115 139.626 30.2044 139.255 30.2044C138.697 30.2044 138.418 29.9256 138.418 29.4609C138.418 28.9963 138.79 28.6245 139.348 28.6245H140.184V28.5316C140.184 28.0669 139.905 27.7881 139.441 27.7881C139.255 27.7881 139.069 27.7881 138.976 27.881L138.79 27.974H138.697L138.604 27.7881V27.6952L138.883 27.6022ZM139.348 28.9033C138.976 28.9033 138.79 29.0892 138.79 29.368C138.79 29.6468 138.976 29.8327 139.348 29.8327C139.905 29.8327 140.184 29.5539 140.184 28.9033H139.348Z" fill="#227CBF"/>
<path d="M141.857 27.974C141.95 27.974 141.95 27.974 141.857 27.974C142.136 27.6952 142.414 27.5093 142.786 27.5093C143.344 27.5093 143.716 27.881 143.716 28.5316V30.1115C143.716 30.1115 143.716 30.2044 143.623 30.2044H143.344C143.344 30.2044 143.251 30.2044 143.251 30.1115V28.6245C143.251 28.1598 142.972 27.881 142.6 27.881C142.043 27.881 141.764 28.2528 141.764 28.9963V30.2044C141.764 30.2044 141.764 30.2974 141.671 30.2974H141.392C141.392 30.2974 141.299 30.2974 141.299 30.2044V27.6952C141.299 27.6952 141.299 27.6022 141.392 27.6022H141.578C141.578 27.6022 141.671 27.6022 141.671 27.6952L141.857 27.974Z" fill="#227CBF"/>
<path d="M146.504 30.1117C146.318 30.2046 146.132 30.2046 145.946 30.2046C145.11 30.2046 144.738 29.647 144.738 28.8106C144.738 27.9741 145.203 27.4165 145.946 27.4165C146.132 27.4165 146.225 27.4165 146.411 27.5094L146.597 27.6024C146.597 27.6024 146.597 27.6024 146.597 27.6953L146.504 27.8812C146.504 27.8812 146.504 27.8812 146.411 27.8812H146.225C146.039 27.7883 145.946 27.7883 145.853 27.7883C145.296 27.7883 144.924 28.16 144.924 28.8106C144.924 29.4611 145.203 29.8329 145.76 29.8329C145.853 29.8329 146.039 29.8329 146.225 29.7399H146.411H146.504L146.597 29.9258V30.0187L146.504 30.1117Z" fill="#227CBF"/>
<path d="M149.292 30.1117C149.106 30.2046 148.92 30.2046 148.734 30.2046C147.991 30.2046 147.526 29.647 147.526 28.8106C147.526 27.9741 147.991 27.4165 148.734 27.4165C149.385 27.4165 149.756 27.6953 149.756 28.2529C149.756 28.6247 149.478 28.8106 149.013 28.9035L147.991 29.0894C148.084 29.5541 148.362 29.8329 148.827 29.8329C149.013 29.8329 149.199 29.8329 149.292 29.7399L149.478 29.647H149.571L149.664 29.8329V29.9258L149.292 30.1117ZM148.827 28.7176C149.106 28.6247 149.292 28.5317 149.292 28.3459C149.292 28.0671 149.013 27.8812 148.641 27.8812C148.177 27.8812 147.805 28.2529 147.805 28.9035L148.827 28.7176Z" fill="#227CBF"/>
</svg>
