<svg width="151" height="46" viewBox="0 0 151 46" fill="none" xmlns="http://www.w3.org/2000/svg">
<path d="M0.685913 0.464844H4.49632V21.1898H0.685913V0.464844Z" fill="#227CBF"/>
<path d="M9.14313 5.66895H12.5818V7.063C13.0465 6.41244 13.697 5.94776 14.4405 5.57601C15.184 5.20426 16.0204 5.11133 16.8569 5.11133C17.6933 5.11133 18.4368 5.2972 19.2732 5.57601C20.0167 5.94776 20.7602 6.41244 21.3178 6.97006L21.6896 7.43475C22.2472 8.17824 22.619 9.01467 22.7119 9.8511C22.8978 10.6875 22.8978 11.8028 22.8978 13.011V21.0035H19.1803V13.6615C19.1803 12.7321 19.1803 11.8957 19.0874 11.431C18.9944 10.8734 18.8086 10.4087 18.5297 9.94404C18.2509 9.47936 17.8792 9.20055 17.4145 8.92174C16.9498 8.73586 16.4851 8.54999 16.0204 8.54999C15.4628 8.54999 14.9981 8.64293 14.5335 8.92174C14.0688 9.20055 13.697 9.47936 13.5112 9.8511C13.3253 10.2229 13.1394 10.6875 13.0465 11.1522C12.9535 11.7098 12.8606 12.4533 12.8606 13.3827V13.8474V20.9106H9.14313V5.66895Z" fill="#227CBF"/>
<path d="M26.987 9.01487H25.6859V5.66914H26.987C26.987 4.08922 27.4517 2.7881 28.3811 1.67286C29.3104 0.557621 30.5186 0 32.0986 0H33.1209V3.71747C32.1915 3.71747 31.6339 3.81041 31.2621 3.99628C30.8904 4.18216 30.7974 4.73978 30.7974 5.57621H32.935V8.92193H30.7974V21.0967H27.08V9.01487H26.987Z" fill="#227CBF"/>
<path d="M35.723 5.66895H39.1617V7.063C39.6264 6.41244 40.0911 5.94776 40.6487 5.57601C41.2063 5.2972 41.8569 5.11133 42.6003 5.11133H42.8792V8.73586C42.0427 8.73586 41.2992 8.92174 40.7416 9.38642C40.184 9.8511 39.8122 10.3158 39.7193 10.7805C39.6264 11.2452 39.5334 11.9887 39.5334 12.7321V21.0965H35.816V5.66895H35.723Z" fill="#227CBF"/>
<path d="M61.3736 21.1897H57.9349V19.0522C57.3773 19.8886 56.5409 20.4462 55.6115 20.9109C54.5892 21.3756 53.6598 21.5615 52.6375 21.5615C51.4293 21.5615 50.407 21.3756 49.3847 20.9109C48.4554 20.4462 47.4331 19.6098 46.4108 18.4946C45.3884 17.2864 44.9238 15.6135 44.9238 13.383C44.9238 12.2678 45.1096 11.2455 45.3885 10.4091C45.6673 9.47968 46.4108 8.45738 47.526 7.15626C48.6412 5.85515 50.407 5.20459 52.6375 5.20459C54.868 5.20459 56.5409 6.13396 57.842 7.89976V5.66927H61.2806V21.1897H61.3736ZM53.381 8.82912C51.987 8.82912 50.8717 9.29381 50.0353 10.1302C49.1989 11.0596 48.7342 12.1748 48.7342 13.5689C48.7342 14.87 49.1989 15.8923 50.0353 16.7288C50.9647 17.5652 51.987 18.0299 53.2881 18.0299C54.5892 18.0299 55.7044 17.5652 56.5409 16.7288C57.3773 15.8923 57.842 14.7771 57.842 13.383C57.842 12.0819 57.4702 10.9667 56.6338 10.1302C55.7974 9.29381 54.6821 8.82912 53.381 8.82912Z" fill="#227CBF"/>
<path d="M84.7937 15.5203C84.0502 17.379 82.749 18.866 80.9832 19.9812C79.2174 21.0965 77.2658 21.6541 75.2212 21.6541C72.2472 21.6541 69.7379 20.5389 67.6003 18.4013C65.4628 16.2638 64.4405 13.7545 64.4405 10.7805C64.4405 7.80653 65.4628 5.29723 67.6003 3.25262C69.7379 1.11508 72.1542 0.0927734 75.1282 0.0927734C77.2658 0.0927734 79.2174 0.650394 81.0762 1.76564C82.9349 2.88088 84.236 4.4608 84.9795 6.41248H80.6115C79.9609 5.57604 79.1245 5.01842 78.1951 4.55374C77.2658 4.08906 76.2435 3.90318 75.2212 3.90318C73.3624 3.90318 71.6896 4.64668 70.3884 6.04073C69.0873 7.43478 68.4368 9.10764 68.4368 11.0593C68.4368 12.9181 69.0873 14.498 70.4814 15.985C71.8754 17.379 73.4554 18.1225 75.3141 18.1225C76.3364 18.1225 77.2658 17.9366 78.1022 17.472C78.9386 17.1002 79.7751 16.4496 80.5186 15.7062H84.7937V15.5203Z" fill="#47B65C"/>
<path d="M87.9536 5.66895H91.3922V7.063C91.8569 6.41244 92.3216 5.94776 92.8792 5.57601C93.4368 5.2972 94.0874 5.11133 94.8309 5.11133H95.1097V8.73586C94.2733 8.73586 93.5298 8.92174 92.9721 9.38642C92.4145 9.8511 92.0428 10.3158 91.9498 10.7805C91.8569 11.2452 91.764 11.9887 91.764 12.7321V21.0965H88.0465V5.66895H87.9536Z" fill="#47B65C"/>
<path d="M101.151 15.1487C101.429 16.078 101.987 16.7286 102.731 17.2862C103.474 17.8438 104.31 18.1226 105.24 18.1226C106.727 18.1226 107.935 17.658 108.678 16.8215H112.768C112.303 18.2156 111.281 19.3308 109.887 20.3531C108.493 21.2825 106.913 21.8401 105.333 21.8401C103.102 21.8401 101.151 21.0037 99.5707 19.4238C97.9907 17.8438 97.1543 15.8922 97.1543 13.6617C97.1543 11.3383 97.9907 9.38658 99.5707 7.71372C101.151 6.04086 103.102 5.29736 105.426 5.29736C107.656 5.29736 109.515 6.13379 111.095 7.71372C112.675 9.29365 113.418 11.2453 113.418 13.4758C113.418 13.7546 113.418 14.0334 113.325 14.4052C113.232 14.7769 113.232 15.0557 113.232 15.2416H101.151V15.1487ZM109.701 11.8029C109.422 10.8736 108.864 10.223 108.121 9.66539C107.377 9.10777 106.448 8.82896 105.519 8.82896C104.589 8.82896 103.66 9.10777 102.823 9.66539C101.987 10.223 101.429 10.9665 101.151 11.8029H109.701Z" fill="#47B65C"/>
<path d="M132.47 21.1898H129.032V19.0522C128.474 19.8886 127.731 20.5392 126.801 20.9109C125.872 21.3756 124.849 21.5615 123.827 21.5615C122.712 21.5615 121.69 21.3756 120.76 20.9109C119.831 20.4463 118.994 19.7957 118.344 19.0522C117.693 18.2158 117.136 17.3793 116.764 16.45C116.392 15.5206 116.206 14.4983 116.206 13.476C116.206 11.2455 116.764 9.57265 117.786 8.36447C118.809 7.15629 119.924 6.31986 120.946 5.85518C121.968 5.39049 122.991 5.11168 124.106 5.11168C125.035 5.11168 125.965 5.29756 126.801 5.6693C127.638 6.04105 128.381 6.50574 128.939 7.24923V0.464844H132.656V21.1898H132.47ZM124.385 8.82916C123.177 8.82916 122.154 9.29384 121.225 10.1303C120.296 11.0596 119.831 12.0819 119.831 13.2901C119.831 14.5912 120.296 15.7065 121.132 16.6358C121.968 17.5652 123.084 18.0299 124.385 18.0299C125.686 18.0299 126.801 17.5652 127.638 16.6358C128.567 15.7065 129.032 14.5912 129.032 13.3831C129.032 12.0819 128.567 11.0596 127.638 10.1303C126.801 9.29384 125.686 8.82916 124.385 8.82916Z" fill="#47B65C"/>
<path d="M136.281 0.464844H139.998V3.90351H136.281V0.464844ZM136.281 5.6693H139.998V21.1898H136.281V5.6693Z" fill="#47B65C"/>
<path d="M144.552 9.01503H142.693V5.6693H144.552V0.464844H148.27V5.6693H150.5V9.01503H148.27V21.1898H144.552V9.01503Z" fill="#47B65C"/>
<path d="M30.4256 42.0074C29.2175 41.4498 28.1022 40.7063 26.987 40.0558C25.8717 39.3123 24.8494 38.4758 23.8271 37.6394C22.8048 36.803 21.8755 35.8736 20.9461 34.8513C20.4814 34.3866 20.1097 33.829 19.645 33.3643C19.552 33.2714 19.4591 33.0855 19.3662 32.9926C19.2732 32.8996 19.1803 32.7137 19.0874 32.6208C18.9015 32.4349 18.7156 32.2491 18.6227 32.0632C17.9721 31.3197 17.3216 30.5762 16.7639 29.7398C16.1134 28.8104 15.6487 27.974 15.184 27.0446C14.9981 26.6729 14.8123 26.2082 14.6264 25.8364H0.5C0.685874 26.3011 0.871748 26.6729 1.05762 27.1375C1.61524 28.3457 2.2658 29.461 3.00929 30.6691C3.75279 31.7844 4.49628 32.8996 5.42565 33.829C6.26208 34.8513 7.19145 35.7807 8.21375 36.71C9.14312 37.6394 10.1654 38.4758 11.2807 39.2193C12.303 39.9628 13.4182 40.7063 14.6264 41.3569C15.7416 42.0074 16.9498 42.565 18.158 43.1227C19.3662 43.5874 20.6673 44.052 21.8755 44.4238C23.1766 44.7955 24.4777 45.0743 25.7788 45.2602C26.3364 45.3532 26.8941 45.4461 27.4517 45.4461C27.8234 45.4461 28.2881 45.539 28.6598 45.539C29.0316 45.539 29.4963 45.539 29.868 45.632C30.0539 45.632 30.3327 45.632 30.5186 45.632C30.7045 45.632 30.8903 45.632 30.9833 45.632C31.355 45.632 31.7268 45.632 32.0985 45.632C32.5632 45.632 32.9349 45.632 33.3996 45.539C33.9572 45.539 34.4219 45.4461 34.9795 45.3532C35.9089 45.2602 36.8383 45.0743 37.7677 44.7955C36.4665 44.5167 35.1654 44.145 33.9572 43.6803C32.842 43.1227 31.6338 42.565 30.4256 42.0074Z" fill="#47B65C"/>
<path opacity="0.12" d="M8.21376 36.71C9.14312 37.6394 10.1654 38.4758 11.2807 39.2193C12.303 39.9628 13.4182 40.7063 14.6264 41.3568C15.7416 42.0074 16.9498 42.565 18.158 43.1226C19.3662 43.5873 20.6673 44.052 21.8755 44.4237C23.1766 44.7955 24.4777 45.0743 25.7788 45.2602C26.3364 45.3531 26.8941 45.446 27.4517 45.446C27.8234 45.446 28.2881 45.539 28.6599 45.539C29.0316 45.539 29.4963 45.539 29.868 45.6319C30.0539 45.6319 30.3327 45.6319 30.5186 45.6319C30.7045 45.6319 30.8903 45.6319 30.9833 45.6319C31.355 45.6319 31.7268 45.6319 32.0985 45.6319C32.5632 45.6319 32.9349 45.6319 33.3996 45.539C33.9572 45.539 34.4219 45.4461 34.9796 45.3531C35.9089 45.2602 36.8383 45.0743 37.7677 44.7955C36.4665 44.5167 35.1654 44.1449 33.9572 43.6803C32.7491 43.2156 31.5409 42.7509 30.3327 42.1003C29.1245 41.5427 28.0093 40.7992 26.894 40.1487C25.7788 39.4052 24.7565 38.5687 23.7342 37.7323C22.7119 36.8959 21.7825 35.9665 20.8532 34.9442C20.3885 34.4795 20.0167 33.9219 19.552 33.4572C19.4591 33.3643 19.3662 33.1784 19.2732 33.0855C19.1803 32.9925 19.0874 32.8066 18.9944 32.7137C18.8086 32.5278 18.7156 32.4349 18.5297 32.249C14.2546 32.8996 10.2584 33.9219 6.54089 35.223C7.09851 35.5947 7.65614 36.1524 8.21376 36.71Z" fill="white"/>
<path d="M47.0613 25.8364C46.6896 26.6729 46.3178 27.4164 45.8531 28.1598C45.3884 28.9963 44.8308 29.8327 44.1803 30.5762C43.6226 31.3197 42.9721 31.9703 42.3215 32.6208C41.578 33.2714 40.8345 33.9219 39.9981 34.4795C38.9758 35.223 37.8606 35.7807 36.6524 36.2453C35.4442 36.71 34.236 36.9888 33.0279 37.0818C31.7267 37.1747 30.5186 37.1747 29.2174 36.9888C28.0093 36.803 26.8011 36.4312 25.6858 35.8736C24.5706 35.4089 23.5483 34.7584 22.6189 34.1078C21.8754 33.5502 21.1319 32.8996 20.4814 32.2491C21.2249 33.2714 22.1542 34.2937 22.9907 35.1301C23.92 36.0595 24.8494 36.8959 25.8717 37.7323C26.894 38.5688 27.9163 39.3123 29.0316 39.9628C30.1468 40.6134 31.2621 41.2639 32.3773 41.8216C33.5855 42.3792 34.7007 42.8439 36.0018 43.2156C36.6524 43.4015 37.21 43.5874 37.8606 43.7732C38.0464 43.7732 38.1394 43.8662 38.3252 43.8662C38.4182 43.8662 38.5111 43.8662 38.5111 43.9591H38.6041H38.697C38.9758 43.8662 39.3476 43.7732 39.6264 43.6803C40.8345 43.3085 42.0427 42.9368 43.2509 42.4721C44.3661 42.0074 45.4814 41.4498 46.5966 40.8922C47.6189 40.3346 48.7342 39.684 49.6635 38.9405C50.6858 38.197 51.6152 37.4535 52.5446 36.71C53.381 35.9665 54.2174 35.1301 54.9609 34.2937C55.7044 33.5502 56.355 32.7137 56.9126 31.8773C57.5632 31.0409 58.1208 30.1115 58.6784 29.2751C59.236 28.3457 59.7007 27.4164 60.1654 26.487C60.2583 26.3011 60.3513 26.1152 60.4442 25.9294H47.0613V25.8364Z" fill="#227CBF"/>
<path opacity="0.12" d="M23.0836 35.1302C24.013 36.0596 24.9423 36.896 25.9647 37.7325C26.987 38.5689 28.0093 39.3124 29.1245 39.9629C30.2397 40.6135 31.355 41.2641 32.4702 41.8217C33.6784 42.3793 34.7937 42.844 36.0948 43.2157C36.7453 43.4016 37.3029 43.5875 37.9535 43.7733C38.1394 43.7733 38.2323 43.8663 38.4182 43.8663C38.5111 43.8663 38.6041 43.8663 38.6041 43.9592H38.697H38.7899C39.0687 43.8663 39.4405 43.7734 39.7193 43.6804C40.9275 43.3087 42.1357 42.9369 43.3438 42.4722C44.4591 42.0075 45.5743 41.4499 46.6896 40.8923C47.7119 40.3347 48.8271 39.6841 49.7565 38.9406C50.7788 38.1971 51.7081 37.4536 52.6375 36.7102C53.1951 36.1525 53.8457 35.5949 54.4033 35.0373C50.7788 33.8291 46.8754 32.8068 42.7862 32.1562C42.6003 32.3421 42.5074 32.4351 42.3215 32.6209C41.578 33.2715 40.8345 33.922 39.9981 34.4797C38.9758 35.2232 37.8606 35.7808 36.6524 36.2455C35.4442 36.7102 34.236 36.989 33.0279 37.0819C31.7267 37.1748 30.5186 37.1748 29.2174 36.989C28.0093 36.8031 26.8011 36.4313 25.6858 35.8737C24.5706 35.409 23.5483 34.7585 22.6189 34.1079C21.8754 33.5503 21.1319 32.8997 20.4814 32.2492C21.4108 33.1786 22.2472 34.2009 23.0836 35.1302Z" fill="white"/>
<path d="M69.2732 28.2528C68.7156 28.0669 68.4368 27.6952 68.4368 27.3234C68.4368 26.7658 68.9015 26.394 69.645 26.394C69.9238 26.394 70.2026 26.487 70.4814 26.487L70.7602 26.5799C70.7602 26.5799 70.7602 26.5799 70.7602 26.6729L70.6673 26.8587C70.6673 26.8587 70.6673 26.8587 70.5744 26.8587L70.2956 26.7658C70.0167 26.6729 69.8309 26.6729 69.5521 26.6729C69.0874 26.6729 68.7156 26.9517 68.7156 27.3234C68.7156 27.6022 68.8086 27.7881 69.2732 27.974L70.0167 28.2528C70.4814 28.4387 70.8532 28.7175 70.8532 29.1821C70.8532 29.8327 70.2955 30.2045 69.5521 30.2045C69.1803 30.2045 68.8086 30.1115 68.5297 30.0186L68.3439 29.9256C68.3439 29.9256 68.3439 29.9256 68.3439 29.8327L68.4368 29.6468C68.4368 29.6468 68.4368 29.6468 68.5297 29.6468L68.7156 29.7398C68.9944 29.8327 69.2732 29.9256 69.645 29.9256C70.1097 29.9256 70.5744 29.6468 70.5744 29.2751C70.5744 28.9963 70.2955 28.8104 70.0167 28.6245L69.2732 28.2528Z" fill="#227CBF"/>
<path d="M73.5483 30.1112C73.3624 30.2041 73.1765 30.2041 72.9906 30.2041C72.2472 30.2041 71.7825 29.6465 71.7825 28.8101C71.7825 27.9736 72.2472 27.416 72.9906 27.416C73.6412 27.416 74.013 27.6948 74.013 28.2524C74.013 28.6242 73.7341 28.8101 73.2695 28.903L72.2472 29.0889C72.3401 29.5536 72.6189 29.8324 73.0836 29.8324C73.2695 29.8324 73.4553 29.8324 73.5483 29.7394L73.7341 29.6465H73.8271L73.92 29.8324V29.9253L73.5483 30.1112ZM73.1765 28.7171C73.4553 28.6242 73.6412 28.5313 73.6412 28.3454C73.6412 28.0666 73.3624 27.8807 72.9906 27.8807C72.526 27.8807 72.1542 28.2524 72.1542 28.903L73.1765 28.7171Z" fill="#227CBF"/>
<path d="M76.5223 30.1112C76.3365 30.2041 76.1506 30.2041 75.9647 30.2041C75.1283 30.2041 74.7565 29.6465 74.7565 28.8101C74.7565 27.9736 75.2212 27.416 75.9647 27.416C76.1506 27.416 76.2435 27.416 76.4294 27.509L76.6153 27.6019C76.6153 27.6019 76.6153 27.6019 76.6153 27.6948L76.5223 27.8807C76.5223 27.8807 76.5223 27.8807 76.4294 27.8807H76.2435C76.0576 27.7878 75.9647 27.7878 75.8718 27.7878C75.3142 27.7878 74.9424 28.1595 74.9424 28.8101C74.9424 29.4606 75.2212 29.8324 75.7788 29.8324C75.8718 29.8324 76.0576 29.8324 76.2435 29.7394H76.4294H76.5223L76.6153 29.9253V30.0182L76.5223 30.1112Z" fill="#227CBF"/>
<path d="M79.5892 29.7394C79.3104 30.0182 79.0316 30.2041 78.6598 30.2041C78.1022 30.2041 77.7305 29.8324 77.7305 29.1818V27.6019C77.7305 27.6019 77.7305 27.509 77.8234 27.509H78.1022C78.1022 27.509 78.1952 27.509 78.1952 27.6019V29.0889C78.1952 29.5536 78.474 29.8324 78.8457 29.8324C79.4033 29.8324 79.6821 29.4606 79.6821 28.7171V27.509C79.6821 27.509 79.6821 27.416 79.7751 27.416H80.0539C80.0539 27.416 80.1468 27.416 80.1468 27.509V30.0182C80.1468 30.0182 80.1468 30.1112 80.0539 30.1112H79.868C79.868 30.1112 79.7751 30.1112 79.7751 30.0182L79.5892 29.7394Z" fill="#227CBF"/>
<path d="M82.2844 27.7878C81.6338 27.8807 81.355 28.3454 81.355 29.2748V30.1112C81.355 30.1112 81.355 30.2041 81.2621 30.2041H80.9833C80.9833 30.2041 80.8903 30.2041 80.8903 30.1112V27.6019C80.8903 27.6019 80.8903 27.509 80.9833 27.509H81.1691C81.1691 27.509 81.2621 27.509 81.2621 27.6019V27.9736C81.2621 27.9736 81.2621 28.0666 81.355 27.9736C81.5409 27.6948 81.8197 27.509 82.2844 27.416C82.2844 27.416 82.3773 27.416 82.3773 27.509V27.7878H82.2844Z" fill="#227CBF"/>
<path d="M83.8643 30.1114L83.5855 30.2043C83.5855 30.2043 83.4926 30.2043 83.4926 30.1114V27.8809H83.2138C83.2138 27.8809 83.1208 27.8809 83.1208 27.7879V27.6021C83.1208 27.6021 83.1208 27.5091 83.2138 27.5091H83.7714C83.7714 27.5091 83.8643 27.5091 83.8643 27.6021V30.1114ZM83.8643 26.4868C83.8643 26.6727 83.7714 26.7656 83.5855 26.7656C83.3997 26.7656 83.3067 26.6727 83.3067 26.4868C83.3067 26.3009 83.3997 26.208 83.5855 26.208C83.7714 26.208 83.8643 26.3939 83.8643 26.4868Z" fill="#227CBF"/>
<path d="M85.2584 27.974C85.5372 27.6952 85.816 27.5093 86.1877 27.5093C86.7454 27.5093 87.1171 27.881 87.1171 28.5316V30.1115C87.1171 30.1115 87.1171 30.2044 87.0242 30.2044H86.7454C86.7454 30.2044 86.6524 30.2044 86.6524 30.1115V28.6245C86.6524 28.1598 86.3736 27.881 86.0019 27.881C85.4442 27.881 85.1654 28.2528 85.1654 28.9963V30.2044C85.1654 30.2044 85.1654 30.2974 85.0725 30.2974H84.7937C84.7937 30.2974 84.7007 30.2974 84.7007 30.2044V27.6952C84.7007 27.6952 84.7007 27.6022 84.7937 27.6022H84.9796C84.9796 27.6022 85.0725 27.6022 85.0725 27.6952L85.2584 27.974Z" fill="#227CBF"/>
<path d="M88.604 30.9479C88.6969 30.9479 88.9758 31.0409 89.1616 31.0409C89.7192 31.0409 89.9981 30.7621 90.091 30.2974C90.091 29.8327 90.091 30.0186 90.091 29.8327C90.091 29.8327 90.091 29.7398 89.9981 29.8327C89.8122 30.1115 89.5334 30.2974 89.1616 30.2974C88.5111 30.2974 88.0464 29.7398 88.0464 28.9033C88.0464 28.0669 88.5111 27.5093 89.2546 27.5093C89.5334 27.5093 89.7192 27.6022 89.9051 27.6952L90.2769 27.881C90.2769 27.881 90.2769 27.881 90.2769 27.974V30.2974C90.2769 31.0409 89.9051 31.4126 89.0687 31.4126C88.8828 31.4126 88.604 31.4126 88.4181 31.3197L88.1393 31.2267C88.1393 31.2267 88.1393 31.2268 88.1393 31.1338L88.2323 30.9479C88.2323 30.9479 88.2323 30.9479 88.3252 30.9479H88.604ZM89.8122 27.974C89.7193 27.881 89.4404 27.881 89.2546 27.881C88.6969 27.881 88.4181 28.2528 88.4181 28.9033C88.4181 29.5539 88.6969 29.9256 89.1616 29.9256C89.7192 29.9256 89.9981 29.461 89.9981 28.8104V28.0669L89.8122 27.974Z" fill="#227CBF"/>
<path d="M93.3439 30.1115L93.065 30.2045C93.065 30.2045 92.9721 30.2045 92.9721 30.1115V26.487C92.9721 26.487 92.9721 26.394 93.065 26.394H93.3439C93.3439 26.394 93.4368 26.394 93.4368 26.487V30.1115H93.3439Z" fill="#227CBF"/>
<path d="M94.738 27.974C94.8309 27.974 94.8309 27.974 94.738 27.974C95.0168 27.6952 95.2956 27.5093 95.6673 27.5093C96.225 27.5093 96.5967 27.881 96.5967 28.5316V30.1115C96.5967 30.1115 96.5967 30.2044 96.5038 30.2044H96.225C96.225 30.2044 96.132 30.2044 96.132 30.1115V28.6245C96.132 28.1598 95.8532 27.881 95.4815 27.881C94.9239 27.881 94.645 28.2528 94.645 28.9963V30.2044C94.645 30.2044 94.645 30.2974 94.5521 30.2974H94.2733C94.2733 30.2974 94.1804 30.2974 94.1804 30.2044V27.6952C94.1804 27.6952 94.1804 27.6022 94.2733 27.6022H94.4592C94.4592 27.6022 94.5521 27.6022 94.5521 27.6952L94.738 27.974Z" fill="#227CBF"/>
<path d="M97.8977 27.0444C97.8977 26.5798 98.1765 26.208 98.6412 26.208C98.7341 26.208 98.8271 26.208 98.92 26.3009H99.0129C99.0129 26.3009 99.0129 26.3009 99.0129 26.3939L98.92 26.5798C98.92 26.5798 98.92 26.5798 98.8271 26.5798H98.7341C98.6412 26.5798 98.6412 26.5798 98.5483 26.5798C98.2695 26.5798 98.1765 26.7656 98.1765 27.0444V27.5091H98.7341C98.7341 27.5091 98.8271 27.5091 98.8271 27.6021V27.7879C98.8271 27.7879 98.8271 27.8809 98.7341 27.8809H98.1765V30.1114C98.1765 30.1114 98.1765 30.2043 98.0836 30.2043H97.8048C97.8048 30.2043 97.7118 30.2043 97.7118 30.1114V27.8809H97.433C97.433 27.8809 97.3401 27.8809 97.3401 27.7879V27.6021C97.3401 27.6021 97.3401 27.5091 97.433 27.5091H97.7118V27.0444H97.8977Z" fill="#227CBF"/>
<path d="M101.151 27.7878C100.5 27.8807 100.221 28.3454 100.221 29.2748V30.1112C100.221 30.1112 100.221 30.2041 100.128 30.2041H99.8495C99.8495 30.2041 99.7565 30.2041 99.7565 30.1112V27.6019C99.7565 27.6019 99.7565 27.509 99.8495 27.509H100.035C100.035 27.509 100.128 27.509 100.128 27.6019V27.9736C100.128 27.9736 100.128 28.0666 100.221 27.9736C100.407 27.6948 100.686 27.509 101.151 27.416C101.151 27.416 101.244 27.416 101.244 27.509V27.7878H101.151Z" fill="#227CBF"/>
<path d="M102.266 27.6022C102.452 27.5093 102.638 27.5093 102.823 27.5093C103.474 27.5093 103.939 27.881 103.939 28.5316V30.1115C103.939 30.1115 103.939 30.2044 103.846 30.2044H103.66C103.66 30.2044 103.567 30.2044 103.567 30.1115V29.8327C103.567 29.7398 103.474 29.7398 103.474 29.8327C103.288 30.1115 103.009 30.2044 102.638 30.2044C102.08 30.2044 101.801 29.9256 101.801 29.4609C101.801 28.9963 102.173 28.6245 102.73 28.6245H103.567V28.5316C103.567 28.0669 103.288 27.7881 102.823 27.7881C102.638 27.7881 102.452 27.7881 102.359 27.881L102.173 27.974H102.08L101.987 27.7881V27.6952L102.266 27.6022ZM102.73 28.9033C102.359 28.9033 102.173 29.0892 102.173 29.368C102.173 29.6468 102.359 29.8327 102.73 29.8327C103.288 29.8327 103.567 29.5539 103.567 28.9033H102.73Z" fill="#227CBF"/>
<path d="M105.519 28.9033C105.147 28.8104 104.961 28.6245 104.961 28.2528C104.961 27.7881 105.333 27.5093 105.89 27.5093C106.169 27.5093 106.355 27.5093 106.541 27.6022L106.727 27.6952C106.727 27.6952 106.727 27.6952 106.727 27.7881L106.634 27.974C106.634 27.974 106.634 27.974 106.541 27.974L106.355 27.881C106.169 27.881 105.983 27.7881 105.797 27.7881C105.426 27.7881 105.24 27.974 105.24 28.1598C105.24 28.3457 105.333 28.4386 105.612 28.5316L106.262 28.7175C106.727 28.8104 106.913 29.0892 106.913 29.368C106.913 29.8327 106.541 30.1115 105.89 30.1115C105.612 30.1115 105.333 30.1115 105.054 30.0186L104.868 29.9256C104.868 29.9256 104.868 29.9256 104.868 29.8327L104.961 29.6468C104.961 29.6468 104.961 29.6468 105.054 29.6468L105.24 29.7398C105.426 29.8327 105.704 29.8327 105.983 29.8327C106.355 29.8327 106.634 29.6468 106.634 29.368C106.634 29.1821 106.541 29.0892 106.262 28.9963L105.519 28.9033Z" fill="#227CBF"/>
<path d="M108.864 27.6019C108.957 27.6019 108.957 27.6019 108.864 27.6019L108.957 27.8807C108.957 27.8807 108.957 27.9736 108.864 27.9736H108.307V29.6465C108.307 29.9253 108.4 30.0183 108.586 30.0183C108.586 30.0183 108.678 30.0183 108.771 30.0183H108.864L108.957 30.2041V30.2971C108.864 30.2971 108.771 30.39 108.678 30.39C108.307 30.39 108.028 30.1112 108.028 29.7394V28.0666H107.749C107.749 28.0666 107.656 28.0666 107.656 27.9736V27.7878C107.656 27.7878 107.656 27.6948 107.749 27.6948H108.028V27.0443V26.9513L108.307 26.8584H108.4V27.6019H108.864Z" fill="#227CBF"/>
<path d="M111.188 27.7878C110.537 27.8807 110.258 28.3454 110.258 29.2748V30.1112C110.258 30.1112 110.258 30.2041 110.165 30.2041H109.887C109.887 30.2041 109.794 30.2041 109.794 30.1112V27.6019C109.794 27.6019 109.794 27.509 109.887 27.509H110.072C110.072 27.509 110.165 27.509 110.165 27.6019V27.9736C110.165 27.9736 110.165 28.0666 110.258 27.9736C110.444 27.6948 110.723 27.509 111.188 27.416C111.188 27.416 111.281 27.416 111.281 27.509V27.7878H111.188Z" fill="#227CBF"/>
<path d="M114.069 29.7394C113.79 30.0182 113.511 30.2041 113.139 30.2041C112.582 30.2041 112.21 29.8324 112.21 29.1818V27.6019C112.21 27.6019 112.21 27.509 112.303 27.509H112.582C112.582 27.509 112.675 27.509 112.675 27.6019V29.0889C112.675 29.5536 112.953 29.8324 113.325 29.8324C113.883 29.8324 114.162 29.4606 114.162 28.7171V27.509C114.162 27.509 114.162 27.416 114.255 27.416H114.533C114.533 27.416 114.626 27.416 114.626 27.509V30.0182C114.626 30.0182 114.626 30.1112 114.533 30.1112H114.348C114.348 30.1112 114.255 30.1112 114.255 30.0182L114.069 29.7394Z" fill="#227CBF"/>
<path d="M117.043 30.1112C116.857 30.2041 116.671 30.2041 116.485 30.2041C115.649 30.2041 115.277 29.6465 115.277 28.8101C115.277 27.9736 115.742 27.416 116.485 27.416C116.671 27.416 116.764 27.416 116.95 27.509L117.136 27.6019C117.136 27.6019 117.136 27.6019 117.136 27.6948L117.043 27.8807C117.043 27.8807 117.043 27.8807 116.95 27.8807H116.764C116.578 27.7878 116.485 27.7878 116.392 27.7878C115.835 27.7878 115.463 28.1595 115.463 28.8101C115.463 29.4606 115.742 29.8324 116.299 29.8324C116.392 29.8324 116.578 29.8324 116.764 29.7394H116.95H117.043L117.136 29.9253V30.0182L117.043 30.1112Z" fill="#227CBF"/>
<path d="M119.366 27.6019L119.459 27.8807C119.459 27.8807 119.459 27.9736 119.366 27.9736H118.809V29.6465C118.809 29.9253 118.901 30.0183 119.087 30.0183C119.087 30.0183 119.18 30.0183 119.273 30.0183H119.366L119.459 30.2041V30.2971C119.366 30.2971 119.273 30.39 119.18 30.39C118.809 30.39 118.53 30.1112 118.53 29.7394V28.0666H118.251C118.251 28.0666 118.158 28.0666 118.158 27.9736V27.7878C118.158 27.7878 118.158 27.6948 118.251 27.6948H118.53V27.0443V26.9513L118.809 26.8584H118.901V27.6019H119.366Z" fill="#227CBF"/>
<path d="M122.247 29.7394C121.968 30.0182 121.69 30.2041 121.318 30.2041C120.76 30.2041 120.388 29.8324 120.388 29.1818V27.6019C120.388 27.6019 120.388 27.509 120.481 27.509H120.76C120.76 27.509 120.853 27.509 120.853 27.6019V29.0889C120.853 29.5536 121.132 29.8324 121.504 29.8324C122.061 29.8324 122.34 29.4606 122.34 28.7171V27.509C122.34 27.509 122.34 27.416 122.433 27.416H122.712C122.712 27.416 122.805 27.416 122.805 27.509V30.0182C122.805 30.0182 122.805 30.1112 122.712 30.1112H122.526C122.526 30.1112 122.433 30.1112 122.433 30.0182L122.247 29.7394Z" fill="#227CBF"/>
<path d="M124.942 27.7878C124.292 27.8807 124.013 28.3454 124.013 29.2748V30.1112C124.013 30.1112 124.013 30.2041 123.92 30.2041H123.641C123.641 30.2041 123.548 30.2041 123.548 30.1112V27.6019C123.548 27.6019 123.548 27.509 123.641 27.509H123.827C123.827 27.509 123.92 27.509 123.92 27.6019V27.9736C123.92 27.9736 123.92 28.0666 124.013 27.9736C124.199 27.6948 124.478 27.509 124.942 27.416C124.942 27.416 125.035 27.416 125.035 27.509V27.7878H124.942Z" fill="#227CBF"/>
<path d="M127.452 30.1112C127.266 30.2041 127.08 30.2041 126.894 30.2041C126.15 30.2041 125.686 29.6465 125.686 28.8101C125.686 27.9736 126.15 27.416 126.894 27.416C127.545 27.416 127.916 27.6948 127.916 28.2524C127.916 28.6242 127.637 28.8101 127.173 28.903L126.15 29.0889C126.243 29.5536 126.522 29.8324 126.987 29.8324C127.173 29.8324 127.359 29.8324 127.452 29.7394L127.637 29.6465H127.73L127.823 29.8324V29.9253L127.452 30.1112ZM127.08 28.7171C127.359 28.6242 127.545 28.5313 127.545 28.3454C127.545 28.0666 127.266 27.8807 126.894 27.8807C126.429 27.8807 126.058 28.2524 126.058 28.903L127.08 28.7171Z" fill="#227CBF"/>
<path d="M132.377 28.1598L132.47 28.4387C132.47 28.4387 132.47 28.5316 132.377 28.5316H130.704V30.1115C130.704 30.1115 130.704 30.2045 130.611 30.2045H130.426C130.426 30.2045 130.333 30.2045 130.333 30.1115V26.487C130.333 26.487 130.333 26.394 130.426 26.394H132.749C132.749 26.394 132.842 26.394 132.749 26.487L132.656 26.6729C132.656 26.6729 132.656 26.6729 132.563 26.6729H130.611V28.1598H132.377Z" fill="#227CBF"/>
<path d="M134.236 30.1114L133.957 30.2043C133.957 30.2043 133.864 30.2043 133.864 30.1114V27.8809H133.585C133.585 27.8809 133.493 27.8809 133.493 27.7879V27.6021C133.493 27.6021 133.493 27.5091 133.585 27.5091H134.143C134.143 27.5091 134.236 27.5091 134.236 27.6021V30.1114ZM134.236 26.4868C134.236 26.6727 134.143 26.7656 133.957 26.7656C133.771 26.7656 133.678 26.6727 133.678 26.4868C133.678 26.3009 133.771 26.208 133.957 26.208C134.143 26.208 134.236 26.3939 134.236 26.4868Z" fill="#227CBF"/>
<path d="M135.63 27.974C135.909 27.6952 136.188 27.5093 136.56 27.5093C137.117 27.5093 137.489 27.881 137.489 28.5316V30.1115C137.489 30.1115 137.489 30.2044 137.396 30.2044H137.117C137.117 30.2044 137.024 30.2044 137.024 30.1115V28.6245C137.024 28.1598 136.745 27.881 136.374 27.881C135.816 27.881 135.537 28.2528 135.537 28.9963V30.2044C135.537 30.2044 135.537 30.2974 135.444 30.2974H135.165C135.165 30.2974 135.073 30.2974 135.073 30.2044V27.6952C135.073 27.6952 135.073 27.6022 135.165 27.6022H135.351C135.351 27.6022 135.444 27.6022 135.444 27.6952L135.63 27.974Z" fill="#227CBF"/>
<path d="M138.883 27.6022C139.069 27.5093 139.255 27.5093 139.441 27.5093C140.091 27.5093 140.556 27.881 140.556 28.5316V30.1115C140.556 30.1115 140.556 30.2044 140.463 30.2044H140.277C140.277 30.2044 140.184 30.2044 140.184 30.1115V29.8327C140.184 29.7398 140.091 29.7398 140.091 29.8327C139.905 30.1115 139.626 30.2044 139.255 30.2044C138.697 30.2044 138.418 29.9256 138.418 29.4609C138.418 28.9963 138.79 28.6245 139.348 28.6245H140.184V28.5316C140.184 28.0669 139.905 27.7881 139.441 27.7881C139.255 27.7881 139.069 27.7881 138.976 27.881L138.79 27.974H138.697L138.604 27.7881V27.6952L138.883 27.6022ZM139.348 28.9033C138.976 28.9033 138.79 29.0892 138.79 29.368C138.79 29.6468 138.976 29.8327 139.348 29.8327C139.905 29.8327 140.184 29.5539 140.184 28.9033H139.348Z" fill="#227CBF"/>
<path d="M141.857 27.974C141.95 27.974 141.95 27.974 141.857 27.974C142.136 27.6952 142.415 27.5093 142.786 27.5093C143.344 27.5093 143.716 27.881 143.716 28.5316V30.1115C143.716 30.1115 143.716 30.2044 143.623 30.2044H143.344C143.344 30.2044 143.251 30.2044 143.251 30.1115V28.6245C143.251 28.1598 142.972 27.881 142.6 27.881C142.043 27.881 141.764 28.2528 141.764 28.9963V30.2044C141.764 30.2044 141.764 30.2974 141.671 30.2974H141.392C141.392 30.2974 141.299 30.2974 141.299 30.2044V27.6952C141.299 27.6952 141.299 27.6022 141.392 27.6022H141.578C141.578 27.6022 141.671 27.6022 141.671 27.6952L141.857 27.974Z" fill="#227CBF"/>
<path d="M146.504 30.1112C146.318 30.2041 146.132 30.2041 145.946 30.2041C145.11 30.2041 144.738 29.6465 144.738 28.8101C144.738 27.9736 145.203 27.416 145.946 27.416C146.132 27.416 146.225 27.416 146.411 27.509L146.597 27.6019C146.597 27.6019 146.597 27.6019 146.597 27.6948L146.504 27.8807C146.504 27.8807 146.504 27.8807 146.411 27.8807H146.225C146.039 27.7878 145.946 27.7878 145.853 27.7878C145.295 27.7878 144.924 28.1595 144.924 28.8101C144.924 29.4606 145.203 29.8324 145.76 29.8324C145.853 29.8324 146.039 29.8324 146.225 29.7394H146.411H146.504L146.597 29.9253V30.0182L146.504 30.1112Z" fill="#227CBF"/>
<path d="M149.292 30.1112C149.106 30.2041 148.92 30.2041 148.734 30.2041C147.991 30.2041 147.526 29.6465 147.526 28.8101C147.526 27.9736 147.991 27.416 148.734 27.416C149.385 27.416 149.756 27.6948 149.756 28.2524C149.756 28.6242 149.478 28.8101 149.013 28.903L147.991 29.0889C148.084 29.5536 148.362 29.8324 148.827 29.8324C149.013 29.8324 149.199 29.8324 149.292 29.7394L149.478 29.6465H149.571L149.664 29.8324V29.9253L149.292 30.1112ZM148.827 28.7171C149.106 28.6242 149.292 28.5313 149.292 28.3454C149.292 28.0666 149.013 27.8807 148.641 27.8807C148.177 27.8807 147.805 28.2524 147.805 28.903L148.827 28.7171Z" fill="#227CBF"/>
</svg>
