<svg width="151" height="46" viewBox="0 0 151 46" fill="none" xmlns="http://www.w3.org/2000/svg">
<path d="M0.685791 0.464844H4.4962V21.1898H0.685791V0.464844Z" fill="#227CBF"/>
<path d="M9.14307 5.66895H12.5817V7.063C13.0464 6.41244 13.697 5.94776 14.4405 5.57601C15.184 5.20426 16.0204 5.11133 16.8568 5.11133C17.6933 5.11133 18.4367 5.2972 19.2732 5.57601C20.0167 5.94776 20.7602 6.41244 21.3178 6.97006L21.6895 7.43475C22.2472 8.17824 22.6189 9.01467 22.7118 9.8511C22.8977 10.6875 22.8977 11.8028 22.8977 13.011V21.0035H19.1802V13.6615C19.1802 12.7321 19.1802 11.8957 19.0873 11.431C18.9944 10.8734 18.8085 10.4087 18.5297 9.94404C18.2509 9.47936 17.8791 9.20055 17.4144 8.92174C16.9498 8.73586 16.4851 8.54999 16.0204 8.54999C15.4628 8.54999 14.9981 8.64293 14.5334 8.92174C14.0687 9.20055 13.697 9.47936 13.5111 9.8511C13.3252 10.2229 13.1393 10.6875 13.0464 11.1522C12.9535 11.7098 12.8605 12.4533 12.8605 13.3827V13.8474V20.9106H9.14307V5.66895Z" fill="#227CBF"/>
<path d="M26.9869 9.01487H25.6858V5.66914H26.9869C26.9869 4.08922 27.4516 2.7881 28.381 1.67286C29.3103 0.557621 30.5185 0 32.0984 0H33.1207V3.71747C32.1914 3.71747 31.6337 3.81041 31.262 3.99628C30.8903 4.18216 30.7973 4.73978 30.7973 5.57621H32.9349V8.92193H30.7973V21.0967H27.0798V9.01487H26.9869Z" fill="#227CBF"/>
<path d="M35.7229 5.66895H39.1616V7.063C39.6262 6.41244 40.0909 5.94776 40.6486 5.57601C41.2062 5.2972 41.8567 5.11133 42.6002 5.11133H42.879V8.73586C42.0426 8.73586 41.2991 8.92174 40.7415 9.38642C40.1839 9.8511 39.8121 10.3158 39.7192 10.7805C39.6262 11.2452 39.5333 11.9887 39.5333 12.7321V21.0965H35.8158V5.66895H35.7229Z" fill="#227CBF"/>
<path d="M61.3736 21.1897H57.935V19.0522C57.3774 19.8886 56.5409 20.4462 55.6116 20.9109C54.5893 21.3756 53.6599 21.5615 52.6376 21.5615C51.4294 21.5615 50.4071 21.3756 49.3848 20.9109C48.4554 20.4462 47.4331 19.6098 46.4108 18.4946C45.3885 17.2864 44.9238 15.6135 44.9238 13.383C44.9238 12.2678 45.1097 11.2455 45.3885 10.4091C45.6673 9.47968 46.4108 8.45738 47.5261 7.15626C48.6413 5.85515 50.4071 5.20459 52.6376 5.20459C54.8681 5.20459 56.5409 6.13396 57.842 7.89976V5.66927H61.2807V21.1897H61.3736ZM53.3811 8.82912C51.987 8.82912 50.8718 9.29381 50.0354 10.1302C49.1989 11.0596 48.7342 12.1748 48.7342 13.5689C48.7342 14.87 49.1989 15.8923 50.0354 16.7288C50.9647 17.5652 51.987 18.0299 53.2881 18.0299C54.5893 18.0299 55.7045 17.5652 56.5409 16.7288C57.3774 15.8923 57.842 14.7771 57.842 13.383C57.842 12.0819 57.4703 10.9667 56.6339 10.1302C55.7974 9.29381 54.6822 8.82912 53.3811 8.82912Z" fill="#227CBF"/>
<path d="M84.7936 15.5203C84.0501 17.379 82.749 18.866 80.9832 19.9812C79.2174 21.0965 77.2657 21.6541 75.2211 21.6541C72.2471 21.6541 69.7378 20.5389 67.6003 18.4013C65.4627 16.2638 64.4404 13.7545 64.4404 10.7805C64.4404 7.80653 65.4627 5.29723 67.6003 3.25262C69.7378 1.11508 72.1542 0.0927734 75.1282 0.0927734C77.2657 0.0927734 79.2174 0.650394 81.0761 1.76564C82.9349 2.88088 84.236 4.4608 84.9795 6.41248H80.6114C79.9609 5.57604 79.1244 5.01842 78.1951 4.55374C77.2657 4.08906 76.2434 3.90318 75.2211 3.90318C73.3624 3.90318 71.6895 4.64668 70.3884 6.04073C69.0873 7.43478 68.4367 9.10764 68.4367 11.0593C68.4367 12.9181 69.0873 14.498 70.4813 15.985C71.8754 17.379 73.4553 18.1225 75.314 18.1225C76.3363 18.1225 77.2657 17.9366 78.1021 17.472C78.9386 17.1002 79.775 16.4496 80.5185 15.7062H84.7936V15.5203Z" fill="#47B65C"/>
<path d="M87.9536 5.66895H91.3923V7.063C91.857 6.41244 92.3216 5.94776 92.8793 5.57601C93.4369 5.2972 94.0874 5.11133 94.8309 5.11133H95.1097V8.73586C94.2733 8.73586 93.5298 8.92174 92.9722 9.38642C92.4146 9.8511 92.0428 10.3158 91.9499 10.7805C91.857 11.2452 91.764 11.9887 91.764 12.7321V21.0965H88.0465V5.66895H87.9536Z" fill="#47B65C"/>
<path d="M101.151 15.1487C101.429 16.078 101.987 16.7286 102.731 17.2862C103.474 17.8438 104.31 18.1226 105.24 18.1226C106.727 18.1226 107.935 17.658 108.678 16.8215H112.768C112.303 18.2156 111.281 19.3308 109.887 20.3531C108.493 21.2825 106.913 21.8401 105.333 21.8401C103.102 21.8401 101.151 21.0037 99.5707 19.4238C97.9907 17.8438 97.1543 15.8922 97.1543 13.6617C97.1543 11.3383 97.9907 9.38658 99.5707 7.71372C101.151 6.04086 103.102 5.29736 105.426 5.29736C107.656 5.29736 109.515 6.13379 111.095 7.71372C112.675 9.29365 113.418 11.2453 113.418 13.4758C113.418 13.7546 113.418 14.0334 113.325 14.4052C113.232 14.7769 113.232 15.0557 113.232 15.2416H101.151V15.1487ZM109.701 11.8029C109.422 10.8736 108.864 10.223 108.121 9.66539C107.377 9.10777 106.448 8.82896 105.519 8.82896C104.589 8.82896 103.66 9.10777 102.823 9.66539C101.987 10.223 101.429 10.9665 101.151 11.8029H109.701Z" fill="#47B65C"/>
<path d="M132.47 21.1898H129.032V19.0522C128.474 19.8886 127.73 20.5392 126.801 20.9109C125.872 21.3756 124.849 21.5615 123.827 21.5615C122.712 21.5615 121.69 21.3756 120.76 20.9109C119.831 20.4463 118.994 19.7957 118.344 19.0522C117.693 18.2158 117.136 17.3793 116.764 16.45C116.392 15.5206 116.206 14.4983 116.206 13.476C116.206 11.2455 116.764 9.57265 117.786 8.36447C118.809 7.15629 119.924 6.31986 120.946 5.85518C121.968 5.39049 122.991 5.11168 124.106 5.11168C125.035 5.11168 125.965 5.29756 126.801 5.6693C127.638 6.04105 128.381 6.50574 128.939 7.24923V0.464844H132.656V21.1898H132.47ZM124.385 8.82916C123.177 8.82916 122.154 9.29384 121.225 10.1303C120.296 11.0596 119.831 12.0819 119.831 13.2901C119.831 14.5912 120.296 15.7065 121.132 16.6358C121.968 17.5652 123.084 18.0299 124.385 18.0299C125.686 18.0299 126.801 17.5652 127.638 16.6358C128.567 15.7065 129.032 14.5912 129.032 13.3831C129.032 12.0819 128.567 11.0596 127.638 10.1303C126.801 9.29384 125.686 8.82916 124.385 8.82916Z" fill="#47B65C"/>
<path d="M136.281 0.464844H139.998V3.90351H136.281V0.464844ZM136.281 5.6693H139.998V21.1898H136.281V5.6693Z" fill="#47B65C"/>
<path d="M144.552 9.01503H142.693V5.6693H144.552V0.464844H148.27V5.6693H150.5V9.01503H148.27V21.1898H144.552V9.01503Z" fill="#47B65C"/>
<path d="M30.4256 42.0074C29.2175 41.4498 28.1022 40.7063 26.987 40.0558C25.8717 39.3123 24.8494 38.4758 23.8271 37.6394C22.8048 36.803 21.8755 35.8736 20.9461 34.8513C20.4814 34.3866 20.1097 33.829 19.645 33.3643C19.552 33.2714 19.4591 33.0855 19.3662 32.9926C19.2732 32.8996 19.1803 32.7137 19.0874 32.6208C18.9015 32.4349 18.7156 32.2491 18.6227 32.0632C17.9721 31.3197 17.3216 30.5762 16.7639 29.7398C16.1134 28.8104 15.6487 27.974 15.184 27.0446C14.9981 26.6729 14.8123 26.2082 14.6264 25.8364H0.5C0.685874 26.3011 0.871748 26.6729 1.05762 27.1375C1.61524 28.3457 2.2658 29.461 3.00929 30.6691C3.75279 31.7844 4.49628 32.8996 5.42565 33.829C6.26208 34.8513 7.19145 35.7807 8.21375 36.71C9.14312 37.6394 10.1654 38.4758 11.2807 39.2193C12.303 39.9628 13.4182 40.7063 14.6264 41.3569C15.7416 42.0074 16.9498 42.565 18.158 43.1227C19.3662 43.5874 20.6673 44.052 21.8755 44.4238C23.1766 44.7955 24.4777 45.0743 25.7788 45.2602C26.3364 45.3532 26.8941 45.4461 27.4517 45.4461C27.8234 45.4461 28.2881 45.539 28.6598 45.539C29.0316 45.539 29.4963 45.539 29.868 45.632C30.0539 45.632 30.3327 45.632 30.5186 45.632C30.7045 45.632 30.8903 45.632 30.9833 45.632C31.355 45.632 31.7268 45.632 32.0985 45.632C32.5632 45.632 32.9349 45.632 33.3996 45.539C33.9572 45.539 34.4219 45.4461 34.9795 45.3532C35.9089 45.2602 36.8383 45.0743 37.7677 44.7955C36.4665 44.5167 35.1654 44.145 33.9572 43.6803C32.842 43.1227 31.6338 42.565 30.4256 42.0074Z" fill="#47B65C"/>
<path opacity="0.12" d="M8.21363 36.71C9.143 37.6394 10.1653 38.4758 11.2805 39.2193C12.3029 39.9628 13.4181 40.7063 14.6263 41.3568C15.7415 42.0074 16.9497 42.565 18.1579 43.1226C19.3661 43.5873 20.6672 44.052 21.8753 44.4237C23.1765 44.7955 24.4776 45.0743 25.7787 45.2602C26.3363 45.3531 26.8939 45.446 27.4516 45.446C27.8233 45.446 28.288 45.539 28.6597 45.539C29.0315 45.539 29.4962 45.539 29.8679 45.6319C30.0538 45.6319 30.3326 45.6319 30.5185 45.6319C30.7043 45.6319 30.8902 45.6319 30.9831 45.6319C31.3549 45.6319 31.7266 45.6319 32.0984 45.6319C32.5631 45.6319 32.9348 45.6319 33.3995 45.539C33.9571 45.539 34.4218 45.4461 34.9794 45.3531C35.9088 45.2602 36.8382 45.0743 37.7675 44.7955C36.4664 44.5167 35.1653 44.1449 33.9571 43.6803C32.7489 43.2156 31.5408 42.7509 30.3326 42.1003C29.1244 41.5427 28.0092 40.7992 26.8939 40.1487C25.7787 39.4052 24.7564 38.5687 23.7341 37.7323C22.7118 36.8959 21.7824 35.9665 20.853 34.9442C20.3884 34.4795 20.0166 33.9219 19.5519 33.4572C19.459 33.3643 19.366 33.1784 19.2731 33.0855C19.1802 32.9925 19.0872 32.8066 18.9943 32.7137C18.8084 32.5278 18.7155 32.4349 18.5296 32.249C14.2545 32.8996 10.2582 33.9219 6.54077 35.223C7.09839 35.5947 7.65601 36.1524 8.21363 36.71Z" fill="white"/>
<path d="M47.0614 25.8364C46.6896 26.6729 46.3179 27.4164 45.8532 28.1598C45.3885 28.9963 44.8309 29.8327 44.1803 30.5762C43.6227 31.3197 42.9721 31.9703 42.3216 32.6208C41.5781 33.2714 40.8346 33.9219 39.9982 34.4795C38.9759 35.223 37.8606 35.7807 36.6524 36.2453C35.4443 36.71 34.2361 36.9888 33.0279 37.0818C31.7268 37.1747 30.5186 37.1747 29.2175 36.9888C28.0093 36.803 26.8011 36.4312 25.6859 35.8736C24.5707 35.4089 23.5484 34.7584 22.619 34.1078C21.8755 33.5502 21.132 32.8996 20.4814 32.2491C21.2249 33.2714 22.1543 34.2937 22.9907 35.1301C23.9201 36.0595 24.8495 36.8959 25.8718 37.7323C26.8941 38.5688 27.9164 39.3123 29.0316 39.9628C30.1469 40.6134 31.2621 41.2639 32.3774 41.8216C33.5855 42.3792 34.7008 42.8439 36.0019 43.2156C36.6524 43.4015 37.2101 43.5874 37.8606 43.7732C38.0465 43.7732 38.1394 43.8662 38.3253 43.8662C38.4182 43.8662 38.5112 43.8662 38.5112 43.9591H38.6041H38.6971C38.9759 43.8662 39.3476 43.7732 39.6264 43.6803C40.8346 43.3085 42.0428 42.9368 43.251 42.4721C44.3662 42.0074 45.4814 41.4498 46.5967 40.8922C47.619 40.3346 48.7342 39.684 49.6636 38.9405C50.6859 38.197 51.6153 37.4535 52.5446 36.71C53.3811 35.9665 54.2175 35.1301 54.961 34.2937C55.7045 33.5502 56.355 32.7137 56.9127 31.8773C57.5632 31.0409 58.1208 30.1115 58.6785 29.2751C59.2361 28.3457 59.7008 27.4164 60.1655 26.487C60.2584 26.3011 60.3513 26.1152 60.4443 25.9294H47.0614V25.8364Z" fill="#227CBF"/>
<path opacity="0.12" d="M23.0837 35.1302C24.013 36.0596 24.9424 36.896 25.9647 37.7325C26.987 38.5689 28.0093 39.3124 29.1246 39.9629C30.2398 40.6135 31.355 41.2641 32.4703 41.8217C33.6785 42.3793 34.7937 42.844 36.0948 43.2157C36.7454 43.4016 37.303 43.5875 37.9536 43.7733C38.1394 43.7733 38.2324 43.8663 38.4182 43.8663C38.5112 43.8663 38.6041 43.8663 38.6041 43.9592H38.6971H38.79C39.0688 43.8663 39.4406 43.7734 39.7194 43.6804C40.9275 43.3087 42.1357 42.9369 43.3439 42.4722C44.4591 42.0075 45.5744 41.4499 46.6896 40.8923C47.7119 40.3347 48.8272 39.6841 49.7565 38.9406C50.7788 38.1971 51.7082 37.4536 52.6376 36.7102C53.1952 36.1525 53.8458 35.5949 54.4034 35.0373C50.7788 33.8291 46.8755 32.8068 42.7863 32.1562C42.6004 32.3421 42.5075 32.4351 42.3216 32.6209C41.5781 33.2715 40.8346 33.922 39.9982 34.4797C38.9759 35.2232 37.8606 35.7808 36.6524 36.2455C35.4443 36.7102 34.2361 36.989 33.0279 37.0819C31.7268 37.1748 30.5186 37.1748 29.2175 36.989C28.0093 36.8031 26.8011 36.4313 25.6859 35.8737C24.5707 35.409 23.5484 34.7585 22.619 34.1079C21.8755 33.5503 21.132 32.8997 20.4814 32.2492C21.4108 33.1786 22.2472 34.2009 23.0837 35.1302Z" fill="white"/>
<path d="M69.2731 28.2528C68.7155 28.0669 68.4367 27.6952 68.4367 27.3234C68.4367 26.7658 68.9014 26.394 69.6449 26.394C69.9237 26.394 70.2025 26.487 70.4813 26.487L70.7601 26.5799C70.7601 26.5799 70.7601 26.5799 70.7601 26.6729L70.6672 26.8587C70.6672 26.8587 70.6672 26.8587 70.5742 26.8587L70.2954 26.7658C70.0166 26.6729 69.8307 26.6729 69.5519 26.6729C69.0872 26.6729 68.7155 26.9517 68.7155 27.3234C68.7155 27.6022 68.8084 27.7881 69.2731 27.974L70.0166 28.2528C70.4813 28.4387 70.853 28.7175 70.853 29.1821C70.853 29.8327 70.2954 30.2045 69.5519 30.2045C69.1802 30.2045 68.8084 30.1115 68.5296 30.0186L68.3438 29.9256C68.3438 29.9256 68.3438 29.9256 68.3438 29.8327L68.4367 29.6468C68.4367 29.6468 68.4367 29.6468 68.5296 29.6468L68.7155 29.7398C68.9943 29.8327 69.2731 29.9256 69.6449 29.9256C70.1096 29.9256 70.5742 29.6468 70.5742 29.2751C70.5742 28.9963 70.2954 28.8104 70.0166 28.6245L69.2731 28.2528Z" fill="#227CBF"/>
<path d="M73.5483 30.1112C73.3624 30.2041 73.1765 30.2041 72.9906 30.2041C72.2472 30.2041 71.7825 29.6465 71.7825 28.8101C71.7825 27.9736 72.2472 27.416 72.9906 27.416C73.6412 27.416 74.013 27.6948 74.013 28.2524C74.013 28.6242 73.7341 28.8101 73.2695 28.903L72.2472 29.0889C72.3401 29.5536 72.6189 29.8324 73.0836 29.8324C73.2695 29.8324 73.4553 29.8324 73.5483 29.7394L73.7341 29.6465H73.8271L73.92 29.8324V29.9253L73.5483 30.1112ZM73.1765 28.7171C73.4553 28.6242 73.6412 28.5313 73.6412 28.3454C73.6412 28.0666 73.3624 27.8807 72.9906 27.8807C72.526 27.8807 72.1542 28.2524 72.1542 28.903L73.1765 28.7171Z" fill="#227CBF"/>
<path d="M76.5221 30.1112C76.3363 30.2041 76.1504 30.2041 75.9645 30.2041C75.1281 30.2041 74.7563 29.6465 74.7563 28.8101C74.7563 27.9736 75.221 27.416 75.9645 27.416C76.1504 27.416 76.2433 27.416 76.4292 27.509L76.6151 27.6019C76.6151 27.6019 76.6151 27.6019 76.6151 27.6948L76.5221 27.8807C76.5221 27.8807 76.5221 27.8807 76.4292 27.8807H76.2433C76.0575 27.7878 75.9645 27.7878 75.8716 27.7878C75.314 27.7878 74.9422 28.1595 74.9422 28.8101C74.9422 29.4606 75.221 29.8324 75.7787 29.8324C75.8716 29.8324 76.0575 29.8324 76.2433 29.7394H76.4292H76.5221L76.6151 29.9253V30.0182L76.5221 30.1112Z" fill="#227CBF"/>
<path d="M79.589 29.7394C79.3102 30.0182 79.0313 30.2041 78.6596 30.2041C78.102 30.2041 77.7302 29.8324 77.7302 29.1818V27.6019C77.7302 27.6019 77.7302 27.509 77.8232 27.509H78.102C78.102 27.509 78.1949 27.509 78.1949 27.6019V29.0889C78.1949 29.5536 78.4737 29.8324 78.8455 29.8324C79.4031 29.8324 79.6819 29.4606 79.6819 28.7171V27.509C79.6819 27.509 79.6819 27.416 79.7748 27.416H80.0536C80.0536 27.416 80.1466 27.416 80.1466 27.509V30.0182C80.1466 30.0182 80.1466 30.1112 80.0536 30.1112H79.8678C79.8678 30.1112 79.7748 30.1112 79.7748 30.0182L79.589 29.7394Z" fill="#227CBF"/>
<path d="M82.2842 27.7878C81.6336 27.8807 81.3548 28.3454 81.3548 29.2748V30.1112C81.3548 30.1112 81.3548 30.2041 81.2619 30.2041H80.9831C80.9831 30.2041 80.8901 30.2041 80.8901 30.1112V27.6019C80.8901 27.6019 80.8901 27.509 80.9831 27.509H81.1689C81.1689 27.509 81.2619 27.509 81.2619 27.6019V27.9736C81.2619 27.9736 81.2619 28.0666 81.3548 27.9736C81.5407 27.6948 81.8195 27.509 82.2842 27.416C82.2842 27.416 82.3771 27.416 82.3771 27.509V27.7878H82.2842Z" fill="#227CBF"/>
<path d="M83.8641 30.1114L83.5853 30.2043C83.5853 30.2043 83.4924 30.2043 83.4924 30.1114V27.8809H83.2135C83.2135 27.8809 83.1206 27.8809 83.1206 27.7879V27.6021C83.1206 27.6021 83.1206 27.5091 83.2135 27.5091H83.7712C83.7712 27.5091 83.8641 27.5091 83.8641 27.6021V30.1114ZM83.8641 26.4868C83.8641 26.6727 83.7712 26.7656 83.5853 26.7656C83.3994 26.7656 83.3065 26.6727 83.3065 26.4868C83.3065 26.3009 83.3994 26.208 83.5853 26.208C83.7712 26.208 83.8641 26.3939 83.8641 26.4868Z" fill="#227CBF"/>
<path d="M85.2583 27.974C85.5371 27.6952 85.8159 27.5093 86.1877 27.5093C86.7453 27.5093 87.117 27.881 87.117 28.5316V30.1115C87.117 30.1115 87.117 30.2044 87.0241 30.2044H86.7453C86.7453 30.2044 86.6524 30.2044 86.6524 30.1115V28.6245C86.6524 28.1598 86.3735 27.881 86.0018 27.881C85.4442 27.881 85.1654 28.2528 85.1654 28.9963V30.2044C85.1654 30.2044 85.1654 30.2974 85.0724 30.2974H84.7936C84.7936 30.2974 84.7007 30.2974 84.7007 30.2044V27.6952C84.7007 27.6952 84.7007 27.6022 84.7936 27.6022H84.9795C84.9795 27.6022 85.0724 27.6022 85.0724 27.6952L85.2583 27.974Z" fill="#227CBF"/>
<path d="M88.604 30.9479C88.6969 30.9479 88.9758 31.0409 89.1616 31.0409C89.7192 31.0409 89.9981 30.7621 90.091 30.2974C90.091 29.8327 90.091 30.0186 90.091 29.8327C90.091 29.8327 90.091 29.7398 89.9981 29.8327C89.8122 30.1115 89.5334 30.2974 89.1616 30.2974C88.5111 30.2974 88.0464 29.7398 88.0464 28.9033C88.0464 28.0669 88.5111 27.5093 89.2546 27.5093C89.5334 27.5093 89.7192 27.6022 89.9051 27.6952L90.2769 27.881C90.2769 27.881 90.2769 27.881 90.2769 27.974V30.2974C90.2769 31.0409 89.9051 31.4126 89.0687 31.4126C88.8828 31.4126 88.604 31.4126 88.4181 31.3197L88.1393 31.2267C88.1393 31.2267 88.1393 31.2268 88.1393 31.1338L88.2323 30.9479C88.2323 30.9479 88.2323 30.9479 88.3252 30.9479H88.604ZM89.8122 27.974C89.7193 27.881 89.4404 27.881 89.2546 27.881C88.6969 27.881 88.4181 28.2528 88.4181 28.9033C88.4181 29.5539 88.6969 29.9256 89.1616 29.9256C89.7192 29.9256 89.9981 29.461 89.9981 28.8104V28.0669L89.8122 27.974Z" fill="#227CBF"/>
<path d="M93.3437 30.1115L93.0649 30.2045C93.0649 30.2045 92.9719 30.2045 92.9719 30.1115V26.487C92.9719 26.487 92.9719 26.394 93.0649 26.394H93.3437C93.3437 26.394 93.4366 26.394 93.4366 26.487V30.1115H93.3437Z" fill="#227CBF"/>
<path d="M94.7378 27.974C94.8307 27.974 94.8307 27.974 94.7378 27.974C95.0166 27.6952 95.2954 27.5093 95.6672 27.5093C96.2248 27.5093 96.5965 27.881 96.5965 28.5316V30.1115C96.5965 30.1115 96.5965 30.2044 96.5036 30.2044H96.2248C96.2248 30.2044 96.1318 30.2044 96.1318 30.1115V28.6245C96.1318 28.1598 95.853 27.881 95.4813 27.881C94.9237 27.881 94.6449 28.2528 94.6449 28.9963V30.2044C94.6449 30.2044 94.6449 30.2974 94.5519 30.2974H94.2731C94.2731 30.2974 94.1802 30.2974 94.1802 30.2044V27.6952C94.1802 27.6952 94.1802 27.6022 94.2731 27.6022H94.459C94.459 27.6022 94.5519 27.6022 94.5519 27.6952L94.7378 27.974Z" fill="#227CBF"/>
<path d="M97.8977 27.0444C97.8977 26.5798 98.1765 26.208 98.6412 26.208C98.7341 26.208 98.8271 26.208 98.92 26.3009H99.0129C99.0129 26.3009 99.0129 26.3009 99.0129 26.3939L98.92 26.5798C98.92 26.5798 98.92 26.5798 98.8271 26.5798H98.7341C98.6412 26.5798 98.6412 26.5798 98.5483 26.5798C98.2695 26.5798 98.1765 26.7656 98.1765 27.0444V27.5091H98.7341C98.7341 27.5091 98.8271 27.5091 98.8271 27.6021V27.7879C98.8271 27.7879 98.8271 27.8809 98.7341 27.8809H98.1765V30.1114C98.1765 30.1114 98.1765 30.2043 98.0836 30.2043H97.8048C97.8048 30.2043 97.7118 30.2043 97.7118 30.1114V27.8809H97.433C97.433 27.8809 97.3401 27.8809 97.3401 27.7879V27.6021C97.3401 27.6021 97.3401 27.5091 97.433 27.5091H97.7118V27.0444H97.8977Z" fill="#227CBF"/>
<path d="M101.15 27.7878C100.5 27.8807 100.221 28.3454 100.221 29.2748V30.1112C100.221 30.1112 100.221 30.2041 100.128 30.2041H99.8493C99.8493 30.2041 99.7563 30.2041 99.7563 30.1112V27.6019C99.7563 27.6019 99.7563 27.509 99.8493 27.509H100.035C100.035 27.509 100.128 27.509 100.128 27.6019V27.9736C100.128 27.9736 100.128 28.0666 100.221 27.9736C100.407 27.6948 100.686 27.509 101.15 27.416C101.15 27.416 101.243 27.416 101.243 27.509V27.7878H101.15Z" fill="#227CBF"/>
<path d="M102.266 27.6022C102.452 27.5093 102.637 27.5093 102.823 27.5093C103.474 27.5093 103.939 27.881 103.939 28.5316V30.1115C103.939 30.1115 103.939 30.2044 103.846 30.2044H103.66C103.66 30.2044 103.567 30.2044 103.567 30.1115V29.8327C103.567 29.7398 103.474 29.7398 103.474 29.8327C103.288 30.1115 103.009 30.2044 102.637 30.2044C102.08 30.2044 101.801 29.9256 101.801 29.4609C101.801 28.9963 102.173 28.6245 102.73 28.6245H103.567V28.5316C103.567 28.0669 103.288 27.7881 102.823 27.7881C102.637 27.7881 102.452 27.7881 102.359 27.881L102.173 27.974H102.08L101.987 27.7881V27.6952L102.266 27.6022ZM102.73 28.9033C102.359 28.9033 102.173 29.0892 102.173 29.368C102.173 29.6468 102.359 29.8327 102.73 29.8327C103.288 29.8327 103.567 29.5539 103.567 28.9033H102.73Z" fill="#227CBF"/>
<path d="M105.518 28.9033C105.147 28.8104 104.961 28.6245 104.961 28.2528C104.961 27.7881 105.333 27.5093 105.89 27.5093C106.169 27.5093 106.355 27.5093 106.541 27.6022L106.727 27.6952C106.727 27.6952 106.727 27.6952 106.727 27.7881L106.634 27.974C106.634 27.974 106.634 27.974 106.541 27.974L106.355 27.881C106.169 27.881 105.983 27.7881 105.797 27.7881C105.426 27.7881 105.24 27.974 105.24 28.1598C105.24 28.3457 105.333 28.4386 105.611 28.5316L106.262 28.7175C106.727 28.8104 106.913 29.0892 106.913 29.368C106.913 29.8327 106.541 30.1115 105.89 30.1115C105.611 30.1115 105.333 30.1115 105.054 30.0186L104.868 29.9256C104.868 29.9256 104.868 29.9256 104.868 29.8327L104.961 29.6468C104.961 29.6468 104.961 29.6468 105.054 29.6468L105.24 29.7398C105.426 29.8327 105.704 29.8327 105.983 29.8327C106.355 29.8327 106.634 29.6468 106.634 29.368C106.634 29.1821 106.541 29.0892 106.262 28.9963L105.518 28.9033Z" fill="#227CBF"/>
<path d="M108.864 27.6019C108.957 27.6019 108.957 27.6019 108.864 27.6019L108.957 27.8807C108.957 27.8807 108.957 27.9736 108.864 27.9736H108.307V29.6465C108.307 29.9253 108.4 30.0183 108.585 30.0183C108.585 30.0183 108.678 30.0183 108.771 30.0183H108.864L108.957 30.2041V30.2971C108.864 30.2971 108.771 30.39 108.678 30.39C108.307 30.39 108.028 30.1112 108.028 29.7394V28.0666H107.749C107.749 28.0666 107.656 28.0666 107.656 27.9736V27.7878C107.656 27.7878 107.656 27.6948 107.749 27.6948H108.028V27.0443V26.9513L108.307 26.8584H108.4V27.6019H108.864Z" fill="#227CBF"/>
<path d="M111.188 27.7878C110.537 27.8807 110.258 28.3454 110.258 29.2748V30.1112C110.258 30.1112 110.258 30.2041 110.165 30.2041H109.886C109.886 30.2041 109.793 30.2041 109.793 30.1112V27.6019C109.793 27.6019 109.793 27.509 109.886 27.509H110.072C110.072 27.509 110.165 27.509 110.165 27.6019V27.9736C110.165 27.9736 110.165 28.0666 110.258 27.9736C110.444 27.6948 110.723 27.509 111.188 27.416C111.188 27.416 111.28 27.416 111.28 27.509V27.7878H111.188Z" fill="#227CBF"/>
<path d="M114.069 29.7394C113.79 30.0182 113.511 30.2041 113.139 30.2041C112.582 30.2041 112.21 29.8324 112.21 29.1818V27.6019C112.21 27.6019 112.21 27.509 112.303 27.509H112.582C112.582 27.509 112.675 27.509 112.675 27.6019V29.0889C112.675 29.5536 112.953 29.8324 113.325 29.8324C113.883 29.8324 114.162 29.4606 114.162 28.7171V27.509C114.162 27.509 114.162 27.416 114.255 27.416H114.533C114.533 27.416 114.626 27.416 114.626 27.509V30.0182C114.626 30.0182 114.626 30.1112 114.533 30.1112H114.348C114.348 30.1112 114.255 30.1112 114.255 30.0182L114.069 29.7394Z" fill="#227CBF"/>
<path d="M117.043 30.1112C116.857 30.2041 116.671 30.2041 116.485 30.2041C115.649 30.2041 115.277 29.6465 115.277 28.8101C115.277 27.9736 115.742 27.416 116.485 27.416C116.671 27.416 116.764 27.416 116.95 27.509L117.136 27.6019C117.136 27.6019 117.136 27.6019 117.136 27.6948L117.043 27.8807C117.043 27.8807 117.043 27.8807 116.95 27.8807H116.764C116.578 27.7878 116.485 27.7878 116.392 27.7878C115.834 27.7878 115.463 28.1595 115.463 28.8101C115.463 29.4606 115.742 29.8324 116.299 29.8324C116.392 29.8324 116.578 29.8324 116.764 29.7394H116.95H117.043L117.136 29.9253V30.0182L117.043 30.1112Z" fill="#227CBF"/>
<path d="M119.366 27.6019L119.459 27.8807C119.459 27.8807 119.459 27.9736 119.366 27.9736H118.809V29.6465C118.809 29.9253 118.901 30.0183 119.087 30.0183C119.087 30.0183 119.18 30.0183 119.273 30.0183H119.366L119.459 30.2041V30.2971C119.366 30.2971 119.273 30.39 119.18 30.39C118.809 30.39 118.53 30.1112 118.53 29.7394V28.0666H118.251C118.251 28.0666 118.158 28.0666 118.158 27.9736V27.7878C118.158 27.7878 118.158 27.6948 118.251 27.6948H118.53V27.0443V26.9513L118.809 26.8584H118.901V27.6019H119.366Z" fill="#227CBF"/>
<path d="M122.247 29.7394C121.968 30.0182 121.69 30.2041 121.318 30.2041C120.76 30.2041 120.388 29.8324 120.388 29.1818V27.6019C120.388 27.6019 120.388 27.509 120.481 27.509H120.76C120.76 27.509 120.853 27.509 120.853 27.6019V29.0889C120.853 29.5536 121.132 29.8324 121.504 29.8324C122.061 29.8324 122.34 29.4606 122.34 28.7171V27.509C122.34 27.509 122.34 27.416 122.433 27.416H122.712C122.712 27.416 122.805 27.416 122.805 27.509V30.0182C122.805 30.0182 122.805 30.1112 122.712 30.1112H122.526C122.526 30.1112 122.433 30.1112 122.433 30.0182L122.247 29.7394Z" fill="#227CBF"/>
<path d="M124.942 27.7878C124.292 27.8807 124.013 28.3454 124.013 29.2748V30.1112C124.013 30.1112 124.013 30.2041 123.92 30.2041H123.641C123.641 30.2041 123.548 30.2041 123.548 30.1112V27.6019C123.548 27.6019 123.548 27.509 123.641 27.509H123.827C123.827 27.509 123.92 27.509 123.92 27.6019V27.9736C123.92 27.9736 123.92 28.0666 124.013 27.9736C124.199 27.6948 124.478 27.509 124.942 27.416C124.942 27.416 125.035 27.416 125.035 27.509V27.7878H124.942Z" fill="#227CBF"/>
<path d="M127.452 30.1112C127.266 30.2041 127.08 30.2041 126.894 30.2041C126.15 30.2041 125.686 29.6465 125.686 28.8101C125.686 27.9736 126.15 27.416 126.894 27.416C127.545 27.416 127.916 27.6948 127.916 28.2524C127.916 28.6242 127.637 28.8101 127.173 28.903L126.15 29.0889C126.243 29.5536 126.522 29.8324 126.987 29.8324C127.173 29.8324 127.359 29.8324 127.452 29.7394L127.637 29.6465H127.73L127.823 29.8324V29.9253L127.452 30.1112ZM127.08 28.7171C127.359 28.6242 127.545 28.5313 127.545 28.3454C127.545 28.0666 127.266 27.8807 126.894 27.8807C126.429 27.8807 126.058 28.2524 126.058 28.903L127.08 28.7171Z" fill="#227CBF"/>
<path d="M132.377 28.1598L132.47 28.4387C132.47 28.4387 132.47 28.5316 132.377 28.5316H130.704V30.1115C130.704 30.1115 130.704 30.2045 130.611 30.2045H130.425C130.425 30.2045 130.333 30.2045 130.333 30.1115V26.487C130.333 26.487 130.333 26.394 130.425 26.394H132.749C132.749 26.394 132.842 26.394 132.749 26.487L132.656 26.6729C132.656 26.6729 132.656 26.6729 132.563 26.6729H130.611V28.1598H132.377Z" fill="#227CBF"/>
<path d="M134.236 30.1114L133.957 30.2043C133.957 30.2043 133.864 30.2043 133.864 30.1114V27.8809H133.585C133.585 27.8809 133.492 27.8809 133.492 27.7879V27.6021C133.492 27.6021 133.492 27.5091 133.585 27.5091H134.143C134.143 27.5091 134.236 27.5091 134.236 27.6021V30.1114ZM134.236 26.4868C134.236 26.6727 134.143 26.7656 133.957 26.7656C133.771 26.7656 133.678 26.6727 133.678 26.4868C133.678 26.3009 133.771 26.208 133.957 26.208C134.143 26.208 134.236 26.3939 134.236 26.4868Z" fill="#227CBF"/>
<path d="M135.63 27.974C135.909 27.6952 136.188 27.5093 136.56 27.5093C137.117 27.5093 137.489 27.881 137.489 28.5316V30.1115C137.489 30.1115 137.489 30.2044 137.396 30.2044H137.117C137.117 30.2044 137.024 30.2044 137.024 30.1115V28.6245C137.024 28.1598 136.745 27.881 136.374 27.881C135.816 27.881 135.537 28.2528 135.537 28.9963V30.2044C135.537 30.2044 135.537 30.2974 135.444 30.2974H135.165C135.165 30.2974 135.073 30.2974 135.073 30.2044V27.6952C135.073 27.6952 135.073 27.6022 135.165 27.6022H135.351C135.351 27.6022 135.444 27.6022 135.444 27.6952L135.63 27.974Z" fill="#227CBF"/>
<path d="M138.883 27.6022C139.069 27.5093 139.255 27.5093 139.441 27.5093C140.091 27.5093 140.556 27.881 140.556 28.5316V30.1115C140.556 30.1115 140.556 30.2044 140.463 30.2044H140.277C140.277 30.2044 140.184 30.2044 140.184 30.1115V29.8327C140.184 29.7398 140.091 29.7398 140.091 29.8327C139.905 30.1115 139.626 30.2044 139.255 30.2044C138.697 30.2044 138.418 29.9256 138.418 29.4609C138.418 28.9963 138.79 28.6245 139.348 28.6245H140.184V28.5316C140.184 28.0669 139.905 27.7881 139.441 27.7881C139.255 27.7881 139.069 27.7881 138.976 27.881L138.79 27.974H138.697L138.604 27.7881V27.6952L138.883 27.6022ZM139.348 28.9033C138.976 28.9033 138.79 29.0892 138.79 29.368C138.79 29.6468 138.976 29.8327 139.348 29.8327C139.905 29.8327 140.184 29.5539 140.184 28.9033H139.348Z" fill="#227CBF"/>
<path d="M141.857 27.974C141.95 27.974 141.95 27.974 141.857 27.974C142.136 27.6952 142.414 27.5093 142.786 27.5093C143.344 27.5093 143.715 27.881 143.715 28.5316V30.1115C143.715 30.1115 143.715 30.2044 143.622 30.2044H143.344C143.344 30.2044 143.251 30.2044 143.251 30.1115V28.6245C143.251 28.1598 142.972 27.881 142.6 27.881C142.043 27.881 141.764 28.2528 141.764 28.9963V30.2044C141.764 30.2044 141.764 30.2974 141.671 30.2974H141.392C141.392 30.2974 141.299 30.2974 141.299 30.2044V27.6952C141.299 27.6952 141.299 27.6022 141.392 27.6022H141.578C141.578 27.6022 141.671 27.6022 141.671 27.6952L141.857 27.974Z" fill="#227CBF"/>
<path d="M146.504 30.1112C146.318 30.2041 146.132 30.2041 145.946 30.2041C145.11 30.2041 144.738 29.6465 144.738 28.8101C144.738 27.9736 145.202 27.416 145.946 27.416C146.132 27.416 146.225 27.416 146.411 27.509L146.597 27.6019C146.597 27.6019 146.597 27.6019 146.597 27.6948L146.504 27.8807C146.504 27.8807 146.504 27.8807 146.411 27.8807H146.225C146.039 27.7878 145.946 27.7878 145.853 27.7878C145.295 27.7878 144.924 28.1595 144.924 28.8101C144.924 29.4606 145.202 29.8324 145.76 29.8324C145.853 29.8324 146.039 29.8324 146.225 29.7394H146.411H146.504L146.597 29.9253V30.0182L146.504 30.1112Z" fill="#227CBF"/>
<path d="M149.292 30.1112C149.106 30.2041 148.92 30.2041 148.734 30.2041C147.991 30.2041 147.526 29.6465 147.526 28.8101C147.526 27.9736 147.991 27.416 148.734 27.416C149.385 27.416 149.756 27.6948 149.756 28.2524C149.756 28.6242 149.478 28.8101 149.013 28.903L147.991 29.0889C148.083 29.5536 148.362 29.8324 148.827 29.8324C149.013 29.8324 149.199 29.8324 149.292 29.7394L149.478 29.6465H149.57L149.663 29.8324V29.9253L149.292 30.1112ZM148.827 28.7171C149.106 28.6242 149.292 28.5313 149.292 28.3454C149.292 28.0666 149.013 27.8807 148.641 27.8807C148.176 27.8807 147.805 28.2524 147.805 28.903L148.827 28.7171Z" fill="#227CBF"/>
</svg>
