<svg width="145" height="31" viewBox="0 0 145 31" fill="none" xmlns="http://www.w3.org/2000/svg">
<g clip-path="url(#clip0_18_326)">
<path d="M51.5057 17.8419L50.6444 20.2793H50.5727C50.4291 19.7297 50.166 18.8933 49.7353 17.8897L45.118 6.29979H40.5964V24.7719H43.5869V13.3732C43.5869 12.6563 43.5869 11.8438 43.563 10.8402C43.5391 10.3383 43.4912 9.95598 43.4673 9.66922H43.5391C43.6826 10.3861 43.8501 10.9118 43.9697 11.2464L49.52 24.7241H51.6253L57.1278 11.1269C57.2474 10.8163 57.367 10.1949 57.4867 9.66922H57.5584C57.4867 11.0313 57.4388 12.2501 57.4149 12.9909V24.7002H60.5968V6.252H56.2426L51.5057 17.8419ZM63.6112 11.4615H66.7213V24.7002H63.6112V11.4615ZM65.1901 5.86965C64.6638 5.86965 64.2332 6.06083 63.8743 6.39538C63.5155 6.72993 63.3241 7.16007 63.3241 7.6858C63.3241 8.18763 63.5155 8.61777 63.8743 8.95232C64.2332 9.28687 64.6638 9.45415 65.1901 9.45415C65.7165 9.45415 66.171 9.26298 66.506 8.95232C66.8648 8.61777 67.0562 8.18763 67.0562 7.6858C67.0562 7.18397 66.8648 6.75383 66.506 6.39538C66.1949 6.06083 65.7404 5.86965 65.1901 5.86965ZM77.7502 11.342C77.176 11.2225 76.5779 11.1508 76.0037 11.1508C74.5922 11.1508 73.3003 11.4615 72.2237 12.0828C71.1472 12.7041 70.2859 13.5644 69.7357 14.6397C69.1615 15.739 68.8744 17.0055 68.8744 18.4632C68.8744 19.7297 69.1615 20.8528 69.7117 21.8804C70.262 22.8841 71.0276 23.6965 72.0563 24.2462C73.0372 24.7958 74.1855 25.0826 75.4774 25.0826C76.9607 25.0826 78.2286 24.7719 79.2334 24.1984L79.2574 24.1745V21.3069L79.1377 21.4025C78.6832 21.737 78.1569 22.0238 77.6305 22.1911C77.0803 22.3822 76.5779 22.4778 76.1473 22.4778C74.9032 22.4778 73.9223 22.1194 73.2286 21.3308C72.5108 20.5661 72.152 19.5146 72.152 18.2003C72.152 16.8382 72.5108 15.7629 73.2525 14.9743C73.9941 14.1857 74.975 13.7794 76.1712 13.7794C77.176 13.7794 78.2047 14.114 79.1377 14.7831L79.2574 14.8787V11.8438L79.2334 11.8199C78.8267 11.6526 78.3722 11.4615 77.7502 11.342ZM88.0135 11.2464C87.2479 11.2464 86.5302 11.4854 85.9082 11.9872C85.3819 12.4173 85.023 13.0386 84.712 13.7794H84.6881V11.4615H81.578V24.7002H84.6881V17.9375C84.6881 16.7904 84.9273 15.8346 85.4536 15.1416C85.98 14.4247 86.6498 14.0662 87.4632 14.0662C87.7503 14.0662 88.0374 14.1379 88.3963 14.1857C88.7312 14.2813 88.9704 14.3769 89.1379 14.4963L89.2575 14.5919V11.4854L89.1858 11.4615C88.9704 11.3181 88.5398 11.2464 88.0135 11.2464ZM96.4825 11.1747C94.3055 11.1747 92.559 11.8199 91.3389 13.0864C90.0949 14.353 89.4968 16.0974 89.4968 18.2959C89.4968 20.351 90.1188 22.0238 91.315 23.2425C92.5112 24.4373 94.138 25.0587 96.1715 25.0587C98.3007 25.0587 99.9993 24.4134 101.219 23.123C102.463 21.8326 103.062 20.1121 103.062 17.9853C103.062 15.8823 102.487 14.2096 101.315 12.9909C100.191 11.7721 98.54 11.1747 96.4825 11.1747ZM98.9706 21.3547C98.3964 22.0955 97.4873 22.4539 96.3629 22.4539C95.2385 22.4539 94.3294 22.0955 93.6834 21.3069C93.0375 20.5661 92.7265 19.4907 92.7265 18.1286C92.7265 16.7187 93.0614 15.6434 93.6834 14.8787C94.3294 14.114 95.2146 13.7316 96.339 13.7316C97.4395 13.7316 98.3007 14.0901 98.9228 14.8309C99.5448 15.5717 99.8797 16.647 99.8797 18.0569C99.8319 19.4907 99.5687 20.6139 98.9706 21.3547ZM109.999 16.9577C109.019 16.5515 108.397 16.2408 108.11 15.9779C107.87 15.739 107.751 15.4044 107.751 14.9743C107.751 14.6158 107.894 14.2574 108.253 14.0184C108.612 13.7794 109.019 13.66 109.617 13.66C110.143 13.66 110.693 13.7555 111.22 13.8989C111.746 14.0423 112.224 14.2574 112.607 14.5441L112.727 14.6397V11.7243L112.655 11.7004C112.296 11.5571 111.818 11.4137 111.244 11.2942C110.669 11.1986 110.143 11.1508 109.712 11.1508C108.229 11.1508 107.009 11.5093 106.052 12.2979C105.095 13.0386 104.641 14.0423 104.641 15.2132C104.641 15.8346 104.736 16.3842 104.952 16.8382C105.167 17.2922 105.478 17.7224 105.909 18.0808C106.339 18.4154 106.961 18.7977 107.822 19.1562C108.54 19.4668 109.09 19.7058 109.425 19.897C109.76 20.0882 109.976 20.3032 110.143 20.4705C110.263 20.6617 110.334 20.9006 110.334 21.2113C110.334 22.0955 109.665 22.5256 108.301 22.5256C107.775 22.5256 107.224 22.43 106.578 22.215C105.932 21.9999 105.334 21.6892 104.832 21.3308L104.712 21.2352V24.2701L104.784 24.294C105.239 24.509 105.789 24.6524 106.459 24.8197C107.129 24.9392 107.727 25.0348 108.253 25.0348C109.856 25.0348 111.172 24.6763 112.105 23.8877C113.062 23.123 113.564 22.1433 113.564 20.8767C113.564 19.9926 113.325 19.204 112.799 18.6066C112.105 18.033 111.244 17.4356 109.999 16.9577ZM121.77 11.1747C119.593 11.1747 117.847 11.8199 116.626 13.0864C115.406 14.353 114.784 16.0974 114.784 18.2959C114.784 20.351 115.406 22.0238 116.602 23.2425C117.799 24.4373 119.425 25.0587 121.459 25.0587C123.588 25.0587 125.287 24.4134 126.507 23.123C127.751 21.8326 128.349 20.1121 128.349 17.9853C128.349 15.8823 127.775 14.2096 126.603 12.9909C125.478 11.7721 123.827 11.1747 121.77 11.1747ZM124.234 21.3547C123.66 22.0955 122.751 22.4539 121.626 22.4539C120.478 22.4539 119.593 22.0955 118.947 21.3069C118.301 20.5661 117.99 19.4907 117.99 18.1286C117.99 16.7187 118.325 15.6434 118.947 14.8787C119.593 14.114 120.478 13.7316 121.603 13.7316C122.679 13.7316 123.564 14.0901 124.186 14.8309C124.808 15.5717 125.143 16.647 125.143 18.0569C125.143 19.4907 124.832 20.6139 124.234 21.3547ZM144.976 14.0184V11.4615H141.842V7.54242L141.746 7.56632L138.78 8.45049L138.708 8.47439V11.4615H134.019V9.7887C134.019 9.02401 134.21 8.4266 134.545 8.04425C134.88 7.6619 135.383 7.47073 136.005 7.47073C136.435 7.47073 136.89 7.56632 137.392 7.78139L137.512 7.85308V5.15276L137.44 5.12886C137.01 4.98548 136.435 4.88989 135.694 4.88989C134.761 4.88989 133.947 5.10496 133.206 5.46341C132.464 5.86965 131.914 6.41928 131.507 7.16007C131.1 7.87697 130.885 8.68946 130.885 9.62143V11.4615H128.708V13.9945H130.885V24.7002H134.019V14.0184H138.708V20.829C138.708 23.6249 140.024 25.0348 142.656 25.0348C143.086 25.0348 143.541 24.9631 143.971 24.8914C144.426 24.7958 144.761 24.6763 144.952 24.5807L144.976 24.5568V21.9999L144.857 22.0955C144.665 22.215 144.498 22.3105 144.211 22.3822C143.971 22.4539 143.756 22.4778 143.589 22.4778C142.967 22.4778 142.536 22.3344 142.225 21.976C141.938 21.6414 141.794 21.0918 141.794 20.2793V14.0184H144.976Z" fill="#737373"/>
<path d="M0.5 0.0866699H15.1653V14.7353H0.5V0.0866699Z" fill="#F25022"/>
<path d="M16.6965 0.0866699H31.3618V14.7353H16.6965V0.0866699Z" fill="#7FBA00"/>
<path d="M0.5 16.2647H15.1653V30.9134H0.5V16.2647Z" fill="#00A4EF"/>
<path d="M16.6965 16.2647H31.3618V30.9134H16.6965V16.2647Z" fill="#FFB900"/>
</g>
<defs>
<clipPath id="clip0_18_326">
<rect width="144.5" height="30.8267" fill="white" transform="translate(0.5 0.0866699)"/>
</clipPath>
</defs>
</svg>
