<svg width="24" height="23" viewBox="0 0 24 23" fill="none" xmlns="http://www.w3.org/2000/svg">
<path d="M3.0249 10.4286C3.02323 9.24308 3.25613 8.06894 3.71018 6.97381C4.16423 5.87868 4.83046 4.8842 5.67049 4.04765C6.51053 3.2111 7.50777 2.54901 8.60478 2.09952C9.70179 1.65002 10.8769 1.42201 12.0624 1.42861C17.0124 1.46611 20.9749 5.57861 20.9749 10.5411V11.4286C20.9749 15.9036 21.9124 18.5036 22.7374 19.9286C22.825 20.0804 22.8712 20.2525 22.8714 20.4277C22.8715 20.603 22.8256 20.7752 22.7383 20.9271C22.6509 21.079 22.5252 21.2053 22.3737 21.2933C22.2221 21.3813 22.0501 21.428 21.8749 21.4286H2.1249C1.94966 21.428 1.77766 21.3813 1.62613 21.2933C1.4746 21.2053 1.34886 21.079 1.26151 20.9271C1.17416 20.7752 1.12826 20.603 1.12842 20.4277C1.12857 20.2525 1.17478 20.0804 1.2624 19.9286C2.0874 18.5036 3.0249 15.9036 3.0249 11.4286V10.4286Z" stroke="black" stroke-width="2" stroke-linecap="round" stroke-linejoin="round"/>
</svg>
