<svg width="24" height="23" viewBox="0 0 24 23" fill="none" xmlns="http://www.w3.org/2000/svg">
<path d="M3.02502 10.8165C3.02335 9.63102 3.25625 8.45688 3.7103 7.36175C4.16435 6.26662 4.83058 5.27213 5.67061 4.43559C6.51065 3.59904 7.50789 2.93695 8.6049 2.48746C9.70191 2.03796 10.877 1.80995 12.0625 1.81655C17.0125 1.85405 20.975 5.96655 20.975 10.929V11.8165C20.975 16.2915 21.9125 18.8915 22.7375 20.3165C22.8251 20.4683 22.8713 20.6404 22.8715 20.8157C22.8716 20.9909 22.8258 21.1631 22.7384 21.315C22.651 21.4669 22.5253 21.5932 22.3738 21.6813C22.2223 21.7693 22.0503 21.8159 21.875 21.8165H2.12502C1.94978 21.8159 1.77778 21.7693 1.62625 21.6813C1.47472 21.5932 1.34899 21.4669 1.26163 21.315C1.17428 21.1631 1.12839 20.9909 1.12854 20.8157C1.1287 20.6404 1.1749 20.4683 1.26252 20.3165C2.08752 18.8915 3.02502 16.2915 3.02502 11.8165V10.8165Z" stroke="black" stroke-width="2" stroke-linecap="round" stroke-linejoin="round"/>
</svg>
