<svg width="24" height="23" viewBox="0 0 24 23" fill="none" xmlns="http://www.w3.org/2000/svg">
<path d="M3.02502 10.8161C3.02335 9.63053 3.25625 8.45639 3.7103 7.36126C4.16435 6.26613 4.83058 5.27165 5.67061 4.4351C6.51065 3.59855 7.50789 2.93646 8.6049 2.48697C9.70191 2.03748 10.877 1.80946 12.0625 1.81606C17.0125 1.85356 20.975 5.96606 20.975 10.9286V11.8161C20.975 16.2911 21.9125 18.8911 22.7375 20.3161C22.8251 20.4678 22.8713 20.6399 22.8715 20.8152C22.8716 20.9904 22.8258 21.1626 22.7384 21.3145C22.651 21.4665 22.5253 21.5927 22.3738 21.6808C22.2223 21.7688 22.0503 21.8154 21.875 21.8161H2.12502C1.94978 21.8154 1.77778 21.7688 1.62625 21.6808C1.47472 21.5927 1.34899 21.4665 1.26163 21.3145C1.17428 21.1626 1.12839 20.9904 1.12854 20.8152C1.1287 20.6399 1.1749 20.4678 1.26252 20.3161C2.08752 18.8911 3.02502 16.2911 3.02502 11.8161V10.8161Z" stroke="black" stroke-width="2" stroke-linecap="round" stroke-linejoin="round"/>
</svg>
