<svg width="24" height="23" viewBox="0 0 24 23" fill="none" xmlns="http://www.w3.org/2000/svg">
<path d="M3.0249 10.8161C3.02323 9.63053 3.25613 8.45639 3.71018 7.36126C4.16423 6.26613 4.83046 5.27165 5.67049 4.4351C6.51053 3.59855 7.50777 2.93646 8.60478 2.48697C9.70179 2.03748 10.8769 1.80946 12.0624 1.81606C17.0124 1.85356 20.9749 5.96606 20.9749 10.9286V11.8161C20.9749 16.2911 21.9124 18.8911 22.7374 20.3161C22.825 20.4678 22.8712 20.6399 22.8714 20.8152C22.8715 20.9904 22.8256 21.1626 22.7383 21.3145C22.6509 21.4665 22.5252 21.5927 22.3737 21.6808C22.2221 21.7688 22.0501 21.8154 21.8749 21.8161H2.1249C1.94966 21.8154 1.77766 21.7688 1.62613 21.6808C1.4746 21.5927 1.34886 21.4665 1.26151 21.3145C1.17416 21.1626 1.12826 20.9904 1.12842 20.8152C1.12857 20.6399 1.17478 20.4678 1.2624 20.3161C2.0874 18.8911 3.0249 16.2911 3.0249 11.8161V10.8161Z" stroke="black" stroke-width="2" stroke-linecap="round" stroke-linejoin="round"/>
</svg>
